ply
format ascii 1.0
comment Created by Blender 2.92.0 - www.blender.org
element vertex 128
property float x
property float y
property float z
property float nx
property float ny
property float nz
element face 62
property list uchar uint vertex_indices
end_header
0.000000 1.000000 -1.000000 0.087754 0.890977 0.445488
0.000000 0.000000 1.000000 0.087754 0.890977 0.445488
0.195090 0.980785 -1.000000 0.087754 0.890977 0.445488
0.195090 0.980785 -1.000000 0.259888 0.856737 0.445488
0.000000 0.000000 1.000000 0.259888 0.856737 0.445488
0.382683 0.923880 -1.000000 0.259888 0.856737 0.445488
0.382683 0.923880 -1.000000 0.422036 0.789573 0.445488
0.000000 0.000000 1.000000 0.422036 0.789573 0.445488
0.555570 0.831470 -1.000000 0.422036 0.789573 0.445488
0.555570 0.831470 -1.000000 0.567965 0.692067 0.445488
0.000000 0.000000 1.000000 0.567965 0.692067 0.445488
0.707107 0.707107 -1.000000 0.567965 0.692067 0.445488
0.707107 0.707107 -1.000000 0.692067 0.567965 0.445488
0.000000 0.000000 1.000000 0.692067 0.567965 0.445488
0.831470 0.555570 -1.000000 0.692067 0.567965 0.445488
0.831470 0.555570 -1.000000 0.789573 0.422036 0.445488
0.000000 0.000000 1.000000 0.789573 0.422036 0.445488
0.923880 0.382683 -1.000000 0.789573 0.422036 0.445488
0.923880 0.382683 -1.000000 0.856737 0.259888 0.445488
0.000000 0.000000 1.000000 0.856737 0.259888 0.445488
0.980785 0.195090 -1.000000 0.856737 0.259888 0.445488
0.980785 0.195090 -1.000000 0.890977 0.087754 0.445488
0.000000 0.000000 1.000000 0.890977 0.087754 0.445488
1.000000 0.000000 -1.000000 0.890977 0.087754 0.445488
1.000000 0.000000 -1.000000 0.890977 -0.087753 0.445488
0.000000 0.000000 1.000000 0.890977 -0.087753 0.445488
0.980785 -0.195090 -1.000000 0.890977 -0.087753 0.445488
0.980785 -0.195090 -1.000000 0.856737 -0.259888 0.445488
0.000000 0.000000 1.000000 0.856737 -0.259888 0.445488
0.923880 -0.382683 -1.000000 0.856737 -0.259888 0.445488
0.923880 -0.382683 -1.000000 0.789573 -0.422035 0.445488
0.000000 0.000000 1.000000 0.789573 -0.422035 0.445488
0.831470 -0.555570 -1.000000 0.789573 -0.422035 0.445488
0.831470 -0.555570 -1.000000 0.692067 -0.567965 0.445488
0.000000 0.000000 1.000000 0.692067 -0.567965 0.445488
0.707107 -0.707107 -1.000000 0.692067 -0.567965 0.445488
0.707107 -0.707107 -1.000000 0.567965 -0.692067 0.445488
0.000000 0.000000 1.000000 0.567965 -0.692067 0.445488
0.555570 -0.831470 -1.000000 0.567965 -0.692067 0.445488
0.555570 -0.831470 -1.000000 0.422036 -0.789573 0.445488
0.000000 0.000000 1.000000 0.422036 -0.789573 0.445488
0.382683 -0.923880 -1.000000 0.422036 -0.789573 0.445488
0.382683 -0.923880 -1.000000 0.259888 -0.856737 0.445488
0.000000 0.000000 1.000000 0.259888 -0.856737 0.445488
0.195090 -0.980785 -1.000000 0.259888 -0.856737 0.445488
0.195090 -0.980785 -1.000000 0.087753 -0.890977 0.445488
0.000000 0.000000 1.000000 0.087753 -0.890977 0.445488
-0.000000 -1.000000 -1.000000 0.087753 -0.890977 0.445488
-0.000000 -1.000000 -1.000000 -0.087754 -0.890977 0.445488
0.000000 0.000000 1.000000 -0.087754 -0.890977 0.445488
-0.195091 -0.980785 -1.000000 -0.087754 -0.890977 0.445488
-0.195091 -0.980785 -1.000000 -0.259889 -0.856737 0.445488
0.000000 0.000000 1.000000 -0.259889 -0.856737 0.445488
-0.382684 -0.923879 -1.000000 -0.259889 -0.856737 0.445488
-0.382684 -0.923879 -1.000000 -0.422036 -0.789573 0.445488
0.000000 0.000000 1.000000 -0.422036 -0.789573 0.445488
-0.555571 -0.831469 -1.000000 -0.422036 -0.789573 0.445488
-0.555571 -0.831469 -1.000000 -0.567965 -0.692066 0.445488
0.000000 0.000000 1.000000 -0.567965 -0.692066 0.445488
-0.707107 -0.707106 -1.000000 -0.567965 -0.692066 0.445488
-0.707107 -0.707106 -1.000000 -0.692067 -0.567964 0.445488
0.000000 0.000000 1.000000 -0.692067 -0.567964 0.445488
-0.831470 -0.555570 -1.000000 -0.692067 -0.567964 0.445488
-0.831470 -0.555570 -1.000000 -0.789574 -0.422035 0.445488
0.000000 0.000000 1.000000 -0.789574 -0.422035 0.445488
-0.923880 -0.382683 -1.000000 -0.789574 -0.422035 0.445488
-0.923880 -0.382683 -1.000000 -0.856737 -0.259887 0.445488
0.000000 0.000000 1.000000 -0.856737 -0.259887 0.445488
-0.980785 -0.195089 -1.000000 -0.856737 -0.259887 0.445488
-0.980785 -0.195089 -1.000000 -0.890977 -0.087753 0.445488
0.000000 0.000000 1.000000 -0.890977 -0.087753 0.445488
-1.000000 0.000001 -1.000000 -0.890977 -0.087753 0.445488
-1.000000 0.000001 -1.000000 -0.890977 0.087754 0.445488
0.000000 0.000000 1.000000 -0.890977 0.087754 0.445488
-0.980785 0.195091 -1.000000 -0.890977 0.087754 0.445488
-0.980785 0.195091 -1.000000 -0.856737 0.259889 0.445488
0.000000 0.000000 1.000000 -0.856737 0.259889 0.445488
-0.923879 0.382684 -1.000000 -0.856737 0.259889 0.445488
-0.923879 0.382684 -1.000000 -0.789573 0.422037 0.445488
0.000000 0.000000 1.000000 -0.789573 0.422037 0.445488
-0.831469 0.555571 -1.000000 -0.789573 0.422037 0.445488
-0.831469 0.555571 -1.000000 -0.692066 0.567965 0.445488
0.000000 0.000000 1.000000 -0.692066 0.567965 0.445488
-0.707106 0.707108 -1.000000 -0.692066 0.567965 0.445488
-0.707106 0.707108 -1.000000 -0.567964 0.692067 0.445488
0.000000 0.000000 1.000000 -0.567964 0.692067 0.445488
-0.555569 0.831470 -1.000000 -0.567964 0.692067 0.445488
-0.555569 0.831470 -1.000000 -0.422035 0.789574 0.445488
0.000000 0.000000 1.000000 -0.422035 0.789574 0.445488
-0.382682 0.923880 -1.000000 -0.422035 0.789574 0.445488
0.980785 0.195090 -1.000000 0.000000 0.000000 -1.000000
0.195090 -0.980785 -1.000000 0.000000 0.000000 -1.000000
-0.980785 -0.195089 -1.000000 0.000000 0.000000 -1.000000
-0.382682 0.923880 -1.000000 -0.259887 0.856737 0.445488
0.000000 0.000000 1.000000 -0.259887 0.856737 0.445488
-0.195089 0.980786 -1.000000 -0.259887 0.856737 0.445488
-0.195089 0.980786 -1.000000 -0.087753 0.890977 0.445488
0.000000 0.000000 1.000000 -0.087753 0.890977 0.445488
0.000000 1.000000 -1.000000 -0.087753 0.890977 0.445488
-0.195089 0.980786 -1.000000 -0.000000 0.000000 -1.000000
0.000000 1.000000 -1.000000 -0.000000 0.000000 -1.000000
0.195090 0.980785 -1.000000 -0.000000 0.000000 -1.000000
0.382683 0.923880 -1.000000 0.000000 0.000000 -1.000000
0.555570 0.831470 -1.000000 0.000000 0.000000 -1.000000
0.707107 0.707107 -1.000000 0.000000 0.000000 -1.000000
0.831470 0.555570 -1.000000 0.000000 0.000000 -1.000000
0.923880 0.382683 -1.000000 0.000000 0.000000 -1.000000
1.000000 0.000000 -1.000000 0.000000 0.000000 -1.000000
0.980785 -0.195090 -1.000000 0.000000 0.000000 -1.000000
0.923880 -0.382683 -1.000000 0.000000 -0.000000 -1.000000
0.831470 -0.555570 -1.000000 0.000000 -0.000000 -1.000000
0.707107 -0.707107 -1.000000 0.000000 0.000000 -1.000000
0.555570 -0.831470 -1.000000 0.000000 0.000000 -1.000000
0.382683 -0.923880 -1.000000 0.000000 0.000000 -1.000000
-0.000000 -1.000000 -1.000000 0.000000 0.000000 -1.000000
-0.195091 -0.980785 -1.000000 0.000000 0.000000 -1.000000
-0.382684 -0.923879 -1.000000 0.000000 0.000000 -1.000000
-0.555571 -0.831469 -1.000000 0.000000 0.000000 -1.000000
-0.707107 -0.707106 -1.000000 0.000000 0.000000 -1.000000
-0.831470 -0.555570 -1.000000 0.000000 0.000000 -1.000000
-0.923880 -0.382683 -1.000000 0.000000 0.000000 -1.000000
-1.000000 0.000001 -1.000000 0.000000 -0.000000 -1.000000
-0.980785 0.195091 -1.000000 0.000000 -0.000000 -1.000000
-0.923879 0.382684 -1.000000 0.000000 0.000000 -1.000000
-0.831469 0.555571 -1.000000 0.000000 0.000000 -1.000000
-0.707106 0.707108 -1.000000 0.000000 0.000000 -1.000000
-0.555569 0.831470 -1.000000 0.000000 0.000000 -1.000000
-0.382682 0.923880 -1.000000 0.000000 0.000000 -1.000000
3 0 1 2
3 3 4 5
3 6 7 8
3 9 10 11
3 12 13 14
3 15 16 17
3 18 19 20
3 21 22 23
3 24 25 26
3 27 28 29
3 30 31 32
3 33 34 35
3 36 37 38
3 39 40 41
3 42 43 44
3 45 46 47
3 48 49 50
3 51 52 53
3 54 55 56
3 57 58 59
3 60 61 62
3 63 64 65
3 66 67 68
3 69 70 71
3 72 73 74
3 75 76 77
3 78 79 80
3 81 82 83
3 84 85 86
3 87 88 89
3 90 91 92
3 93 94 95
3 96 97 98
3 99 100 101
3 101 102 103
3 103 104 105
3 105 106 103
3 106 90 103
3 90 107 108
3 108 109 90
3 109 110 90
3 110 111 91
3 111 112 91
3 112 113 91
3 91 114 115
3 115 116 117
3 117 118 92
3 118 119 92
3 119 120 92
3 92 121 122
3 122 123 124
3 124 125 126
3 126 127 99
3 99 101 103
3 91 115 92
3 115 117 92
3 92 122 99
3 122 124 99
3 124 126 99
3 99 103 90
3 90 110 91
3 99 90 92
