ply
format ascii 1.0
comment Created by Blender 2.92.0 - www.blender.org
element vertex 764
property float x
property float y
property float z
property float nx
property float ny
property float nz
element face 302
property list uchar uint vertex_indices
end_header
0.995185 0.098017 0.013456 0.998796 0.049068 -0.000000
1.000000 0.000000 0.034000 0.998796 0.049068 -0.000000
1.000000 0.000000 0.000000 0.998796 0.049068 -0.000000
1.000000 0.000000 0.034000 0.998795 -0.049068 0.000000
0.995185 -0.098017 0.013456 0.998795 -0.049068 0.000000
1.000000 0.000000 0.000000 0.998795 -0.049068 0.000000
0.881921 0.471397 0.013456 0.903989 0.427555 -0.000000
0.923880 0.382683 0.034000 0.903989 0.427555 -0.000000
0.923880 0.382683 0.000000 0.903989 0.427555 -0.000000
0.923880 0.382683 0.034000 0.941544 0.336890 0.000000
0.956940 0.290285 0.013456 0.941544 0.336890 0.000000
0.923880 0.382683 0.000000 0.941544 0.336890 0.000000
0.634393 0.773010 0.013456 0.671559 0.740951 -0.000000
0.707107 0.707107 0.034000 0.671559 0.740951 -0.000000
0.707107 0.707107 0.000000 0.671559 0.740951 -0.000000
0.707107 0.707107 0.034000 0.740951 0.671559 0.000000
0.773010 0.634393 0.013456 0.740951 0.671559 0.000000
0.707107 0.707107 0.000000 0.740951 0.671559 0.000000
0.290285 0.956940 0.013456 0.336890 0.941544 -0.000000
0.382683 0.923880 0.034000 0.336890 0.941544 -0.000000
0.382683 0.923880 0.000000 0.336890 0.941544 -0.000000
0.382683 0.923880 0.034000 0.427555 0.903989 0.000000
0.471397 0.881921 0.013456 0.427555 0.903989 0.000000
0.382683 0.923880 0.000000 0.427555 0.903989 0.000000
-0.098017 0.995185 0.013456 -0.049068 0.998796 0.000000
-0.000000 1.000000 0.034000 -0.049068 0.998796 0.000000
-0.000000 1.000000 0.000000 -0.049068 0.998796 0.000000
-0.000000 1.000000 0.034000 0.049068 0.998795 0.000000
0.098017 0.995185 0.013456 0.049068 0.998795 0.000000
-0.000000 1.000000 0.000000 0.049068 0.998795 0.000000
-0.471397 0.881921 0.013456 -0.427555 0.903989 0.000000
-0.382683 0.923880 0.034000 -0.427555 0.903989 0.000000
-0.382683 0.923880 0.000000 -0.427555 0.903989 0.000000
-0.382683 0.923880 0.034000 -0.336889 0.941544 0.000000
-0.290285 0.956940 0.013456 -0.336889 0.941544 0.000000
-0.382683 0.923880 0.000000 -0.336889 0.941544 0.000000
-0.773010 0.634393 0.013456 -0.740951 0.671559 0.000000
-0.707107 0.707107 0.034000 -0.740951 0.671559 0.000000
-0.707107 0.707107 0.000000 -0.740951 0.671559 0.000000
-0.707107 0.707107 0.034000 -0.671559 0.740951 0.000000
-0.634393 0.773010 0.013456 -0.671559 0.740951 0.000000
-0.707107 0.707107 0.000000 -0.671559 0.740951 0.000000
-0.956940 0.290285 0.013456 -0.941544 0.336890 0.000000
-0.923880 0.382683 0.034000 -0.941544 0.336890 0.000000
-0.923880 0.382683 0.000000 -0.941544 0.336890 0.000000
-0.923880 0.382683 0.034000 -0.903989 0.427555 0.000000
-0.881921 0.471397 0.013456 -0.903989 0.427555 0.000000
-0.923880 0.382683 0.000000 -0.903989 0.427555 0.000000
-0.995185 -0.098017 0.013456 -0.998795 -0.049068 0.000000
-1.000000 -0.000000 0.034000 -0.998795 -0.049068 0.000000
-1.000000 -0.000000 0.000000 -0.998795 -0.049068 0.000000
-1.000000 -0.000000 0.034000 -0.998796 0.049068 0.000000
-0.995185 0.098017 0.013456 -0.998796 0.049068 0.000000
-1.000000 -0.000000 0.000000 -0.998796 0.049068 0.000000
-0.881921 -0.471397 0.013456 -0.903989 -0.427555 0.000000
-0.923880 -0.382683 0.034000 -0.903989 -0.427555 0.000000
-0.923880 -0.382683 0.000000 -0.903989 -0.427555 0.000000
-0.923880 -0.382683 0.034000 -0.941544 -0.336890 0.000000
-0.956940 -0.290285 0.013456 -0.941544 -0.336890 0.000000
-0.923880 -0.382683 0.000000 -0.941544 -0.336890 0.000000
-0.634393 -0.773010 0.013456 -0.671559 -0.740951 0.000000
-0.707107 -0.707107 0.034000 -0.671559 -0.740951 0.000000
-0.707107 -0.707107 0.000000 -0.671559 -0.740951 0.000000
-0.707107 -0.707107 0.034000 -0.740951 -0.671559 0.000000
-0.773011 -0.634393 0.013456 -0.740951 -0.671559 0.000000
-0.707107 -0.707107 0.000000 -0.740951 -0.671559 0.000000
-0.290285 -0.956940 0.013456 -0.336889 -0.941544 0.000000
-0.382684 -0.923880 0.034000 -0.336889 -0.941544 0.000000
-0.382684 -0.923880 0.000000 -0.336889 -0.941544 0.000000
-0.382684 -0.923880 0.034000 -0.427555 -0.903989 0.000000
-0.471397 -0.881921 0.013456 -0.427555 -0.903989 0.000000
-0.382684 -0.923880 0.000000 -0.427555 -0.903989 0.000000
0.098017 -0.995185 0.013456 0.049068 -0.998795 0.000000
0.000000 -1.000000 0.034000 0.049068 -0.998795 0.000000
0.000000 -1.000000 0.000000 0.049068 -0.998795 0.000000
0.000000 -1.000000 0.034000 -0.049068 -0.998795 0.000000
-0.098017 -0.995185 0.013456 -0.049068 -0.998795 0.000000
0.000000 -1.000000 0.000000 -0.049068 -0.998795 0.000000
0.471397 -0.881921 0.013456 0.427555 -0.903989 0.000000
0.382684 -0.923879 0.034000 0.427555 -0.903989 0.000000
0.382684 -0.923879 0.000000 0.427555 -0.903989 0.000000
0.382684 -0.923879 0.034000 0.336890 -0.941544 0.000000
0.290285 -0.956940 0.013456 0.336890 -0.941544 0.000000
0.382684 -0.923879 0.000000 0.336890 -0.941544 0.000000
0.773011 -0.634393 0.013456 0.740951 -0.671559 0.000000
0.707107 -0.707107 0.034000 0.740951 -0.671559 0.000000
0.707107 -0.707107 0.000000 0.740951 -0.671559 0.000000
0.707107 -0.707107 0.034000 0.671559 -0.740951 0.000000
0.634393 -0.773010 0.013456 0.671559 -0.740951 0.000000
0.707107 -0.707107 0.000000 0.671559 -0.740951 0.000000
0.956940 -0.290285 0.013456 0.941544 -0.336890 0.000000
0.923880 -0.382683 0.034000 0.941544 -0.336890 0.000000
0.923880 -0.382683 0.000000 0.941544 -0.336890 0.000000
0.923880 -0.382683 0.034000 0.903989 -0.427555 0.000000
0.881921 -0.471397 0.013456 0.903989 -0.427555 0.000000
0.923880 -0.382683 0.000000 0.903989 -0.427555 0.000000
0.980785 0.195090 0.017869 0.989176 0.146731 -0.000000
0.995185 0.098017 0.022016 0.989176 0.146731 -0.000000
0.995185 0.098017 0.013456 0.989176 0.146731 -0.000000
0.980785 0.195090 0.017869 0.970031 0.242980 0.000000
0.956940 0.290285 0.022016 0.970031 0.242980 0.000000
0.980785 0.195090 0.018086 0.970031 0.242980 0.000000
0.831470 0.555570 0.017869 0.857729 0.514103 -0.000000
0.881921 0.471397 0.022016 0.857729 0.514103 -0.000000
0.881921 0.471397 0.013456 0.857729 0.514103 -0.000000
0.831470 0.555570 0.017869 0.803208 0.595699 0.000000
0.773010 0.634393 0.022016 0.803208 0.595699 0.000000
0.831470 0.555570 0.018086 0.803208 0.595699 0.000000
0.555570 0.831470 0.017869 0.595699 0.803207 -0.000000
0.634393 0.773010 0.022016 0.595699 0.803207 -0.000000
0.634393 0.773010 0.013456 0.595699 0.803207 -0.000000
0.555570 0.831470 0.017869 0.514103 0.857728 0.000000
0.471397 0.881921 0.022016 0.514103 0.857728 0.000000
0.555570 0.831470 0.018086 0.514103 0.857728 0.000000
0.195090 0.980785 0.017869 0.242980 0.970031 -0.000000
0.290285 0.956940 0.022016 0.242980 0.970031 -0.000000
0.290285 0.956940 0.013456 0.242980 0.970031 -0.000000
0.195090 0.980785 0.017869 0.146731 0.989177 0.000000
0.098017 0.995185 0.022016 0.146731 0.989177 0.000000
0.195090 0.980785 0.018086 0.146731 0.989177 0.000000
-0.195090 0.980785 0.017869 -0.146731 0.989176 0.000000
-0.098017 0.995185 0.022016 -0.146731 0.989176 0.000000
-0.098017 0.995185 0.013456 -0.146731 0.989176 0.000000
-0.195090 0.980785 0.017869 -0.242981 0.970031 0.000000
-0.290285 0.956940 0.022016 -0.242981 0.970031 0.000000
-0.195090 0.980785 0.018086 -0.242981 0.970031 0.000000
-0.555570 0.831470 0.017869 -0.514102 0.857729 0.000000
-0.471397 0.881921 0.022016 -0.514102 0.857729 0.000000
-0.471397 0.881921 0.013456 -0.514102 0.857729 0.000000
-0.555570 0.831470 0.017869 -0.595699 0.803207 0.000000
-0.634393 0.773010 0.022016 -0.595699 0.803207 0.000000
-0.555570 0.831470 0.018086 -0.595699 0.803207 0.000000
-0.831470 0.555570 0.017869 -0.803208 0.595699 0.000000
-0.773010 0.634393 0.022016 -0.803208 0.595699 0.000000
-0.773010 0.634393 0.013456 -0.803208 0.595699 0.000000
-0.831470 0.555570 0.017869 -0.857728 0.514103 0.000000
-0.881921 0.471397 0.022016 -0.857728 0.514103 0.000000
-0.831470 0.555570 0.018086 -0.857728 0.514103 0.000000
-0.980785 0.195090 0.017869 -0.970031 0.242980 0.000000
-0.956940 0.290285 0.022016 -0.970031 0.242980 0.000000
-0.956940 0.290285 0.013456 -0.970031 0.242980 0.000000
-0.980785 0.195090 0.017869 -0.989177 0.146730 0.000000
-0.995185 0.098017 0.022016 -0.989177 0.146730 0.000000
-0.980785 0.195090 0.018086 -0.989177 0.146730 0.000000
-0.980785 -0.195090 0.017869 -0.989177 -0.146730 0.000000
-0.995185 -0.098017 0.022016 -0.989177 -0.146730 0.000000
-0.995185 -0.098017 0.013456 -0.989177 -0.146730 0.000000
-0.980785 -0.195090 0.017869 -0.970031 -0.242981 0.000000
-0.956940 -0.290285 0.022016 -0.970031 -0.242981 0.000000
-0.980785 -0.195090 0.018086 -0.970031 -0.242981 0.000000
-0.831470 -0.555570 0.017869 -0.857729 -0.514103 0.000000
-0.881921 -0.471397 0.022016 -0.857729 -0.514103 0.000000
-0.881921 -0.471397 0.013456 -0.857729 -0.514103 0.000000
-0.831470 -0.555570 0.017869 -0.803208 -0.595699 0.000000
-0.773011 -0.634393 0.022016 -0.803208 -0.595699 0.000000
-0.831470 -0.555570 0.018086 -0.803208 -0.595699 0.000000
-0.555570 -0.831469 0.017869 -0.595699 -0.803208 0.000000
-0.634393 -0.773010 0.022016 -0.595699 -0.803208 0.000000
-0.634393 -0.773010 0.013456 -0.595699 -0.803208 0.000000
-0.555570 -0.831469 0.017869 -0.514103 -0.857729 0.000000
-0.471397 -0.881921 0.022016 -0.514103 -0.857729 0.000000
-0.555570 -0.831469 0.018086 -0.514103 -0.857729 0.000000
-0.195090 -0.980785 0.017869 -0.242980 -0.970031 0.000000
-0.290285 -0.956940 0.022016 -0.242980 -0.970031 0.000000
-0.290285 -0.956940 0.013456 -0.242980 -0.970031 0.000000
-0.195090 -0.980785 0.017869 -0.146730 -0.989177 0.000000
-0.098017 -0.995185 0.022016 -0.146730 -0.989177 0.000000
-0.195090 -0.980785 0.018086 -0.146730 -0.989177 0.000000
0.195090 -0.980785 0.017869 0.146730 -0.989176 0.000000
0.098017 -0.995185 0.022016 0.146730 -0.989176 0.000000
0.098017 -0.995185 0.013456 0.146730 -0.989176 0.000000
0.195090 -0.980785 0.017869 0.242981 -0.970031 0.000000
0.290285 -0.956940 0.022016 0.242981 -0.970031 0.000000
0.195090 -0.980785 0.018086 0.242981 -0.970031 0.000000
0.555570 -0.831470 0.017869 0.514103 -0.857729 0.000000
0.471397 -0.881921 0.022016 0.514103 -0.857729 0.000000
0.471397 -0.881921 0.013456 0.514103 -0.857729 0.000000
0.555570 -0.831470 0.017869 0.595699 -0.803208 0.000000
0.634393 -0.773010 0.022016 0.595699 -0.803208 0.000000
0.555570 -0.831470 0.018086 0.595699 -0.803208 0.000000
0.831470 -0.555570 0.017869 0.803207 -0.595699 0.000000
0.773011 -0.634393 0.022016 0.803207 -0.595699 0.000000
0.773011 -0.634393 0.013456 0.803207 -0.595699 0.000000
0.831470 -0.555570 0.017869 0.857729 -0.514103 0.000000
0.881921 -0.471397 0.022016 0.857729 -0.514103 0.000000
0.831470 -0.555570 0.018086 0.857729 -0.514103 0.000000
0.980785 -0.195090 0.017869 0.970031 -0.242980 0.000000
0.956940 -0.290285 0.022016 0.970031 -0.242980 0.000000
0.956940 -0.290285 0.013456 0.970031 -0.242980 0.000000
0.980785 -0.195090 0.017869 0.989177 -0.146730 0.000000
0.995185 -0.098017 0.022016 0.989177 -0.146730 0.000000
0.980785 -0.195090 0.018086 0.989177 -0.146730 0.000000
0.980785 -0.195090 0.018086 0.625571 -0.123981 0.770253
0.995185 -0.098017 0.022016 0.625571 -0.123981 0.770253
0.647500 -0.268203 0.277000 0.625571 -0.123981 0.770253
0.881921 -0.471397 0.022016 0.530153 -0.354772 0.770114
0.923880 -0.382683 0.034000 0.530153 -0.354772 0.770114
0.647500 -0.268203 0.277000 0.530153 -0.354772 0.770114
0.773010 0.634393 0.022016 0.530792 0.354193 0.769940
0.707107 0.707107 0.034000 0.530792 0.354193 0.769940
0.647500 0.268203 0.277000 0.530792 0.354193 0.769940
0.980785 0.195090 0.018086 0.625625 0.124917 0.770058
0.956940 0.290285 0.022016 0.625625 0.124917 0.770058
0.647500 0.268203 0.277000 0.625625 0.124917 0.770058
0.098017 0.995185 0.022016 0.124875 0.625779 0.769940
-0.000000 1.000000 0.034000 0.124875 0.625779 0.769940
0.268203 0.647500 0.277000 0.124875 0.625779 0.769940
0.555570 0.831470 0.018086 0.354054 0.530713 0.770058
0.471397 0.881921 0.022016 0.354054 0.530713 0.770058
0.268203 0.647500 0.277000 0.354054 0.530713 0.770058
-0.634393 0.773010 0.022016 -0.354193 0.530792 0.769940
-0.707107 0.707107 0.034000 -0.354193 0.530792 0.769940
-0.268203 0.647500 0.277000 -0.354193 0.530792 0.769940
-0.195090 0.980785 0.018086 -0.124917 0.625625 0.770058
-0.290285 0.956940 0.022016 -0.124917 0.625625 0.770058
-0.268203 0.647500 0.277000 -0.124917 0.625625 0.770058
-0.995185 0.098017 0.022016 -0.625779 0.124875 0.769939
-1.000000 -0.000000 0.034000 -0.625779 0.124875 0.769939
-0.647500 0.268203 0.277000 -0.625779 0.124875 0.769939
-0.831470 0.555570 0.018086 -0.530713 0.354054 0.770058
-0.881921 0.471397 0.022016 -0.530713 0.354054 0.770058
-0.647500 0.268203 0.277000 -0.530713 0.354054 0.770058
-0.773011 -0.634393 0.022016 -0.530792 -0.354193 0.769940
-0.707107 -0.707107 0.034000 -0.530792 -0.354193 0.769940
-0.647500 -0.268203 0.277000 -0.530792 -0.354193 0.769940
-0.980785 -0.195090 0.018086 -0.625625 -0.124917 0.770058
-0.956940 -0.290285 0.022016 -0.625625 -0.124917 0.770058
-0.647500 -0.268203 0.277000 -0.625625 -0.124917 0.770058
-0.098017 -0.995185 0.022016 -0.124875 -0.625779 0.769939
0.000000 -1.000000 0.034000 -0.124875 -0.625779 0.769939
-0.268203 -0.647500 0.277000 -0.124875 -0.625779 0.769939
-0.555570 -0.831469 0.018086 -0.354054 -0.530713 0.770058
-0.471397 -0.881921 0.022016 -0.354054 -0.530713 0.770058
-0.268203 -0.647500 0.277000 -0.354054 -0.530713 0.770058
0.634393 -0.773010 0.022016 0.354193 -0.530792 0.769940
0.707107 -0.707107 0.034000 0.354193 -0.530792 0.769940
0.268203 -0.647500 0.277000 0.354193 -0.530792 0.769940
0.195090 -0.980785 0.018086 0.124917 -0.625625 0.770058
0.290285 -0.956940 0.022016 0.124917 -0.625625 0.770058
0.268203 -0.647500 0.277000 0.124917 -0.625625 0.770058
0.530000 0.000000 0.358000 0.330842 0.137039 0.933683
0.647500 0.268203 0.277000 0.330842 0.137039 0.933683
0.374767 0.374767 0.358000 0.330842 0.137039 0.933683
0.374767 0.374767 0.358000 0.401332 0.401332 0.823326
0.707107 0.707107 0.034000 0.401332 0.401332 0.823326
0.268203 0.647500 0.277000 0.401332 0.401332 0.823326
0.374767 0.374767 0.358000 0.137039 0.330842 0.933683
0.268203 0.647500 0.277000 0.137039 0.330842 0.933683
-0.000000 0.530000 0.358000 0.137039 0.330842 0.933683
-0.000000 0.530000 0.358000 0.000000 0.567569 0.823326
-0.000000 1.000000 0.034000 0.000000 0.567569 0.823326
-0.268203 0.647500 0.277000 0.000000 0.567569 0.823326
-0.000000 0.530000 0.358000 -0.137039 0.330842 0.933683
-0.268203 0.647500 0.277000 -0.137039 0.330842 0.933683
-0.374767 0.374767 0.358000 -0.137039 0.330842 0.933683
-0.374767 0.374767 0.358000 -0.401332 0.401332 0.823326
-0.707107 0.707107 0.034000 -0.401332 0.401332 0.823326
-0.647500 0.268203 0.277000 -0.401332 0.401332 0.823326
-0.374767 0.374767 0.358000 -0.330842 0.137039 0.933683
-0.647500 0.268203 0.277000 -0.330842 0.137039 0.933683
-0.530000 -0.000000 0.358000 -0.330842 0.137039 0.933683
-0.530000 -0.000000 0.358000 -0.567569 0.000000 0.823326
-1.000000 -0.000000 0.034000 -0.567569 0.000000 0.823326
-0.647500 -0.268203 0.277000 -0.567569 0.000000 0.823326
-0.530000 -0.000000 0.358000 -0.330842 -0.137039 0.933683
-0.647500 -0.268203 0.277000 -0.330842 -0.137039 0.933683
-0.374767 -0.374767 0.358000 -0.330842 -0.137039 0.933683
-0.374767 -0.374767 0.358000 -0.401332 -0.401332 0.823326
-0.707107 -0.707107 0.034000 -0.401332 -0.401332 0.823326
-0.268203 -0.647500 0.277000 -0.401332 -0.401332 0.823326
-0.374767 -0.374767 0.358000 -0.137039 -0.330842 0.933683
-0.268203 -0.647500 0.277000 -0.137039 -0.330842 0.933683
0.000000 -0.530000 0.358000 -0.137039 -0.330842 0.933683
0.000000 -0.530000 0.358000 0.000000 -0.567569 0.823326
0.000000 -1.000000 0.034000 0.000000 -0.567569 0.823326
0.268203 -0.647500 0.277000 0.000000 -0.567569 0.823326
0.000000 -0.530000 0.358000 0.137039 -0.330842 0.933683
0.268203 -0.647500 0.277000 0.137039 -0.330842 0.933683
0.374766 -0.374767 0.358000 0.137039 -0.330842 0.933683
0.374766 -0.374767 0.358000 0.401332 -0.401332 0.823326
0.707107 -0.707107 0.034000 0.401332 -0.401332 0.823326
0.647500 -0.268203 0.277000 0.401332 -0.401332 0.823326
0.374766 -0.374767 0.358000 0.330842 -0.137039 0.933683
0.647500 -0.268203 0.277000 0.330842 -0.137039 0.933683
0.530000 0.000000 0.358000 0.330842 -0.137039 0.933683
1.000000 0.000000 0.034000 0.567569 0.000000 0.823326
0.530000 0.000000 0.358000 0.567569 0.000000 0.823326
0.647500 -0.268203 0.277000 0.567569 0.000000 0.823326
-0.374767 0.374767 0.358000 0.000000 -0.000000 1.000000
-0.374767 -0.374767 0.358000 0.000000 -0.000000 1.000000
0.374766 -0.374767 0.358000 0.000000 -0.000000 1.000000
0.980785 0.195090 0.017869 0.667972 0.132378 -0.732318
0.995185 0.098017 0.013456 0.667972 0.132378 -0.732318
0.400000 0.165685 -0.517200 0.667972 0.132378 -0.732318
0.956940 -0.290285 0.013456 0.668058 -0.132401 -0.732236
0.923880 -0.382683 0.000000 0.668058 -0.132401 -0.732236
0.400000 -0.165685 -0.517200 0.668058 -0.132401 -0.732236
0.555570 0.831470 0.017869 0.378722 0.565933 -0.732318
0.634393 0.773010 0.013456 0.378722 0.565933 -0.732318
0.165685 0.400000 -0.517200 0.378722 0.565933 -0.732318
0.881921 0.471397 0.013456 0.566010 0.378766 -0.732236
0.923880 0.382683 0.000000 0.566010 0.378766 -0.732236
0.400000 0.165685 -0.517200 0.566010 0.378766 -0.732236
-0.195090 0.980785 0.017869 -0.132378 0.667972 -0.732318
-0.098017 0.995185 0.013456 -0.132378 0.667972 -0.732318
-0.165685 0.400000 -0.517200 -0.132378 0.667972 -0.732318
0.290285 0.956940 0.013456 0.132401 0.668057 -0.732236
0.382683 0.923880 0.000000 0.132401 0.668057 -0.732236
0.165685 0.400000 -0.517200 0.132401 0.668057 -0.732236
-0.831470 0.555570 0.017869 -0.565933 0.378722 -0.732318
-0.773010 0.634393 0.013456 -0.565933 0.378722 -0.732318
-0.400000 0.165685 -0.517200 -0.565933 0.378722 -0.732318
-0.471397 0.881921 0.013456 -0.378767 0.566009 -0.732236
-0.382683 0.923880 0.000000 -0.378767 0.566009 -0.732236
-0.165685 0.400000 -0.517200 -0.378767 0.566009 -0.732236
-0.980785 -0.195090 0.017869 -0.667972 -0.132377 -0.732318
-0.995185 -0.098017 0.013456 -0.667972 -0.132377 -0.732318
-0.400000 -0.165685 -0.517200 -0.667972 -0.132377 -0.732318
-0.956940 0.290285 0.013456 -0.668057 0.132401 -0.732236
-0.923880 0.382683 0.000000 -0.668057 0.132401 -0.732236
-0.400000 0.165685 -0.517200 -0.668057 0.132401 -0.732236
-0.555570 -0.831469 0.017869 -0.378722 -0.565933 -0.732318
-0.634393 -0.773010 0.013456 -0.378722 -0.565933 -0.732318
-0.165685 -0.400000 -0.517200 -0.378722 -0.565933 -0.732318
-0.881921 -0.471397 0.013456 -0.566010 -0.378766 -0.732236
-0.923880 -0.382683 0.000000 -0.566010 -0.378766 -0.732236
-0.400000 -0.165685 -0.517200 -0.566010 -0.378766 -0.732236
0.195090 -0.980785 0.017869 0.132378 -0.667972 -0.732318
0.098017 -0.995185 0.013456 0.132378 -0.667972 -0.732318
0.165686 -0.400000 -0.517200 0.132378 -0.667972 -0.732318
-0.290285 -0.956940 0.013456 -0.132401 -0.668058 -0.732236
-0.382684 -0.923880 0.000000 -0.132401 -0.668058 -0.732236
-0.165685 -0.400000 -0.517200 -0.132401 -0.668058 -0.732236
0.831470 -0.555570 0.017869 0.565933 -0.378722 -0.732318
0.773011 -0.634393 0.013456 0.565933 -0.378722 -0.732318
0.400000 -0.165685 -0.517200 0.565933 -0.378722 -0.732318
0.471397 -0.881921 0.013456 0.378766 -0.566009 -0.732236
0.382684 -0.923879 0.000000 0.378766 -0.566009 -0.732236
0.165686 -0.400000 -0.517200 0.378766 -0.566009 -0.732236
0.400000 -0.165685 -0.517200 0.652910 0.000000 -0.757436
0.400000 0.165685 -0.517200 0.652910 0.000000 -0.757436
1.000000 0.000000 0.000000 0.652910 0.000000 -0.757436
0.400000 0.165685 -0.517200 0.461677 0.461677 -0.757436
0.165685 0.400000 -0.517200 0.461677 0.461677 -0.757436
0.707107 0.707107 0.000000 0.461677 0.461677 -0.757436
0.165685 0.400000 -0.517200 0.000000 0.652910 -0.757436
-0.165685 0.400000 -0.517200 0.000000 0.652910 -0.757436
-0.000000 1.000000 0.000000 0.000000 0.652910 -0.757436
-0.165685 0.400000 -0.517200 -0.461677 0.461677 -0.757436
-0.400000 0.165685 -0.517200 -0.461677 0.461677 -0.757436
-0.707107 0.707107 0.000000 -0.461677 0.461677 -0.757436
-0.400000 0.165685 -0.517200 -0.652910 0.000000 -0.757436
-0.400000 -0.165685 -0.517200 -0.652910 0.000000 -0.757436
-1.000000 -0.000000 0.000000 -0.652910 0.000000 -0.757436
-0.400000 -0.165685 -0.517200 -0.461677 -0.461677 -0.757436
-0.165685 -0.400000 -0.517200 -0.461677 -0.461677 -0.757436
-0.707107 -0.707107 0.000000 -0.461677 -0.461677 -0.757436
-0.165685 -0.400000 -0.517200 0.000000 -0.652910 -0.757436
0.165686 -0.400000 -0.517200 0.000000 -0.652910 -0.757436
0.000000 -1.000000 0.000000 0.000000 -0.652910 -0.757436
0.165686 -0.400000 -0.517200 0.461677 -0.461677 -0.757436
0.400000 -0.165685 -0.517200 0.461677 -0.461677 -0.757436
0.707107 -0.707107 0.000000 0.461677 -0.461677 -0.757436
0.995185 0.098017 0.022016 0.998796 0.049068 0.000000
0.995185 -0.098017 0.022016 0.998795 -0.049068 0.000000
0.881921 0.471397 0.022016 0.903989 0.427555 0.000000
0.956940 0.290285 0.022016 0.941544 0.336890 -0.000000
0.634393 0.773010 0.022016 0.671559 0.740951 0.000000
0.773010 0.634393 0.022016 0.740951 0.671559 -0.000000
0.290285 0.956940 0.022016 0.336890 0.941544 0.000000
0.471397 0.881921 0.022016 0.427555 0.903989 -0.000000
-0.098017 0.995185 0.022016 -0.049068 0.998796 0.000000
-0.000000 1.000000 0.034000 0.049068 0.998796 -0.000000
0.098017 0.995185 0.022016 0.049068 0.998796 -0.000000
0.098017 0.995185 0.013456 0.049068 0.998796 -0.000000
-0.471397 0.881921 0.022016 -0.427555 0.903989 0.000000
-0.290285 0.956940 0.022016 -0.336889 0.941544 0.000000
-0.773010 0.634393 0.022016 -0.740951 0.671559 0.000000
-0.634393 0.773010 0.022016 -0.671559 0.740951 0.000000
-0.956940 0.290285 0.022016 -0.941544 0.336890 0.000000
-0.881921 0.471397 0.022016 -0.903989 0.427555 0.000000
-0.995185 -0.098017 0.022016 -0.998795 -0.049068 -0.000000
-1.000000 -0.000000 0.034000 -0.998795 0.049068 0.000000
-0.995185 0.098017 0.022016 -0.998795 0.049068 0.000000
-0.995185 0.098017 0.013456 -0.998795 0.049068 0.000000
-0.881921 -0.471397 0.022016 -0.903989 -0.427555 -0.000000
-0.956940 -0.290285 0.022016 -0.941544 -0.336890 0.000000
-0.634393 -0.773010 0.022016 -0.671559 -0.740951 -0.000000
-0.773011 -0.634393 0.022016 -0.740951 -0.671559 0.000000
-0.290285 -0.956940 0.022016 -0.336889 -0.941544 -0.000000
-0.471397 -0.881921 0.022016 -0.427555 -0.903989 0.000000
0.098017 -0.995185 0.022016 0.049068 -0.998795 0.000000
-0.098017 -0.995185 0.022016 -0.049068 -0.998795 0.000000
0.471397 -0.881921 0.022016 0.427555 -0.903989 0.000000
0.290285 -0.956940 0.022016 0.336890 -0.941544 0.000000
0.773011 -0.634393 0.022016 0.740951 -0.671559 0.000000
0.634393 -0.773010 0.022016 0.671559 -0.740951 0.000000
0.956940 -0.290285 0.022016 0.941544 -0.336890 0.000000
0.881921 -0.471397 0.022016 0.903989 -0.427555 0.000000
0.980785 0.195090 0.018086 0.989176 0.146731 0.000000
0.956940 0.290285 0.013456 0.970031 0.242980 0.000000
0.831470 0.555570 0.017869 0.857728 0.514103 0.000000
0.831470 0.555570 0.018086 0.857728 0.514103 0.000000
0.881921 0.471397 0.022016 0.857728 0.514103 0.000000
0.773010 0.634393 0.013456 0.803208 0.595699 0.000000
0.555570 0.831470 0.018086 0.595699 0.803207 0.000000
0.555570 0.831470 0.017869 0.514103 0.857729 0.000000
0.471397 0.881921 0.013456 0.514103 0.857729 0.000000
0.471397 0.881921 0.022016 0.514103 0.857729 0.000000
0.195090 0.980785 0.018086 0.242980 0.970031 0.000000
0.195090 0.980785 0.017869 0.146731 0.989176 0.000000
0.098017 0.995185 0.013456 0.146731 0.989176 0.000000
0.098017 0.995185 0.022016 0.146731 0.989176 0.000000
-0.195090 0.980785 0.017869 -0.146731 0.989177 0.000000
-0.195090 0.980785 0.018086 -0.146731 0.989177 0.000000
-0.098017 0.995185 0.022016 -0.146731 0.989177 0.000000
-0.195090 0.980785 0.017869 -0.242980 0.970031 0.000000
-0.290285 0.956940 0.013456 -0.242980 0.970031 0.000000
-0.290285 0.956940 0.022016 -0.242980 0.970031 0.000000
-0.555570 0.831470 0.018086 -0.514102 0.857729 0.000000
-0.555570 0.831470 0.017869 -0.595699 0.803208 0.000000
-0.634393 0.773010 0.013456 -0.595699 0.803208 0.000000
-0.634393 0.773010 0.022016 -0.595699 0.803208 0.000000
-0.831470 0.555570 0.018086 -0.803208 0.595699 0.000000
-0.831470 0.555570 0.017869 -0.857729 0.514103 0.000000
-0.881921 0.471397 0.013456 -0.857729 0.514103 0.000000
-0.881921 0.471397 0.022016 -0.857729 0.514103 0.000000
-0.980785 0.195090 0.018086 -0.970031 0.242980 0.000000
-0.995185 0.098017 0.013456 -0.989177 0.146730 0.000000
-0.980785 -0.195090 0.018086 -0.989177 -0.146730 -0.000000
-0.980785 -0.195090 0.017869 -0.970031 -0.242980 -0.000000
-0.956940 -0.290285 0.013456 -0.970031 -0.242980 -0.000000
-0.956940 -0.290285 0.022016 -0.970031 -0.242980 -0.000000
-0.831470 -0.555570 0.017869 -0.857728 -0.514103 -0.000000
-0.831470 -0.555570 0.018086 -0.857728 -0.514103 -0.000000
-0.881921 -0.471397 0.022016 -0.857728 -0.514103 -0.000000
-0.773011 -0.634393 0.013456 -0.803208 -0.595699 -0.000000
-0.555570 -0.831469 0.018086 -0.595699 -0.803208 -0.000000
-0.471397 -0.881921 0.013456 -0.514103 -0.857729 -0.000000
-0.195090 -0.980785 0.018086 -0.242980 -0.970031 -0.000000
-0.098017 -0.995185 0.013456 -0.146730 -0.989177 -0.000000
0.195090 -0.980785 0.017869 0.146730 -0.989177 0.000000
0.195090 -0.980785 0.018086 0.146730 -0.989177 0.000000
0.098017 -0.995185 0.022016 0.146730 -0.989177 0.000000
0.195090 -0.980785 0.017869 0.242980 -0.970031 0.000000
0.290285 -0.956940 0.013456 0.242980 -0.970031 0.000000
0.290285 -0.956940 0.022016 0.242980 -0.970031 0.000000
0.555570 -0.831470 0.018086 0.514103 -0.857729 0.000000
0.634393 -0.773010 0.013456 0.595699 -0.803208 0.000000
0.831470 -0.555570 0.018086 0.803207 -0.595699 0.000000
0.831470 -0.555570 0.017869 0.857729 -0.514102 0.000000
0.881921 -0.471397 0.013456 0.857729 -0.514102 0.000000
0.881921 -0.471397 0.022016 0.857729 -0.514102 0.000000
0.980785 -0.195090 0.018086 0.970031 -0.242980 0.000000
0.995185 -0.098017 0.013456 0.989177 -0.146730 0.000000
0.995185 -0.098017 0.022016 0.625779 -0.124875 0.769940
1.000000 0.000000 0.034000 0.625779 -0.124875 0.769940
0.647500 -0.268203 0.277000 0.625779 -0.124875 0.769940
0.647500 -0.268203 0.277000 0.625736 -0.124013 0.770114
0.923880 -0.382683 0.034000 0.625736 -0.124013 0.770114
0.956940 -0.290285 0.022016 0.625736 -0.124013 0.770114
0.956940 -0.290285 0.022016 0.625625 -0.124917 0.770058
0.980785 -0.195090 0.018086 0.625625 -0.124917 0.770058
0.647500 -0.268203 0.277000 0.625625 -0.124917 0.770058
0.647500 -0.268203 0.277000 0.530792 -0.354193 0.769940
0.707107 -0.707107 0.034000 0.530792 -0.354193 0.769940
0.773011 -0.634393 0.022016 0.530792 -0.354193 0.769940
0.773011 -0.634393 0.022016 0.530014 -0.354678 0.770253
0.831470 -0.555570 0.018086 0.530014 -0.354678 0.770253
0.647500 -0.268203 0.277000 0.530014 -0.354678 0.770253
0.831470 -0.555570 0.018086 0.530714 -0.354054 0.770058
0.881921 -0.471397 0.022016 0.530714 -0.354054 0.770058
0.647500 -0.268203 0.277000 0.530714 -0.354054 0.770058
0.647500 0.268203 0.277000 0.530153 0.354771 0.770114
0.923880 0.382683 0.034000 0.530153 0.354771 0.770114
0.881921 0.471397 0.022016 0.530153 0.354771 0.770114
0.881921 0.471397 0.022016 0.530713 0.354054 0.770058
0.831470 0.555570 0.018086 0.530713 0.354054 0.770058
0.647500 0.268203 0.277000 0.530713 0.354054 0.770058
0.831470 0.555570 0.018086 0.530014 0.354678 0.770253
0.773010 0.634393 0.022016 0.530014 0.354678 0.770253
0.647500 0.268203 0.277000 0.530014 0.354678 0.770253
0.956940 0.290285 0.022016 0.625736 0.124013 0.770114
0.923880 0.382683 0.034000 0.625736 0.124013 0.770114
0.647500 0.268203 0.277000 0.625736 0.124013 0.770114
0.647500 0.268203 0.277000 0.625779 0.124875 0.769939
1.000000 0.000000 0.034000 0.625779 0.124875 0.769939
0.995185 0.098017 0.022016 0.625779 0.124875 0.769939
0.995185 0.098017 0.022016 0.625571 0.123981 0.770253
0.980785 0.195090 0.018086 0.625571 0.123981 0.770253
0.647500 0.268203 0.277000 0.625571 0.123981 0.770253
0.268203 0.647500 0.277000 0.124013 0.625736 0.770114
0.382683 0.923880 0.034000 0.124013 0.625736 0.770114
0.290285 0.956940 0.022016 0.124013 0.625736 0.770114
0.290285 0.956940 0.022016 0.124917 0.625625 0.770058
0.195090 0.980785 0.018086 0.124917 0.625625 0.770058
0.268203 0.647500 0.277000 0.124917 0.625625 0.770058
0.195090 0.980785 0.018086 0.123981 0.625571 0.770253
0.098017 0.995185 0.022016 0.123981 0.625571 0.770253
0.268203 0.647500 0.277000 0.123981 0.625571 0.770253
0.471397 0.881921 0.022016 0.354771 0.530153 0.770114
0.382683 0.923880 0.034000 0.354771 0.530153 0.770114
0.268203 0.647500 0.277000 0.354771 0.530153 0.770114
0.268203 0.647500 0.277000 0.354193 0.530793 0.769939
0.707107 0.707107 0.034000 0.354193 0.530793 0.769939
0.634393 0.773010 0.022016 0.354193 0.530793 0.769939
0.634393 0.773010 0.022016 0.354678 0.530014 0.770253
0.555570 0.831470 0.018086 0.354678 0.530014 0.770253
0.268203 0.647500 0.277000 0.354678 0.530014 0.770253
-0.268203 0.647500 0.277000 -0.354772 0.530153 0.770114
-0.382683 0.923880 0.034000 -0.354772 0.530153 0.770114
-0.471397 0.881921 0.022016 -0.354772 0.530153 0.770114
-0.471397 0.881921 0.022016 -0.354054 0.530714 0.770058
-0.555570 0.831470 0.018086 -0.354054 0.530714 0.770058
-0.268203 0.647500 0.277000 -0.354054 0.530714 0.770058
-0.555570 0.831470 0.018086 -0.354678 0.530014 0.770253
-0.634393 0.773010 0.022016 -0.354678 0.530014 0.770253
-0.268203 0.647500 0.277000 -0.354678 0.530014 0.770253
-0.290285 0.956940 0.022016 -0.124013 0.625736 0.770114
-0.382683 0.923880 0.034000 -0.124013 0.625736 0.770114
-0.268203 0.647500 0.277000 -0.124013 0.625736 0.770114
-0.268203 0.647500 0.277000 -0.124875 0.625779 0.769939
-0.000000 1.000000 0.034000 -0.124875 0.625779 0.769939
-0.098017 0.995185 0.022016 -0.124875 0.625779 0.769939
-0.098017 0.995185 0.022016 -0.123981 0.625571 0.770253
-0.195090 0.980785 0.018086 -0.123981 0.625571 0.770253
-0.268203 0.647500 0.277000 -0.123981 0.625571 0.770253
-0.647500 0.268203 0.277000 -0.625736 0.124014 0.770114
-0.923880 0.382683 0.034000 -0.625736 0.124014 0.770114
-0.956940 0.290285 0.022016 -0.625736 0.124014 0.770114
-0.956940 0.290285 0.022016 -0.625625 0.124917 0.770058
-0.980785 0.195090 0.018086 -0.625625 0.124917 0.770058
-0.647500 0.268203 0.277000 -0.625625 0.124917 0.770058
-0.980785 0.195090 0.018086 -0.625571 0.123981 0.770253
-0.995185 0.098017 0.022016 -0.625571 0.123981 0.770253
-0.647500 0.268203 0.277000 -0.625571 0.123981 0.770253
-0.881921 0.471397 0.022016 -0.530153 0.354771 0.770114
-0.923880 0.382683 0.034000 -0.530153 0.354771 0.770114
-0.647500 0.268203 0.277000 -0.530153 0.354771 0.770114
-0.647500 0.268203 0.277000 -0.530792 0.354193 0.769940
-0.707107 0.707107 0.034000 -0.530792 0.354193 0.769940
-0.773010 0.634393 0.022016 -0.530792 0.354193 0.769940
-0.773010 0.634393 0.022016 -0.530014 0.354678 0.770253
-0.831470 0.555570 0.018086 -0.530014 0.354678 0.770253
-0.647500 0.268203 0.277000 -0.530014 0.354678 0.770253
-0.647500 -0.268203 0.277000 -0.530153 -0.354771 0.770114
-0.923880 -0.382683 0.034000 -0.530153 -0.354771 0.770114
-0.881921 -0.471397 0.022016 -0.530153 -0.354771 0.770114
-0.881921 -0.471397 0.022016 -0.530713 -0.354054 0.770058
-0.831470 -0.555570 0.018086 -0.530713 -0.354054 0.770058
-0.647500 -0.268203 0.277000 -0.530713 -0.354054 0.770058
-0.831470 -0.555570 0.018086 -0.530014 -0.354677 0.770253
-0.773011 -0.634393 0.022016 -0.530014 -0.354677 0.770253
-0.647500 -0.268203 0.277000 -0.530014 -0.354677 0.770253
-0.956940 -0.290285 0.022016 -0.625736 -0.124013 0.770114
-0.923880 -0.382683 0.034000 -0.625736 -0.124013 0.770114
-0.647500 -0.268203 0.277000 -0.625736 -0.124013 0.770114
-0.647500 -0.268203 0.277000 -0.625779 -0.124875 0.769939
-1.000000 -0.000000 0.034000 -0.625779 -0.124875 0.769939
-0.995185 -0.098017 0.022016 -0.625779 -0.124875 0.769939
-0.995185 -0.098017 0.022016 -0.625571 -0.123981 0.770253
-0.980785 -0.195090 0.018086 -0.625571 -0.123981 0.770253
-0.647500 -0.268203 0.277000 -0.625571 -0.123981 0.770253
-0.268203 -0.647500 0.277000 -0.124013 -0.625736 0.770114
-0.382684 -0.923880 0.034000 -0.124013 -0.625736 0.770114
-0.290285 -0.956940 0.022016 -0.124013 -0.625736 0.770114
-0.290285 -0.956940 0.022016 -0.124917 -0.625625 0.770058
-0.195090 -0.980785 0.018086 -0.124917 -0.625625 0.770058
-0.268203 -0.647500 0.277000 -0.124917 -0.625625 0.770058
-0.195090 -0.980785 0.018086 -0.123981 -0.625571 0.770253
-0.098017 -0.995185 0.022016 -0.123981 -0.625571 0.770253
-0.268203 -0.647500 0.277000 -0.123981 -0.625571 0.770253
-0.471397 -0.881921 0.022016 -0.354772 -0.530153 0.770114
-0.382684 -0.923880 0.034000 -0.354772 -0.530153 0.770114
-0.268203 -0.647500 0.277000 -0.354772 -0.530153 0.770114
-0.268203 -0.647500 0.277000 -0.354193 -0.530792 0.769940
-0.707107 -0.707107 0.034000 -0.354193 -0.530792 0.769940
-0.634393 -0.773010 0.022016 -0.354193 -0.530792 0.769940
-0.634393 -0.773010 0.022016 -0.354678 -0.530014 0.770253
-0.555570 -0.831469 0.018086 -0.354678 -0.530014 0.770253
-0.268203 -0.647500 0.277000 -0.354678 -0.530014 0.770253
0.268203 -0.647500 0.277000 0.354772 -0.530153 0.770114
0.382684 -0.923879 0.034000 0.354772 -0.530153 0.770114
0.471397 -0.881921 0.022016 0.354772 -0.530153 0.770114
0.471397 -0.881921 0.022016 0.354054 -0.530713 0.770058
0.555570 -0.831470 0.018086 0.354054 -0.530713 0.770058
0.268203 -0.647500 0.277000 0.354054 -0.530713 0.770058
0.555570 -0.831470 0.018086 0.354678 -0.530014 0.770253
0.634393 -0.773010 0.022016 0.354678 -0.530014 0.770253
0.268203 -0.647500 0.277000 0.354678 -0.530014 0.770253
0.290285 -0.956940 0.022016 0.124014 -0.625736 0.770114
0.382684 -0.923879 0.034000 0.124014 -0.625736 0.770114
0.268203 -0.647500 0.277000 0.124014 -0.625736 0.770114
0.268203 -0.647500 0.277000 0.124875 -0.625779 0.769939
0.000000 -1.000000 0.034000 0.124875 -0.625779 0.769939
0.098017 -0.995185 0.022016 0.124875 -0.625779 0.769939
0.098017 -0.995185 0.022016 0.123981 -0.625571 0.770253
0.195090 -0.980785 0.018086 0.123981 -0.625571 0.770253
0.268203 -0.647500 0.277000 0.123981 -0.625571 0.770253
0.647500 0.268203 0.277000 0.401332 0.401332 0.823326
0.268203 0.647500 0.277000 0.000000 0.567569 0.823326
-0.268203 0.647500 0.277000 -0.401332 0.401332 0.823326
-0.647500 0.268203 0.277000 -0.567569 0.000000 0.823326
-0.647500 -0.268203 0.277000 -0.401332 -0.401332 0.823326
-0.268203 -0.647500 0.277000 0.000000 -0.567569 0.823326
0.268203 -0.647500 0.277000 0.401332 -0.401332 0.823326
0.647500 0.268203 0.277000 0.567569 0.000000 0.823326
0.530000 0.000000 0.358000 0.000000 0.000000 1.000000
0.374767 0.374767 0.358000 -0.000000 0.000000 1.000000
-0.000000 0.530000 0.358000 -0.000000 0.000000 1.000000
-0.530000 -0.000000 0.358000 0.000000 -0.000000 1.000000
0.000000 -0.530000 0.358000 0.000000 0.000000 1.000000
0.995185 0.098017 0.013456 0.667947 0.133327 -0.732169
1.000000 0.000000 0.000000 0.667947 0.133327 -0.732169
0.400000 0.165685 -0.517200 0.667947 0.133327 -0.732169
0.400000 0.165685 -0.517200 0.668057 0.132401 -0.732236
0.923880 0.382683 0.000000 0.668057 0.132401 -0.732236
0.956940 0.290285 0.013456 0.668057 0.132401 -0.732236
0.956940 0.290285 0.013456 0.667858 0.133342 -0.732247
0.980785 0.195090 0.017869 0.667858 0.133342 -0.732247
0.400000 0.165685 -0.517200 0.667858 0.133342 -0.732247
0.400000 -0.165685 -0.517200 0.667947 -0.133326 -0.732169
1.000000 0.000000 0.000000 0.667947 -0.133326 -0.732169
0.995185 -0.098017 0.013456 0.667947 -0.133326 -0.732169
0.995185 -0.098017 0.013456 0.667972 -0.132378 -0.732318
0.980785 -0.195090 0.017869 0.667972 -0.132378 -0.732318
0.400000 -0.165685 -0.517200 0.667972 -0.132378 -0.732318
0.980785 -0.195090 0.017869 0.667858 -0.133342 -0.732247
0.956940 -0.290285 0.013456 0.667858 -0.133342 -0.732247
0.400000 -0.165685 -0.517200 0.667858 -0.133342 -0.732247
0.634393 0.773010 0.013456 0.378033 0.566586 -0.732169
0.707107 0.707107 0.000000 0.378033 0.566586 -0.732169
0.165685 0.400000 -0.517200 0.378033 0.566586 -0.732169
0.165685 0.400000 -0.517200 0.378766 0.566010 -0.732236
0.382683 0.923880 0.000000 0.378766 0.566010 -0.732236
0.471397 0.881921 0.013456 0.378766 0.566010 -0.732236
0.471397 0.881921 0.013456 0.377959 0.566534 -0.732247
0.555570 0.831470 0.017869 0.377959 0.566534 -0.732247
0.165685 0.400000 -0.517200 0.377959 0.566534 -0.732247
0.400000 0.165685 -0.517200 0.566585 0.378034 -0.732169
0.707107 0.707107 0.000000 0.566585 0.378034 -0.732169
0.773010 0.634393 0.013456 0.566585 0.378034 -0.732169
0.773010 0.634393 0.013456 0.565933 0.378722 -0.732318
0.831470 0.555570 0.017869 0.565933 0.378722 -0.732318
0.400000 0.165685 -0.517200 0.565933 0.378722 -0.732318
0.831470 0.555570 0.017869 0.566534 0.377960 -0.732247
0.881921 0.471397 0.013456 0.566534 0.377960 -0.732247
0.400000 0.165685 -0.517200 0.566534 0.377960 -0.732247
-0.098017 0.995185 0.013456 -0.133327 0.667947 -0.732169
-0.000000 1.000000 0.000000 -0.133327 0.667947 -0.732169
-0.165685 0.400000 -0.517200 -0.133327 0.667947 -0.732169
-0.165685 0.400000 -0.517200 -0.132400 0.668058 -0.732236
-0.382683 0.923880 0.000000 -0.132400 0.668058 -0.732236
-0.290285 0.956940 0.013456 -0.132400 0.668058 -0.732236
-0.290285 0.956940 0.013456 -0.133342 0.667858 -0.732247
-0.195090 0.980785 0.017869 -0.133342 0.667858 -0.732247
-0.165685 0.400000 -0.517200 -0.133342 0.667858 -0.732247
0.165685 0.400000 -0.517200 0.133327 0.667947 -0.732169
-0.000000 1.000000 0.000000 0.133327 0.667947 -0.732169
0.098017 0.995185 0.013456 0.133327 0.667947 -0.732169
0.098017 0.995185 0.013456 0.132378 0.667972 -0.732318
0.195090 0.980785 0.017869 0.132378 0.667972 -0.732318
0.165685 0.400000 -0.517200 0.132378 0.667972 -0.732318
0.195090 0.980785 0.017869 0.133342 0.667858 -0.732247
0.290285 0.956940 0.013456 0.133342 0.667858 -0.732247
0.165685 0.400000 -0.517200 0.133342 0.667858 -0.732247
-0.773010 0.634393 0.013456 -0.566586 0.378034 -0.732169
-0.707107 0.707107 0.000000 -0.566586 0.378034 -0.732169
-0.400000 0.165685 -0.517200 -0.566586 0.378034 -0.732169
-0.400000 0.165685 -0.517200 -0.566010 0.378766 -0.732236
-0.923880 0.382683 0.000000 -0.566010 0.378766 -0.732236
-0.881921 0.471397 0.013456 -0.566010 0.378766 -0.732236
-0.881921 0.471397 0.013456 -0.566534 0.377960 -0.732247
-0.831470 0.555570 0.017869 -0.566534 0.377960 -0.732247
-0.400000 0.165685 -0.517200 -0.566534 0.377960 -0.732247
-0.165685 0.400000 -0.517200 -0.378034 0.566585 -0.732169
-0.707107 0.707107 0.000000 -0.378034 0.566585 -0.732169
-0.634393 0.773010 0.013456 -0.378034 0.566585 -0.732169
-0.634393 0.773010 0.013456 -0.378722 0.565933 -0.732318
-0.555570 0.831470 0.017869 -0.378722 0.565933 -0.732318
-0.165685 0.400000 -0.517200 -0.378722 0.565933 -0.732318
-0.555570 0.831470 0.017869 -0.377959 0.566534 -0.732247
-0.471397 0.881921 0.013456 -0.377959 0.566534 -0.732247
-0.165685 0.400000 -0.517200 -0.377959 0.566534 -0.732247
-0.995185 -0.098017 0.013456 -0.667947 -0.133327 -0.732169
-1.000000 -0.000000 0.000000 -0.667947 -0.133327 -0.732169
-0.400000 -0.165685 -0.517200 -0.667947 -0.133327 -0.732169
-0.400000 -0.165685 -0.517200 -0.668057 -0.132401 -0.732236
-0.923880 -0.382683 0.000000 -0.668057 -0.132401 -0.732236
-0.956940 -0.290285 0.013456 -0.668057 -0.132401 -0.732236
-0.956940 -0.290285 0.013456 -0.667858 -0.133342 -0.732247
-0.980785 -0.195090 0.017869 -0.667858 -0.133342 -0.732247
-0.400000 -0.165685 -0.517200 -0.667858 -0.133342 -0.732247
-0.400000 0.165685 -0.517200 -0.667947 0.133327 -0.732169
-1.000000 -0.000000 0.000000 -0.667947 0.133327 -0.732169
-0.995185 0.098017 0.013456 -0.667947 0.133327 -0.732169
-0.995185 0.098017 0.013456 -0.667972 0.132378 -0.732318
-0.980785 0.195090 0.017869 -0.667972 0.132378 -0.732318
-0.400000 0.165685 -0.517200 -0.667972 0.132378 -0.732318
-0.980785 0.195090 0.017869 -0.667858 0.133342 -0.732247
-0.956940 0.290285 0.013456 -0.667858 0.133342 -0.732247
-0.400000 0.165685 -0.517200 -0.667858 0.133342 -0.732247
-0.634393 -0.773010 0.013456 -0.378034 -0.566586 -0.732169
-0.707107 -0.707107 0.000000 -0.378034 -0.566586 -0.732169
-0.165685 -0.400000 -0.517200 -0.378034 -0.566586 -0.732169
-0.165685 -0.400000 -0.517200 -0.378767 -0.566009 -0.732236
-0.382684 -0.923880 0.000000 -0.378767 -0.566009 -0.732236
-0.471397 -0.881921 0.013456 -0.378767 -0.566009 -0.732236
-0.471397 -0.881921 0.013456 -0.377959 -0.566534 -0.732247
-0.555570 -0.831469 0.017869 -0.377959 -0.566534 -0.732247
-0.165685 -0.400000 -0.517200 -0.377959 -0.566534 -0.732247
-0.400000 -0.165685 -0.517200 -0.566585 -0.378034 -0.732169
-0.707107 -0.707107 0.000000 -0.566585 -0.378034 -0.732169
-0.773011 -0.634393 0.013456 -0.566585 -0.378034 -0.732169
-0.773011 -0.634393 0.013456 -0.565933 -0.378722 -0.732318
-0.831470 -0.555570 0.017869 -0.565933 -0.378722 -0.732318
-0.400000 -0.165685 -0.517200 -0.565933 -0.378722 -0.732318
-0.831470 -0.555570 0.017869 -0.566534 -0.377960 -0.732247
-0.881921 -0.471397 0.013456 -0.566534 -0.377960 -0.732247
-0.400000 -0.165685 -0.517200 -0.566534 -0.377960 -0.732247
0.098017 -0.995185 0.013456 0.133327 -0.667947 -0.732169
0.000000 -1.000000 0.000000 0.133327 -0.667947 -0.732169
0.165686 -0.400000 -0.517200 0.133327 -0.667947 -0.732169
0.165686 -0.400000 -0.517200 0.132401 -0.668057 -0.732236
0.382684 -0.923879 0.000000 0.132401 -0.668057 -0.732236
0.290285 -0.956940 0.013456 0.132401 -0.668057 -0.732236
0.290285 -0.956940 0.013456 0.133342 -0.667858 -0.732247
0.195090 -0.980785 0.017869 0.133342 -0.667858 -0.732247
0.165686 -0.400000 -0.517200 0.133342 -0.667858 -0.732247
-0.165685 -0.400000 -0.517200 -0.133327 -0.667947 -0.732169
0.000000 -1.000000 0.000000 -0.133327 -0.667947 -0.732169
-0.098017 -0.995185 0.013456 -0.133327 -0.667947 -0.732169
-0.098017 -0.995185 0.013456 -0.132378 -0.667972 -0.732318
-0.195090 -0.980785 0.017869 -0.132378 -0.667972 -0.732318
-0.165685 -0.400000 -0.517200 -0.132378 -0.667972 -0.732318
-0.195090 -0.980785 0.017869 -0.133342 -0.667858 -0.732247
-0.290285 -0.956940 0.013456 -0.133342 -0.667858 -0.732247
-0.165685 -0.400000 -0.517200 -0.133342 -0.667858 -0.732247
0.773011 -0.634393 0.013456 0.566585 -0.378034 -0.732169
0.707107 -0.707107 0.000000 0.566585 -0.378034 -0.732169
0.400000 -0.165685 -0.517200 0.566585 -0.378034 -0.732169
0.400000 -0.165685 -0.517200 0.566009 -0.378767 -0.732236
0.923880 -0.382683 0.000000 0.566009 -0.378767 -0.732236
0.881921 -0.471397 0.013456 0.566009 -0.378767 -0.732236
0.881921 -0.471397 0.013456 0.566534 -0.377959 -0.732247
0.831470 -0.555570 0.017869 0.566534 -0.377959 -0.732247
0.400000 -0.165685 -0.517200 0.566534 -0.377959 -0.732247
0.165686 -0.400000 -0.517200 0.378033 -0.566586 -0.732169
0.707107 -0.707107 0.000000 0.378033 -0.566586 -0.732169
0.634393 -0.773010 0.013456 0.378033 -0.566586 -0.732169
0.634393 -0.773010 0.013456 0.378722 -0.565933 -0.732318
0.555570 -0.831470 0.017869 0.378722 -0.565933 -0.732318
0.165686 -0.400000 -0.517200 0.378722 -0.565933 -0.732318
0.555570 -0.831470 0.017869 0.377960 -0.566534 -0.732247
0.471397 -0.881921 0.013456 0.377960 -0.566534 -0.732247
0.165686 -0.400000 -0.517200 0.377960 -0.566534 -0.732247
0.000000 0.000000 -0.862000 0.652910 0.000000 -0.757436
0.000000 0.000000 -0.862000 0.461677 0.461677 -0.757436
0.000000 0.000000 -0.862000 0.000000 0.652910 -0.757436
0.000000 0.000000 -0.862000 -0.461677 0.461677 -0.757436
0.000000 0.000000 -0.862000 -0.652910 0.000000 -0.757436
0.000000 0.000000 -0.862000 -0.461677 -0.461677 -0.757436
0.000000 0.000000 -0.862000 0.000000 -0.652910 -0.757436
0.000000 0.000000 -0.862000 0.461677 -0.461677 -0.757436
3 0 1 2
3 3 4 5
3 6 7 8
3 9 10 11
3 12 13 14
3 15 16 17
3 18 19 20
3 21 22 23
3 24 25 26
3 27 28 29
3 30 31 32
3 33 34 35
3 36 37 38
3 39 40 41
3 42 43 44
3 45 46 47
3 48 49 50
3 51 52 53
3 54 55 56
3 57 58 59
3 60 61 62
3 63 64 65
3 66 67 68
3 69 70 71
3 72 73 74
3 75 76 77
3 78 79 80
3 81 82 83
3 84 85 86
3 87 88 89
3 90 91 92
3 93 94 95
3 96 97 98
3 99 100 101
3 102 103 104
3 105 106 107
3 108 109 110
3 111 112 113
3 114 115 116
3 117 118 119
3 120 121 122
3 123 124 125
3 126 127 128
3 129 130 131
3 132 133 134
3 135 136 137
3 138 139 140
3 141 142 143
3 144 145 146
3 147 148 149
3 150 151 152
3 153 154 155
3 156 157 158
3 159 160 161
3 162 163 164
3 165 166 167
3 168 169 170
3 171 172 173
3 174 175 176
3 177 178 179
3 180 181 182
3 183 184 185
3 186 187 188
3 189 190 191
3 192 193 194
3 195 196 197
3 198 199 200
3 201 202 203
3 204 205 206
3 207 208 209
3 210 211 212
3 213 214 215
3 216 217 218
3 219 220 221
3 222 223 224
3 225 226 227
3 228 229 230
3 231 232 233
3 234 235 236
3 237 238 239
3 240 241 242
3 243 244 245
3 246 247 248
3 249 250 251
3 252 253 254
3 255 256 257
3 258 259 260
3 261 262 263
3 264 265 266
3 267 268 269
3 270 271 272
3 273 274 275
3 276 277 278
3 279 280 281
3 282 283 284
3 285 286 287
3 288 289 290
3 291 292 293
3 294 295 296
3 297 298 299
3 300 301 302
3 303 304 305
3 306 307 308
3 309 310 311
3 312 313 314
3 315 316 317
3 318 319 320
3 321 322 323
3 324 325 326
3 327 328 329
3 330 331 332
3 333 334 335
3 336 337 338
3 339 340 341
3 342 343 344
3 345 346 347
3 348 349 350
3 351 352 353
3 354 355 356
3 357 358 359
3 360 361 362
3 0 363 1
3 3 364 4
3 6 365 7
3 9 366 10
3 12 367 13
3 15 368 16
3 18 369 19
3 21 370 22
3 24 371 25
3 372 373 374
3 30 375 31
3 33 376 34
3 36 377 37
3 39 378 40
3 42 379 43
3 45 380 46
3 48 381 49
3 382 383 384
3 54 385 55
3 57 386 58
3 60 387 61
3 63 388 64
3 66 389 67
3 69 390 70
3 72 391 73
3 75 392 76
3 78 393 79
3 81 394 82
3 84 395 85
3 87 396 88
3 90 397 91
3 93 398 94
3 96 399 97
3 99 400 100
3 401 402 403
3 105 404 106
3 108 405 109
3 406 407 408
3 114 409 115
3 410 411 412
3 413 414 415
3 416 417 418
3 126 419 127
3 420 421 422
3 132 423 133
3 424 425 426
3 138 427 139
3 141 428 142
3 144 429 145
3 430 431 432
3 433 434 435
3 153 436 154
3 156 437 157
3 159 438 160
3 162 439 163
3 165 440 166
3 441 442 443
3 444 445 446
3 174 447 175
3 177 448 178
3 180 449 181
3 450 451 452
3 186 453 187
3 189 454 190
3 455 456 457
3 458 459 460
3 461 462 463
3 464 465 466
3 467 468 469
3 470 471 472
3 473 474 475
3 476 477 478
3 479 480 481
3 482 483 484
3 485 486 487
3 488 489 490
3 491 492 493
3 494 495 496
3 497 498 499
3 500 501 502
3 503 504 505
3 506 507 508
3 509 510 511
3 512 513 514
3 515 516 517
3 518 519 520
3 521 522 523
3 524 525 526
3 527 528 529
3 530 531 532
3 533 534 535
3 536 537 538
3 539 540 541
3 542 543 544
3 545 546 547
3 548 549 550
3 551 552 553
3 554 555 556
3 557 558 559
3 560 561 562
3 563 564 565
3 566 567 568
3 569 570 571
3 572 573 574
3 575 576 577
3 578 579 580
3 581 582 583
3 584 585 586
3 587 588 589
3 590 591 592
3 593 594 595
3 596 597 598
3 243 599 244
3 249 600 250
3 255 601 256
3 261 602 262
3 267 603 268
3 273 604 274
3 279 605 280
3 285 606 286
3 290 607 288
3 607 608 288
3 608 609 288
3 288 610 289
3 289 611 290
3 612 613 614
3 615 616 617
3 618 619 620
3 621 622 623
3 624 625 626
3 627 628 629
3 630 631 632
3 633 634 635
3 636 637 638
3 639 640 641
3 642 643 644
3 645 646 647
3 648 649 650
3 651 652 653
3 654 655 656
3 657 658 659
3 660 661 662
3 663 664 665
3 666 667 668
3 669 670 671
3 672 673 674
3 675 676 677
3 678 679 680
3 681 682 683
3 684 685 686
3 687 688 689
3 690 691 692
3 693 694 695
3 696 697 698
3 699 700 701
3 702 703 704
3 705 706 707
3 708 709 710
3 711 712 713
3 714 715 716
3 717 718 719
3 720 721 722
3 723 724 725
3 726 727 728
3 729 730 731
3 732 733 734
3 735 736 737
3 738 739 740
3 741 742 743
3 744 745 746
3 747 748 749
3 750 751 752
3 753 754 755
3 339 756 340
3 342 757 343
3 345 758 346
3 348 759 349
3 351 760 352
3 354 761 355
3 357 762 358
3 360 763 361
