ply
format ascii 1.0
comment Created by Blender 2.92.0 - www.blender.org
element vertex 336
property float x
property float y
property float z
element face 576
property list uchar uint vertex_indices
end_header
0.700000 0.000000 -0.200000
0.892300 0.117474 -0.200000
0.900000 0.000000 -0.200000
0.694011 0.091368 -0.200000
0.869333 0.232937 -0.200000
0.646716 0.267878 -0.200000
0.831492 0.344415 -0.200000
0.965926 0.258819 -0.200000
0.991445 0.130526 -0.200000
0.923880 0.382683 -0.200000
1.085245 0.179566 -0.200000
1.062518 0.284701 -0.200000
1.029633 0.387113 -0.200000
0.700000 0.000000 0.200000
0.892300 0.117474 0.200000
0.694011 0.091368 0.200000
0.676148 0.181173 0.200000
0.869333 0.232937 0.200000
0.646716 0.267878 0.200000
0.965926 0.258819 0.200000
0.831492 0.344415 0.200000
1.085245 0.179566 0.200000
0.991445 0.130526 0.200000
1.029633 0.387113 0.200000
0.923880 0.382683 0.200000
0.900000 0.000000 0.200000
1.062518 0.284701 0.200000
0.606218 0.350000 -0.200000
0.714018 0.547885 -0.200000
0.779423 0.450000 -0.200000
0.494975 0.494975 -0.200000
0.636396 0.636396 -0.200000
0.547885 0.714018 -0.200000
0.707107 0.707107 -0.200000
0.793353 0.608761 -0.200000
0.608761 0.793353 -0.200000
0.850066 0.698131 -0.200000
0.777817 0.777817 -0.200000
0.698131 0.850066 -0.200000
0.779423 0.450000 0.200000
0.555347 0.426133 0.200000
0.606218 0.350000 0.200000
0.714018 0.547885 0.200000
0.494975 0.494975 0.200000
0.547885 0.714018 0.200000
0.426133 0.555347 0.200000
0.707107 0.707107 0.200000
0.636396 0.636396 0.200000
0.850066 0.698131 0.200000
0.793353 0.608761 0.200000
0.698131 0.850066 0.200000
0.608761 0.793353 0.200000
0.777817 0.777817 0.200000
0.350000 0.606218 -0.200000
0.344415 0.831492 -0.200000
0.450000 0.779423 -0.200000
0.267878 0.646716 -0.200000
0.232937 0.869333 -0.200000
0.181173 0.676148 -0.200000
0.117474 0.892300 -0.200000
0.258819 0.965926 -0.200000
0.382683 0.923880 -0.200000
0.130526 0.991445 -0.200000
0.387113 1.029633 -0.200000
0.284701 1.062518 -0.200000
0.179566 1.085245 -0.200000
0.450000 0.779423 0.200000
0.267878 0.646716 0.200000
0.350000 0.606218 0.200000
0.344415 0.831492 0.200000
0.181173 0.676148 0.200000
0.232937 0.869333 0.200000
0.091368 0.694011 0.200000
0.382683 0.923880 0.200000
0.258819 0.965926 0.200000
0.117474 0.892300 0.200000
0.387113 1.029633 0.200000
0.179566 1.085245 0.200000
0.130526 0.991445 0.200000
0.284701 1.062518 0.200000
0.426133 0.555347 -0.200000
0.000000 0.700000 -0.200000
-0.117474 0.892300 -0.200000
0.000000 0.900000 -0.200000
-0.091368 0.694011 -0.200000
-0.232937 0.869333 -0.200000
-0.267878 0.646716 -0.200000
-0.344415 0.831492 -0.200000
-0.258819 0.965926 -0.200000
-0.130526 0.991445 -0.200000
-0.382683 0.923880 -0.200000
-0.179566 1.085245 -0.200000
-0.284701 1.062518 -0.200000
-0.387113 1.029633 -0.200000
0.000000 0.700000 0.200000
-0.117474 0.892300 0.200000
-0.091368 0.694011 0.200000
-0.181173 0.676148 0.200000
-0.232937 0.869333 0.200000
-0.267878 0.646716 0.200000
-0.258819 0.965926 0.200000
-0.344415 0.831492 0.200000
-0.179566 1.085245 0.200000
-0.130526 0.991445 0.200000
-0.387113 1.029633 0.200000
-0.382683 0.923880 0.200000
0.000000 0.900000 0.200000
-0.284701 1.062518 0.200000
0.091368 0.694011 -0.200000
-0.350000 0.606218 -0.200000
-0.547885 0.714018 -0.200000
-0.450000 0.779423 -0.200000
-0.494975 0.494975 -0.200000
-0.636396 0.636396 -0.200000
-0.714018 0.547885 -0.200000
-0.707107 0.707107 -0.200000
-0.608761 0.793353 -0.200000
-0.793353 0.608761 -0.200000
-0.698131 0.850066 -0.200000
-0.777817 0.777817 -0.200000
-0.850066 0.698131 -0.200000
-0.450000 0.779423 0.200000
-0.426133 0.555347 0.200000
-0.350000 0.606218 0.200000
-0.547885 0.714018 0.200000
-0.494975 0.494975 0.200000
-0.714018 0.547885 0.200000
-0.555347 0.426133 0.200000
-0.707107 0.707107 0.200000
-0.636396 0.636396 0.200000
-0.698131 0.850066 0.200000
-0.608761 0.793353 0.200000
-0.850066 0.698131 0.200000
-0.793353 0.608761 0.200000
-0.777817 0.777817 0.200000
-0.606218 0.350000 -0.200000
-0.831492 0.344415 -0.200000
-0.779423 0.450000 -0.200000
-0.646716 0.267878 -0.200000
-0.869333 0.232937 -0.200000
-0.676148 0.181173 -0.200000
-0.892300 0.117474 -0.200000
-0.965926 0.258819 -0.200000
-0.923880 0.382683 -0.200000
-0.991445 0.130526 -0.200000
-1.029633 0.387113 -0.200000
-1.062518 0.284701 -0.200000
-1.085245 0.179566 -0.200000
-0.779423 0.450000 0.200000
-0.646716 0.267878 0.200000
-0.606218 0.350000 0.200000
-0.831492 0.344415 0.200000
-0.676148 0.181173 0.200000
-0.869333 0.232937 0.200000
-0.694011 0.091368 0.200000
-0.923880 0.382683 0.200000
-0.965926 0.258819 0.200000
-0.892300 0.117474 0.200000
-1.029633 0.387113 0.200000
-1.085245 0.179566 0.200000
-0.991445 0.130526 0.200000
-1.062518 0.284701 0.200000
-0.555347 0.426133 -0.200000
-0.700000 0.000000 -0.200000
-0.892300 -0.117474 -0.200000
-0.900000 0.000000 -0.200000
-0.694011 -0.091368 -0.200000
-0.869333 -0.232937 -0.200000
-0.646716 -0.267878 -0.200000
-0.831492 -0.344415 -0.200000
-0.965926 -0.258819 -0.200000
-0.991445 -0.130526 -0.200000
-0.923880 -0.382683 -0.200000
-1.085245 -0.179566 -0.200000
-1.062518 -0.284701 -0.200000
-1.029633 -0.387113 -0.200000
-0.700000 0.000000 0.200000
-0.892300 -0.117474 0.200000
-0.694011 -0.091368 0.200000
-0.676148 -0.181173 0.200000
-0.869333 -0.232937 0.200000
-0.646716 -0.267878 0.200000
-0.965926 -0.258819 0.200000
-0.831492 -0.344415 0.200000
-1.085245 -0.179566 0.200000
-0.991445 -0.130526 0.200000
-1.029633 -0.387113 0.200000
-0.923880 -0.382683 0.200000
-0.900000 0.000000 0.200000
-1.062518 -0.284701 0.200000
-0.694011 0.091368 -0.200000
-0.606218 -0.350000 -0.200000
-0.714018 -0.547885 -0.200000
-0.779423 -0.450000 -0.200000
-0.494975 -0.494975 -0.200000
-0.636396 -0.636396 -0.200000
-0.547885 -0.714018 -0.200000
-0.707107 -0.707107 -0.200000
-0.793353 -0.608761 -0.200000
-0.608761 -0.793353 -0.200000
-0.850066 -0.698131 -0.200000
-0.777817 -0.777817 -0.200000
-0.698131 -0.850066 -0.200000
-0.779423 -0.450000 0.200000
-0.555347 -0.426133 0.200000
-0.606218 -0.350000 0.200000
-0.714018 -0.547885 0.200000
-0.494975 -0.494975 0.200000
-0.547885 -0.714018 0.200000
-0.426133 -0.555347 0.200000
-0.707107 -0.707107 0.200000
-0.636396 -0.636396 0.200000
-0.850066 -0.698131 0.200000
-0.793353 -0.608761 0.200000
-0.698131 -0.850066 0.200000
-0.608761 -0.793353 0.200000
-0.777817 -0.777817 0.200000
-0.350000 -0.606218 -0.200000
-0.344415 -0.831492 -0.200000
-0.450000 -0.779423 -0.200000
-0.267878 -0.646716 -0.200000
-0.232937 -0.869333 -0.200000
-0.181173 -0.676148 -0.200000
-0.117474 -0.892300 -0.200000
-0.258819 -0.965926 -0.200000
-0.382683 -0.923880 -0.200000
-0.130526 -0.991445 -0.200000
-0.387113 -1.029633 -0.200000
-0.284701 -1.062518 -0.200000
-0.179566 -1.085245 -0.200000
-0.450000 -0.779423 0.200000
-0.267878 -0.646716 0.200000
-0.350000 -0.606218 0.200000
-0.344415 -0.831492 0.200000
-0.181173 -0.676148 0.200000
-0.232937 -0.869333 0.200000
-0.091368 -0.694011 0.200000
-0.382683 -0.923880 0.200000
-0.258819 -0.965926 0.200000
-0.117474 -0.892300 0.200000
-0.387113 -1.029633 0.200000
-0.179566 -1.085245 0.200000
-0.130526 -0.991445 0.200000
-0.284701 -1.062518 0.200000
-0.426133 -0.555347 -0.200000
-0.000000 -0.700000 -0.200000
0.117474 -0.892300 -0.200000
-0.000000 -0.900000 -0.200000
0.091368 -0.694011 -0.200000
0.232937 -0.869333 -0.200000
0.267878 -0.646716 -0.200000
0.344415 -0.831492 -0.200000
0.258819 -0.965926 -0.200000
0.130526 -0.991445 -0.200000
0.382683 -0.923880 -0.200000
0.179566 -1.085245 -0.200000
0.284701 -1.062518 -0.200000
0.387113 -1.029633 -0.200000
-0.000000 -0.700000 0.200000
0.117474 -0.892300 0.200000
0.091368 -0.694011 0.200000
0.181173 -0.676148 0.200000
0.232937 -0.869333 0.200000
0.267878 -0.646716 0.200000
0.258819 -0.965926 0.200000
0.344415 -0.831492 0.200000
0.179566 -1.085245 0.200000
0.130526 -0.991445 0.200000
0.387113 -1.029633 0.200000
0.382683 -0.923880 0.200000
-0.000000 -0.900000 0.200000
0.284701 -1.062518 0.200000
-0.091368 -0.694011 -0.200000
0.350000 -0.606218 -0.200000
0.547885 -0.714018 -0.200000
0.450000 -0.779423 -0.200000
0.494975 -0.494975 -0.200000
0.636396 -0.636396 -0.200000
0.714018 -0.547885 -0.200000
0.707107 -0.707107 -0.200000
0.608761 -0.793353 -0.200000
0.793353 -0.608761 -0.200000
0.698131 -0.850066 -0.200000
0.777817 -0.777817 -0.200000
0.850066 -0.698131 -0.200000
0.450000 -0.779423 0.200000
0.426133 -0.555347 0.200000
0.350000 -0.606218 0.200000
0.547885 -0.714018 0.200000
0.494975 -0.494975 0.200000
0.714018 -0.547885 0.200000
0.555347 -0.426133 0.200000
0.707107 -0.707107 0.200000
0.636396 -0.636396 0.200000
0.698131 -0.850066 0.200000
0.608761 -0.793353 0.200000
0.850066 -0.698131 0.200000
0.793353 -0.608761 0.200000
0.777817 -0.777817 0.200000
0.606218 -0.350000 -0.200000
0.831492 -0.344415 -0.200000
0.779423 -0.450000 -0.200000
0.646716 -0.267878 -0.200000
0.869333 -0.232937 -0.200000
0.676148 -0.181173 -0.200000
0.892300 -0.117474 -0.200000
0.965926 -0.258819 -0.200000
0.923880 -0.382683 -0.200000
0.991445 -0.130526 -0.200000
1.029633 -0.387113 -0.200000
1.062518 -0.284701 -0.200000
1.085245 -0.179566 -0.200000
0.779423 -0.450000 0.200000
0.646716 -0.267878 0.200000
0.606218 -0.350000 0.200000
0.831492 -0.344415 0.200000
0.676148 -0.181173 0.200000
0.869333 -0.232937 0.200000
0.694011 -0.091368 0.200000
0.923880 -0.382683 0.200000
0.965926 -0.258819 0.200000
0.892300 -0.117474 0.200000
1.029633 -0.387113 0.200000
1.085245 -0.179566 0.200000
0.991445 -0.130526 0.200000
1.062518 -0.284701 0.200000
0.555347 -0.426133 -0.200000
0.694011 -0.091368 -0.200000
0.676148 0.181173 -0.200000
0.555347 0.426133 -0.200000
-0.181173 0.676148 -0.200000
-0.426133 0.555347 -0.200000
-0.676148 -0.181173 -0.200000
-0.555347 -0.426133 -0.200000
0.181173 -0.676148 -0.200000
0.426133 -0.555347 -0.200000
3 0 1 2
3 3 4 1
3 4 5 6
3 1 7 8
3 4 9 7
3 10 7 11
3 7 12 11
3 13 14 15
3 14 16 15
3 17 18 16
3 14 19 17
3 19 20 17
3 21 19 22
3 19 23 24
3 2 14 25
3 1 22 14
3 8 21 22
3 10 26 21
3 11 23 26
3 12 24 23
3 9 20 24
3 27 28 29
3 28 30 31
3 30 32 31
3 28 33 34
3 33 32 35
3 36 33 37
3 33 38 37
3 39 40 41
3 42 43 40
3 43 44 45
3 42 46 47
3 46 44 47
3 48 46 49
3 46 50 51
3 29 42 39
3 28 49 42
3 34 48 49
3 36 52 48
3 37 50 52
3 38 51 50
3 35 44 51
3 27 6 5
3 29 20 6
3 39 18 20
3 53 54 55
3 56 57 54
3 58 59 57
3 54 60 61
3 60 59 62
3 63 60 64
3 60 65 64
3 66 67 68
3 69 70 67
3 71 72 70
3 73 71 69
3 74 75 71
3 76 74 73
3 74 77 78
3 55 69 66
3 54 73 69
3 61 76 73
3 63 79 76
3 64 77 79
3 65 78 77
3 62 75 78
3 53 32 80
3 55 44 32
3 66 45 44
3 81 82 83
3 84 85 82
3 85 86 87
3 82 88 89
3 85 90 88
3 91 88 92
3 88 93 92
3 94 95 96
3 95 97 96
3 98 99 97
3 95 100 98
3 100 101 98
3 102 100 103
3 100 104 105
3 83 95 106
3 82 103 95
3 89 102 103
3 91 107 102
3 92 104 107
3 93 105 104
3 90 101 105
3 81 59 108
3 83 75 59
3 75 94 72
3 109 110 111
3 110 112 113
3 112 114 113
3 110 115 116
3 115 114 117
3 118 115 119
3 115 120 119
3 121 122 123
3 124 125 122
3 125 126 127
3 124 128 129
3 128 126 129
3 130 128 131
3 128 132 133
3 111 124 121
3 110 131 124
3 116 130 131
3 118 134 130
3 119 132 134
3 120 133 132
3 117 126 133
3 109 87 86
3 111 101 87
3 121 99 101
3 135 136 137
3 138 139 136
3 140 141 139
3 136 142 143
3 142 141 144
3 145 142 146
3 142 147 146
3 148 149 150
3 151 152 149
3 153 154 152
3 155 153 151
3 156 157 153
3 158 156 155
3 156 159 160
3 137 151 148
3 136 155 151
3 143 158 155
3 145 161 158
3 146 159 161
3 147 160 159
3 144 157 160
3 135 114 162
3 137 126 114
3 148 127 126
3 163 164 165
3 166 167 164
3 167 168 169
3 164 170 171
3 167 172 170
3 173 170 174
3 170 175 174
3 176 177 178
3 177 179 178
3 180 181 179
3 177 182 180
3 182 183 180
3 184 182 185
3 182 186 187
3 165 177 188
3 164 185 177
3 171 184 185
3 173 189 184
3 174 186 189
3 175 187 186
3 172 183 187
3 163 141 190
3 165 157 141
3 157 176 154
3 191 192 193
3 192 194 195
3 194 196 195
3 192 197 198
3 197 196 199
3 200 197 201
3 197 202 201
3 203 204 205
3 206 207 204
3 207 208 209
3 206 210 211
3 210 208 211
3 212 210 213
3 210 214 215
3 193 206 203
3 192 213 206
3 198 212 213
3 200 216 212
3 201 214 216
3 202 215 214
3 199 208 215
3 191 169 168
3 193 183 169
3 203 181 183
3 217 218 219
3 220 221 218
3 222 223 221
3 218 224 225
3 224 223 226
3 227 224 228
3 224 229 228
3 230 231 232
3 233 234 231
3 235 236 234
3 237 235 233
3 238 239 235
3 240 238 237
3 238 241 242
3 219 233 230
3 218 237 233
3 225 240 237
3 227 243 240
3 228 241 243
3 229 242 241
3 226 239 242
3 217 196 244
3 219 208 196
3 230 209 208
3 245 246 247
3 248 249 246
3 249 250 251
3 246 252 253
3 249 254 252
3 255 252 256
3 252 257 256
3 258 259 260
3 259 261 260
3 262 263 261
3 259 264 262
3 264 265 262
3 266 264 267
3 264 268 269
3 247 259 270
3 246 267 259
3 253 266 267
3 255 271 266
3 256 268 271
3 257 269 268
3 254 265 269
3 245 223 272
3 247 239 223
3 239 258 236
3 273 274 275
3 274 276 277
3 276 278 277
3 274 279 280
3 279 278 281
3 282 279 283
3 279 284 283
3 285 286 287
3 288 289 286
3 289 290 291
3 288 292 293
3 292 290 293
3 294 292 295
3 292 296 297
3 275 288 285
3 274 295 288
3 280 294 295
3 282 298 294
3 283 296 298
3 284 297 296
3 281 290 297
3 273 251 250
3 275 265 251
3 285 263 265
3 299 300 301
3 302 303 300
3 304 305 303
3 300 306 307
3 306 305 308
3 309 306 310
3 306 311 310
3 312 313 314
3 315 316 313
3 317 318 316
3 319 317 315
3 320 321 317
3 322 320 319
3 320 323 324
3 301 315 312
3 300 319 315
3 307 322 319
3 309 325 322
3 310 323 325
3 311 324 323
3 308 321 324
3 299 278 326
3 301 290 278
3 312 291 290
3 0 305 327
3 2 321 305
3 321 13 318
3 0 3 1
3 3 328 4
3 4 328 5
3 1 4 7
3 4 6 9
3 10 8 7
3 7 9 12
3 13 25 14
3 14 17 16
3 17 20 18
3 14 22 19
3 19 24 20
3 21 26 19
3 19 26 23
3 2 1 14
3 1 8 22
3 8 10 21
3 10 11 26
3 11 12 23
3 12 9 24
3 9 6 20
3 27 329 28
3 28 329 30
3 30 80 32
3 28 31 33
3 33 31 32
3 36 34 33
3 33 35 38
3 39 42 40
3 42 47 43
3 43 47 44
3 42 49 46
3 46 51 44
3 48 52 46
3 46 52 50
3 29 28 42
3 28 34 49
3 34 36 48
3 36 37 52
3 37 38 50
3 38 35 51
3 35 32 44
3 27 29 6
3 29 39 20
3 39 41 18
3 53 56 54
3 56 58 57
3 58 108 59
3 54 57 60
3 60 57 59
3 63 61 60
3 60 62 65
3 66 69 67
3 69 71 70
3 71 75 72
3 73 74 71
3 74 78 75
3 76 79 74
3 74 79 77
3 55 54 69
3 54 61 73
3 61 63 76
3 63 64 79
3 64 65 77
3 65 62 78
3 62 59 75
3 53 55 32
3 55 66 44
3 66 68 45
3 81 84 82
3 84 330 85
3 85 330 86
3 82 85 88
3 85 87 90
3 91 89 88
3 88 90 93
3 94 106 95
3 95 98 97
3 98 101 99
3 95 103 100
3 100 105 101
3 102 107 100
3 100 107 104
3 83 82 95
3 82 89 103
3 89 91 102
3 91 92 107
3 92 93 104
3 93 90 105
3 90 87 101
3 81 83 59
3 83 106 75
3 75 106 94
3 109 331 110
3 110 331 112
3 112 162 114
3 110 113 115
3 115 113 114
3 118 116 115
3 115 117 120
3 121 124 122
3 124 129 125
3 125 129 126
3 124 131 128
3 128 133 126
3 130 134 128
3 128 134 132
3 111 110 124
3 110 116 131
3 116 118 130
3 118 119 134
3 119 120 132
3 120 117 133
3 117 114 126
3 109 111 87
3 111 121 101
3 121 123 99
3 135 138 136
3 138 140 139
3 140 190 141
3 136 139 142
3 142 139 141
3 145 143 142
3 142 144 147
3 148 151 149
3 151 153 152
3 153 157 154
3 155 156 153
3 156 160 157
3 158 161 156
3 156 161 159
3 137 136 151
3 136 143 155
3 143 145 158
3 145 146 161
3 146 147 159
3 147 144 160
3 144 141 157
3 135 137 114
3 137 148 126
3 148 150 127
3 163 166 164
3 166 332 167
3 167 332 168
3 164 167 170
3 167 169 172
3 173 171 170
3 170 172 175
3 176 188 177
3 177 180 179
3 180 183 181
3 177 185 182
3 182 187 183
3 184 189 182
3 182 189 186
3 165 164 177
3 164 171 185
3 171 173 184
3 173 174 189
3 174 175 186
3 175 172 187
3 172 169 183
3 163 165 141
3 165 188 157
3 157 188 176
3 191 333 192
3 192 333 194
3 194 244 196
3 192 195 197
3 197 195 196
3 200 198 197
3 197 199 202
3 203 206 204
3 206 211 207
3 207 211 208
3 206 213 210
3 210 215 208
3 212 216 210
3 210 216 214
3 193 192 206
3 192 198 213
3 198 200 212
3 200 201 216
3 201 202 214
3 202 199 215
3 199 196 208
3 191 193 169
3 193 203 183
3 203 205 181
3 217 220 218
3 220 222 221
3 222 272 223
3 218 221 224
3 224 221 223
3 227 225 224
3 224 226 229
3 230 233 231
3 233 235 234
3 235 239 236
3 237 238 235
3 238 242 239
3 240 243 238
3 238 243 241
3 219 218 233
3 218 225 237
3 225 227 240
3 227 228 243
3 228 229 241
3 229 226 242
3 226 223 239
3 217 219 196
3 219 230 208
3 230 232 209
3 245 248 246
3 248 334 249
3 249 334 250
3 246 249 252
3 249 251 254
3 255 253 252
3 252 254 257
3 258 270 259
3 259 262 261
3 262 265 263
3 259 267 264
3 264 269 265
3 266 271 264
3 264 271 268
3 247 246 259
3 246 253 267
3 253 255 266
3 255 256 271
3 256 257 268
3 257 254 269
3 254 251 265
3 245 247 223
3 247 270 239
3 239 270 258
3 273 335 274
3 274 335 276
3 276 326 278
3 274 277 279
3 279 277 278
3 282 280 279
3 279 281 284
3 285 288 286
3 288 293 289
3 289 293 290
3 288 295 292
3 292 297 290
3 294 298 292
3 292 298 296
3 275 274 288
3 274 280 295
3 280 282 294
3 282 283 298
3 283 284 296
3 284 281 297
3 281 278 290
3 273 275 251
3 275 285 265
3 285 287 263
3 299 302 300
3 302 304 303
3 304 327 305
3 300 303 306
3 306 303 305
3 309 307 306
3 306 308 311
3 312 315 313
3 315 317 316
3 317 321 318
3 319 320 317
3 320 324 321
3 322 325 320
3 320 325 323
3 301 300 315
3 300 307 319
3 307 309 322
3 309 310 325
3 310 311 323
3 311 308 324
3 308 305 321
3 299 301 278
3 301 312 290
3 312 314 291
3 0 2 305
3 2 25 321
3 321 25 13
