ply
format ascii 1.0
comment Created by Blender 2.92.0 - www.blender.org
element vertex 821
property float x
property float y
property float z
element face 1560
property list uchar uint vertex_indices
end_header
0.465671 -1.386270 2.463000
0.000000 -1.500000 2.400000
0.478560 -1.424640 2.400000
0.452973 -1.348469 2.494500
0.000000 -1.459600 2.463000
0.443529 -1.320356 2.494500
0.000000 -1.419800 2.494500
0.440403 -1.311049 2.463000
0.000000 -1.390200 2.494500
0.000000 -1.400000 2.400000
0.000000 -1.380400 2.463000
0.866886 -1.181225 2.463000
0.890880 -1.213920 2.400000
0.843248 -1.149016 2.494500
0.825668 -1.125061 2.494500
0.819847 -1.117130 2.463000
0.446656 -1.329664 2.400000
1.181225 -0.866886 2.463000
1.213920 -0.890880 2.400000
1.149016 -0.843248 2.494500
1.117130 -0.819847 2.463000
1.125061 -0.825668 2.494500
1.132992 -0.831488 2.400000
1.424640 -0.478560 2.400000
1.386270 -0.465671 2.463000
1.348469 -0.452973 2.494500
1.320356 -0.443529 2.494500
1.329664 -0.446656 2.400000
1.311049 -0.440403 2.463001
1.500000 0.000000 2.400000
1.459600 0.000000 2.463000
1.419800 0.000000 2.494500
1.390200 0.000000 2.494500
1.400000 0.000000 2.400000
1.380400 0.000000 2.463000
-1.386270 -0.465671 2.463000
-1.500000 0.000000 2.400000
-1.424640 -0.478560 2.400000
-1.348469 -0.452973 2.494500
-1.459600 0.000000 2.463000
-1.320356 -0.443529 2.494500
-1.419800 0.000000 2.494500
-1.311049 -0.440403 2.463000
-1.390200 0.000000 2.494500
-1.400000 0.000000 2.400000
-1.380400 0.000000 2.463000
-1.181225 -0.866886 2.463000
-1.213920 -0.890880 2.400000
-1.149016 -0.843248 2.494500
-1.125061 -0.825668 2.494500
-1.117130 -0.819847 2.463000
-1.329664 -0.446656 2.400000
-0.866886 -1.181225 2.463000
-0.890880 -1.213920 2.400000
-0.843248 -1.149016 2.494500
-0.819847 -1.117130 2.463000
-0.825668 -1.125061 2.494500
-0.831488 -1.132992 2.400000
-0.478560 -1.424640 2.400000
-0.465671 -1.386270 2.463000
-0.452973 -1.348469 2.494500
-0.443529 -1.320356 2.494500
-0.446656 -1.329664 2.400000
-0.440403 -1.311049 2.463001
-0.465671 1.386270 2.463000
0.000000 1.500000 2.400000
-0.478560 1.424640 2.400000
-0.452973 1.348469 2.494500
0.000000 1.459600 2.463000
-0.443529 1.320356 2.494500
0.000000 1.419800 2.494500
-0.440403 1.311049 2.463000
0.000000 1.390200 2.494500
0.000000 1.400000 2.400000
0.000000 1.380400 2.463000
-0.866886 1.181225 2.463000
-0.890880 1.213920 2.400000
-0.843248 1.149016 2.494500
-0.825668 1.125061 2.494500
-0.819847 1.117130 2.463000
-0.446656 1.329664 2.400000
-1.181225 0.866886 2.463000
-1.213920 0.890880 2.400000
-1.149016 0.843248 2.494500
-1.117130 0.819847 2.463000
-1.125061 0.825668 2.494500
-1.132992 0.831488 2.400000
-1.424640 0.478560 2.400000
-1.386270 0.465671 2.463000
-1.348469 0.452973 2.494500
-1.320356 0.443529 2.494500
-1.329664 0.446656 2.400000
-1.311049 0.440403 2.463001
1.386270 0.465671 2.463000
1.424640 0.478560 2.400000
1.348469 0.452973 2.494500
1.320356 0.443529 2.494500
1.311049 0.440403 2.463000
1.181225 0.866886 2.463000
1.213920 0.890880 2.400000
1.149016 0.843248 2.494500
1.125061 0.825668 2.494500
1.117130 0.819847 2.463000
1.329664 0.446656 2.400000
0.866886 1.181225 2.463000
0.890880 1.213920 2.400000
0.843248 1.149016 2.494500
0.819847 1.117130 2.463000
0.825668 1.125061 2.494500
0.831488 1.132992 2.400000
0.478560 1.424640 2.400000
0.465671 1.386270 2.463000
0.452973 1.348469 2.494500
0.443529 1.320356 2.494500
0.446656 1.329664 2.400000
0.440403 1.311049 2.463001
0.629147 -1.872927 1.178400
0.000000 -2.000000 0.900000
0.638080 -1.899520 0.900000
0.604900 -1.800745 1.471200
0.000000 -1.972000 1.178400
0.569167 -1.694372 1.774800
0.000000 -1.896000 1.471200
0.525778 -1.565205 2.085600
0.000000 -1.784000 1.774800
0.000000 -1.648000 2.085600
1.171210 -1.595900 1.178400
1.187840 -1.618560 0.900000
1.126072 -1.534395 1.471200
1.059553 -1.443756 1.774800
0.978780 -1.333694 2.085600
1.595900 -1.171210 1.178400
1.618560 -1.187840 0.900000
1.534395 -1.126072 1.471200
1.333694 -0.978780 2.085600
1.443756 -1.059553 1.774800
1.899520 -0.638080 0.900000
1.872927 -0.629147 1.178400
1.800745 -0.604900 1.471200
1.694372 -0.569167 1.774800
1.565205 -0.525778 2.085600
2.000000 0.000000 0.900000
1.972000 0.000000 1.178400
1.896000 0.000000 1.471200
1.784000 0.000000 1.774800
1.648000 0.000000 2.085600
-1.872927 -0.629147 1.178400
-2.000000 0.000000 0.900000
-1.899520 -0.638080 0.900000
-1.800745 -0.604900 1.471200
-1.972000 0.000000 1.178400
-1.694372 -0.569167 1.774800
-1.896000 0.000000 1.471200
-1.565205 -0.525778 2.085600
-1.784000 0.000000 1.774800
-1.648000 0.000000 2.085600
-1.595900 -1.171210 1.178400
-1.618560 -1.187840 0.900000
-1.534395 -1.126072 1.471200
-1.443756 -1.059553 1.774800
-1.333694 -0.978780 2.085600
-1.171210 -1.595900 1.178400
-1.187840 -1.618560 0.900000
-1.126072 -1.534395 1.471200
-0.978780 -1.333694 2.085600
-1.059553 -1.443756 1.774800
-0.638080 -1.899520 0.900000
-0.629147 -1.872927 1.178400
-0.604900 -1.800745 1.471200
-0.569167 -1.694372 1.774800
-0.525778 -1.565205 2.085600
-0.629147 1.872927 1.178400
0.000000 2.000000 0.900000
-0.638080 1.899520 0.900000
-0.604900 1.800745 1.471200
0.000000 1.972000 1.178400
-0.569167 1.694372 1.774800
0.000000 1.896000 1.471200
-0.525778 1.565205 2.085600
0.000000 1.784000 1.774800
0.000000 1.648000 2.085600
-1.171210 1.595900 1.178400
-1.187840 1.618560 0.900000
-1.126072 1.534395 1.471200
-1.059553 1.443756 1.774800
-0.978780 1.333694 2.085600
-1.595900 1.171210 1.178400
-1.618560 1.187840 0.900000
-1.534395 1.126072 1.471200
-1.333694 0.978780 2.085600
-1.443756 1.059553 1.774800
-1.899520 0.638080 0.900000
-1.872927 0.629147 1.178400
-1.800745 0.604900 1.471200
-1.694372 0.569167 1.774800
-1.565205 0.525778 2.085600
1.872927 0.629147 1.178400
1.899520 0.638080 0.900000
1.800745 0.604900 1.471200
1.694372 0.569167 1.774800
1.565205 0.525778 2.085600
1.595900 1.171210 1.178400
1.618560 1.187840 0.900000
1.534395 1.126072 1.471200
1.443756 1.059553 1.774800
1.333694 0.978780 2.085600
1.171210 1.595900 1.178400
1.187840 1.618560 0.900000
1.126072 1.534395 1.471200
0.978780 1.333694 2.085600
1.059553 1.443756 1.774800
0.638080 1.899520 0.900000
0.629147 1.872927 1.178400
0.604900 1.800745 1.471200
0.569167 1.694372 1.774800
0.525778 1.565205 2.085600
0.478560 -1.424640 0.150000
0.000000 -1.552000 0.213600
0.000000 -1.500000 0.150000
0.495150 -1.474028 0.213600
0.000000 -1.676000 0.316800
0.534711 -1.591798 0.316800
0.000000 -1.824000 0.463200
0.581929 -1.732362 0.463200
0.000000 -1.948000 0.656400
0.621490 -1.850133 0.656400
0.890880 -1.213920 0.150000
0.921764 -1.256003 0.213600
0.995410 -1.356353 0.316800
1.083310 -1.476127 0.463200
1.156956 -1.576478 0.656400
1.256003 -0.921764 0.213600
1.213920 -0.890880 0.150000
1.476127 -1.083310 0.463200
1.356353 -0.995410 0.316800
1.576477 -1.156956 0.656400
1.474028 -0.495150 0.213600
1.424640 -0.478560 0.150000
1.591798 -0.534711 0.316800
1.732362 -0.581929 0.463200
1.850133 -0.621490 0.656400
1.552000 0.000000 0.213600
1.500000 0.000000 0.150000
1.676000 0.000000 0.316800
1.824000 0.000000 0.463200
1.948000 0.000000 0.656400
-1.424640 -0.478560 0.150000
-1.552000 0.000000 0.213600
-1.500000 0.000000 0.150000
-1.474028 -0.495150 0.213600
-1.676000 0.000000 0.316800
-1.591798 -0.534711 0.316800
-1.824000 0.000000 0.463200
-1.732362 -0.581929 0.463200
-1.948000 0.000000 0.656400
-1.850133 -0.621490 0.656400
-1.213920 -0.890880 0.150000
-1.256003 -0.921764 0.213600
-1.356353 -0.995410 0.316800
-1.476127 -1.083310 0.463200
-1.576478 -1.156956 0.656400
-0.921764 -1.256003 0.213600
-0.890880 -1.213920 0.150000
-1.083310 -1.476127 0.463200
-0.995410 -1.356353 0.316800
-1.156956 -1.576477 0.656400
-0.495150 -1.474028 0.213600
-0.478560 -1.424640 0.150000
-0.534711 -1.591798 0.316800
-0.581929 -1.732362 0.463200
-0.621490 -1.850133 0.656400
-0.478560 1.424640 0.150000
0.000000 1.552000 0.213600
0.000000 1.500000 0.150000
-0.495150 1.474028 0.213600
0.000000 1.676000 0.316800
-0.534711 1.591798 0.316800
0.000000 1.824000 0.463200
-0.581929 1.732362 0.463200
0.000000 1.948000 0.656400
-0.621490 1.850133 0.656400
-0.890880 1.213920 0.150000
-0.921764 1.256003 0.213600
-0.995410 1.356353 0.316800
-1.083310 1.476127 0.463200
-1.156956 1.576478 0.656400
-1.256003 0.921764 0.213600
-1.213920 0.890880 0.150000
-1.476127 1.083310 0.463200
-1.356353 0.995410 0.316800
-1.576477 1.156956 0.656400
-1.474028 0.495150 0.213600
-1.424640 0.478560 0.150000
-1.591798 0.534711 0.316800
-1.732362 0.581929 0.463200
-1.850133 0.621490 0.656400
1.424640 0.478560 0.150000
1.474028 0.495150 0.213600
1.591798 0.534711 0.316800
1.732362 0.581929 0.463200
1.850133 0.621490 0.656400
1.213920 0.890880 0.150000
1.256003 0.921764 0.213600
1.356353 0.995410 0.316800
1.476127 1.083310 0.463200
1.576478 1.156956 0.656400
0.921764 1.256003 0.213600
0.890880 1.213920 0.150000
1.083310 1.476127 0.463200
0.995410 1.356353 0.316800
1.156956 1.576477 0.656400
0.495150 1.474028 0.213600
0.478560 1.424640 0.150000
0.534711 1.591798 0.316800
0.581929 1.732362 0.463200
0.621490 1.850133 0.656400
-2.968800 -0.144000 1.800000
-2.940000 0.000000 2.019600
-3.000000 0.000000 1.800000
-2.910131 -0.144000 2.008181
-2.760000 0.000000 2.152800
-2.734458 -0.144000 2.134454
-2.460000 0.000000 2.221200
-2.442278 -0.144000 2.199298
-2.040000 0.000000 2.246400
-1.510400 -0.144000 2.226600
-2.034093 -0.144000 2.223187
-2.894400 -0.216000 1.800000
-2.838906 -0.216000 1.980950
-2.673549 -0.216000 2.090707
-2.400019 -0.216000 2.147069
-1.535200 -0.216000 2.170800
-2.020006 -0.216000 2.167834
-2.805600 -0.216000 1.800000
-2.753895 -0.216000 1.948450
-2.600852 -0.216000 2.038493
-2.349581 -0.216000 2.084731
-1.564800 -0.216000 2.104200
-2.003194 -0.216000 2.101767
-2.731200 -0.144000 1.800000
-2.682669 -0.144000 1.921219
-2.539943 -0.144000 1.994746
-2.307322 -0.144000 2.032503
-1.589600 -0.144000 2.048400
-1.989107 -0.144000 2.046413
-2.700000 0.000000 1.800000
-2.652800 0.000000 1.909800
-2.514400 0.000000 1.976400
-2.289600 0.000000 2.010600
-1.600000 0.000000 2.025000
-1.983200 0.000000 2.023200
-2.682669 0.144000 1.921219
-2.731200 0.144000 1.800000
-2.539943 0.144000 1.994746
-2.307322 0.144000 2.032503
-1.989107 0.144000 2.046413
-2.753895 0.216000 1.948450
-2.805600 0.216000 1.800000
-2.600851 0.216000 2.038493
-2.349581 0.216000 2.084731
-2.003194 0.216000 2.101767
-1.589600 0.144000 2.048400
-2.838906 0.216000 1.980950
-2.894400 0.216000 1.800000
-2.673549 0.216000 2.090707
-2.400019 0.216000 2.147069
-2.020006 0.216000 2.167834
-1.564800 0.216000 2.104200
-2.910131 0.144000 2.008181
-2.968800 0.144000 1.800000
-2.734458 0.144000 2.134454
-2.442278 0.144000 2.199298
-2.034093 0.144000 2.223187
-1.535200 0.216000 2.170800
-1.510400 0.144000 2.226600
-1.910400 -0.144000 0.631200
-2.302400 0.000000 0.811200
-1.900000 0.000000 0.600000
-2.298490 -0.144000 0.836909
-2.611200 0.000000 1.038600
-2.595725 -0.144000 1.060502
-2.828800 0.000000 1.280400
-2.804755 -0.144000 1.298122
-2.957600 0.000000 1.534800
-2.928231 -0.144000 1.545907
-1.935200 -0.216000 0.705600
-2.289165 -0.216000 0.898214
-2.558822 -0.216000 1.112731
-2.747417 -0.216000 1.340381
-2.858195 -0.216000 1.572394
-1.964800 -0.216000 0.794400
-2.278035 -0.216000 0.971386
-2.514778 -0.216000 1.175069
-2.678982 -0.216000 1.390819
-2.774605 -0.216000 1.604006
-1.989600 -0.144000 0.868800
-2.268711 -0.144000 1.032691
-2.477875 -0.144000 1.227298
-2.621645 -0.144000 1.433079
-2.704570 -0.144000 1.630493
-2.264800 0.000000 1.058400
-2.462400 0.000000 1.249200
-2.597600 0.000000 1.450800
-2.675200 0.000000 1.641600
-2.268711 0.144000 1.032691
-1.989600 0.144000 0.868800
-2.477875 0.144000 1.227298
-2.621645 0.144000 1.433079
-2.704570 0.144000 1.630493
-2.278035 0.216000 0.971386
-1.964800 0.216000 0.794400
-2.514777 0.216000 1.175069
-2.678982 0.216000 1.390819
-2.774605 0.216000 1.604006
-2.289165 0.216000 0.898214
-1.935200 0.216000 0.705600
-2.558822 0.216000 1.112731
-2.747417 0.216000 1.340381
-2.858195 0.216000 1.572394
-2.298490 0.144000 0.836909
-1.910400 0.144000 0.631200
-2.595725 0.144000 1.060502
-2.804755 0.144000 1.298122
-2.928231 0.144000 1.545907
3.237600 -0.120000 2.400000
2.922400 0.000000 2.090400
3.300000 0.000000 2.400000
2.881466 -0.140467 2.100072
2.751200 0.000000 1.669200
2.579347 -0.247526 1.270536
2.718253 -0.189274 1.696032
2.296134 -0.296333 0.906240
2.608800 0.000000 1.222800
1.700000 -0.316800 0.685800
2.317600 0.000000 0.837600
3.088800 -0.180000 2.400000
2.783853 -0.210701 2.123136
2.509114 -0.371290 1.384368
2.639686 -0.283910 1.760016
2.244947 -0.444499 1.069920
1.700000 -0.475200 0.890400
2.911200 -0.180000 2.400000
2.545914 -0.283910 1.836384
2.667347 -0.210701 2.150664
2.425286 -0.371290 1.520232
2.183853 -0.444499 1.265280
1.700000 -0.475200 1.134600
2.762400 -0.120000 2.400000
2.467347 -0.189274 1.900368
2.569735 -0.140467 2.173728
2.355053 -0.247526 1.634064
2.132666 -0.296333 1.428960
1.700000 -0.316800 1.339200
2.700000 0.000000 2.400000
2.434400 0.000000 1.927200
2.528800 0.000000 2.183400
2.325600 0.000000 1.681800
2.111200 0.000000 1.497600
1.700000 0.000000 1.425000
2.569735 0.140467 2.173728
2.762400 0.120000 2.400000
2.467347 0.189274 1.900368
2.355053 0.247526 1.634064
2.132666 0.296333 1.428960
2.667347 0.210701 2.150664
2.911200 0.180000 2.400000
2.545914 0.283910 1.836384
2.425286 0.371290 1.520232
2.183853 0.444499 1.265280
1.700000 0.316800 1.339200
2.783853 0.210701 2.123136
3.088800 0.180000 2.400000
2.639686 0.283910 1.760016
2.509114 0.371290 1.384368
2.244947 0.444499 1.069920
1.700000 0.475200 1.134600
2.881466 0.140467 2.100072
3.237600 0.120000 2.400000
2.718253 0.189274 1.696032
2.579347 0.247526 1.270536
2.296134 0.296333 0.906240
1.700000 0.475200 0.890400
1.700000 0.316800 0.685800
3.276999 -0.076992 2.450515
3.200000 0.000000 2.400000
3.158400 -0.072000 2.400000
3.348595 -0.088896 2.473354
3.328000 0.000000 2.452200
3.368813 -0.103104 2.470935
3.408000 0.000000 2.475600
3.400000 0.000000 2.446800
3.434000 0.000000 2.472900
3.333274 -0.115008 2.445677
3.155379 -0.115488 2.446498
3.059200 -0.108000 2.400000
3.206938 -0.133344 2.467997
3.213367 -0.154656 2.466247
3.174157 -0.172512 2.442999
3.010221 -0.115488 2.441702
2.940800 -0.108000 2.400000
3.037862 -0.133344 2.461603
3.027834 -0.154656 2.460653
2.984243 -0.172512 2.439802
2.888602 -0.076992 2.437685
2.841600 -0.072000 2.400000
2.896205 -0.088896 2.456246
2.872387 -0.103104 2.455966
2.825126 -0.115008 2.437123
2.837600 0.000000 2.436000
2.800000 0.000000 2.400000
2.836800 0.000000 2.454000
2.807200 0.000000 2.454000
2.758400 0.000000 2.436000
2.841600 0.072000 2.400000
2.888602 0.076992 2.437685
2.872387 0.103104 2.455966
2.896205 0.088896 2.456246
2.825127 0.115008 2.437123
2.940800 0.108000 2.400000
3.010221 0.115488 2.441703
3.027834 0.154656 2.460653
3.037862 0.133344 2.461603
2.984243 0.172512 2.439802
3.059200 0.108000 2.400000
3.155379 0.115488 2.446498
3.213367 0.154656 2.466247
3.206938 0.133344 2.467997
3.174157 0.172512 2.442999
3.158400 0.072000 2.400000
3.276999 0.076992 2.450516
3.348595 0.088896 2.473354
3.333274 0.115008 2.445677
3.368813 0.103104 2.470935
0.057246 -0.170215 2.804400
0.000000 -0.200000 2.700000
0.063808 -0.189952 2.700000
0.000000 -0.273600 2.923200
0.000000 -0.179200 2.804400
0.087511 -0.259910 2.923200
0.000000 -0.358400 3.034800
0.098814 -0.293360 3.117600
0.114676 -0.340477 3.034800
0.000000 0.000000 3.150000
0.000000 -0.308800 3.117600
0.106513 -0.145078 2.804400
0.118784 -0.161856 2.700000
0.162745 -0.221585 2.923200
0.183734 -0.250127 3.117600
0.213234 -0.290295 3.034800
0.161856 -0.118784 2.700000
0.145078 -0.106513 2.804400
0.290295 -0.213234 3.034800
0.221585 -0.162745 2.923200
0.250127 -0.183734 3.117600
0.189952 -0.063808 2.700000
0.259910 -0.087511 2.923200
0.170215 -0.057246 2.804400
0.340477 -0.114676 3.034800
0.293360 -0.098814 3.117600
0.200000 0.000000 2.700000
0.273600 0.000000 2.923200
0.179200 0.000000 2.804400
0.358400 0.000000 3.034800
0.308800 0.000000 3.117600
-0.170215 -0.057246 2.804400
-0.200000 0.000000 2.700000
-0.189952 -0.063808 2.700000
-0.273600 0.000000 2.923200
-0.179200 0.000000 2.804400
-0.259910 -0.087511 2.923200
-0.358400 0.000000 3.034800
-0.293360 -0.098814 3.117600
-0.340477 -0.114676 3.034800
-0.308800 0.000000 3.117600
-0.145078 -0.106513 2.804400
-0.161856 -0.118784 2.700000
-0.221585 -0.162745 2.923200
-0.250127 -0.183734 3.117600
-0.290295 -0.213234 3.034800
-0.118784 -0.161856 2.700000
-0.106513 -0.145078 2.804400
-0.213234 -0.290295 3.034800
-0.162745 -0.221585 2.923200
-0.183734 -0.250127 3.117600
-0.063808 -0.189952 2.700000
-0.087511 -0.259910 2.923200
-0.057246 -0.170215 2.804400
-0.114676 -0.340477 3.034800
-0.098814 -0.293360 3.117600
-0.057246 0.170215 2.804400
0.000000 0.200000 2.700000
-0.063808 0.189952 2.700000
0.000000 0.273600 2.923200
0.000000 0.179200 2.804400
-0.087511 0.259910 2.923200
0.000000 0.358400 3.034800
-0.098814 0.293360 3.117600
-0.114676 0.340477 3.034800
0.000000 0.308800 3.117600
-0.106513 0.145078 2.804400
-0.118784 0.161856 2.700000
-0.162745 0.221585 2.923200
-0.183734 0.250127 3.117600
-0.213234 0.290295 3.034800
-0.161856 0.118784 2.700000
-0.145078 0.106513 2.804400
-0.290295 0.213234 3.034800
-0.221585 0.162745 2.923200
-0.250127 0.183734 3.117600
-0.189952 0.063808 2.700000
-0.259910 0.087511 2.923200
-0.170215 0.057246 2.804400
-0.340477 0.114676 3.034800
-0.293360 0.098814 3.117600
0.170215 0.057246 2.804400
0.189952 0.063808 2.700000
0.259910 0.087511 2.923200
0.293360 0.098814 3.117600
0.340477 0.114676 3.034800
0.145078 0.106513 2.804400
0.161856 0.118784 2.700000
0.221585 0.162745 2.923200
0.250127 0.183734 3.117600
0.290295 0.213234 3.034800
0.118784 0.161856 2.700000
0.106513 0.145078 2.804400
0.213234 0.290295 3.034800
0.162745 0.221585 2.923200
0.183734 0.250127 3.117600
0.063808 0.189952 2.700000
0.087511 0.259910 2.923200
0.057246 0.170215 2.804400
0.114676 0.340477 3.034800
0.098814 0.293360 3.117600
0.384379 -1.144271 2.474400
0.000000 -1.300000 2.400000
0.414752 -1.234688 2.400000
0.309596 -0.921647 2.527200
0.000000 -1.204800 2.474400
0.214905 -0.639758 2.572800
0.000000 -0.970400 2.527200
0.124808 -0.371546 2.625600
0.000000 -0.673600 2.572800
0.000000 -0.391200 2.625600
0.715555 -0.975021 2.474400
0.772096 -1.052064 2.400000
0.576340 -0.785325 2.527200
0.400065 -0.545131 2.572800
0.232341 -0.316590 2.625600
1.052064 -0.772096 2.400000
0.785325 -0.576340 2.527200
0.975021 -0.715555 2.474400
0.316590 -0.232341 2.625600
0.545131 -0.400064 2.572800
1.234688 -0.414752 2.400000
1.144271 -0.384379 2.474400
0.921647 -0.309596 2.527200
0.639758 -0.214905 2.572800
0.371546 -0.124808 2.625600
1.300000 0.000000 2.400000
1.204800 0.000000 2.474400
0.970400 0.000000 2.527200
0.673600 0.000000 2.572800
0.391200 0.000000 2.625600
-1.144271 -0.384379 2.474400
-1.300000 0.000000 2.400000
-1.234688 -0.414752 2.400000
-0.921647 -0.309596 2.527200
-1.204800 0.000000 2.474400
-0.639758 -0.214905 2.572800
-0.970400 0.000000 2.527200
-0.371546 -0.124808 2.625600
-0.673600 0.000000 2.572800
-0.391200 0.000000 2.625600
-0.975021 -0.715555 2.474400
-1.052064 -0.772096 2.400000
-0.785325 -0.576340 2.527200
-0.545131 -0.400065 2.572800
-0.316590 -0.232341 2.625600
-0.772096 -1.052064 2.400000
-0.576340 -0.785325 2.527200
-0.715555 -0.975021 2.474400
-0.232341 -0.316590 2.625600
-0.400064 -0.545131 2.572800
-0.414752 -1.234688 2.400000
-0.384379 -1.144271 2.474400
-0.309596 -0.921647 2.527200
-0.214905 -0.639758 2.572800
-0.124808 -0.371546 2.625600
-0.384379 1.144271 2.474400
0.000000 1.300000 2.400000
-0.414752 1.234688 2.400000
-0.309596 0.921647 2.527200
0.000000 1.204800 2.474400
-0.214905 0.639758 2.572800
0.000000 0.970400 2.527200
-0.124808 0.371546 2.625600
0.000000 0.673600 2.572800
0.000000 0.391200 2.625600
-0.715555 0.975021 2.474400
-0.772096 1.052064 2.400000
-0.576340 0.785325 2.527200
-0.400065 0.545131 2.572800
-0.232341 0.316590 2.625600
-1.052064 0.772096 2.400000
-0.785325 0.576340 2.527200
-0.975021 0.715555 2.474400
-0.316590 0.232341 2.625600
-0.545131 0.400064 2.572800
-1.234688 0.414752 2.400000
-1.144271 0.384379 2.474400
-0.921647 0.309596 2.527200
-0.639758 0.214905 2.572800
-0.371546 0.124808 2.625600
1.144271 0.384379 2.474400
1.234688 0.414752 2.400000
0.921647 0.309596 2.527200
0.639758 0.214905 2.572800
0.371546 0.124808 2.625600
0.975021 0.715555 2.474400
1.052064 0.772096 2.400000
0.785325 0.576340 2.527200
0.545131 0.400065 2.572800
0.316590 0.232341 2.625600
0.772096 1.052064 2.400000
0.576340 0.785325 2.527200
0.715555 0.975021 2.474400
0.232341 0.316590 2.625600
0.400064 0.545131 2.572800
0.414752 1.234688 2.400000
0.384379 1.144271 2.474400
0.309596 0.921647 2.527200
0.214905 0.639758 2.572800
0.124808 0.371546 2.625600
0.472434 1.406404 0.105600
0.441041 1.312948 0.064800
0.000000 1.480800 0.105600
0.364854 1.086146 0.031200
0.000000 1.382400 0.064800
0.224349 0.667871 0.008400
0.000000 1.143600 0.031200
0.000000 0.000000 0.000000
0.000000 0.703200 0.008400
0.879477 1.198382 0.105600
0.821035 1.118749 0.064800
0.679207 0.925493 0.031200
0.417645 0.569086 0.008400
1.118749 0.821035 0.064800
1.198382 0.879477 0.105600
0.925493 0.679207 0.031200
0.569086 0.417645 0.008400
1.406404 0.472434 0.105600
1.312948 0.441041 0.064800
1.086146 0.364854 0.031200
0.667871 0.224349 0.008400
1.480800 0.000000 0.105600
1.382400 0.000000 0.064800
1.143600 0.000000 0.031200
0.703200 0.000000 0.008400
-1.406404 0.472434 0.105600
-1.312948 0.441041 0.064800
-1.480800 0.000000 0.105600
-1.086146 0.364854 0.031200
-1.382400 0.000000 0.064800
-0.667871 0.224349 0.008400
-1.143600 0.000000 0.031200
-0.703200 0.000000 0.008400
-1.198382 0.879477 0.105600
-1.118749 0.821035 0.064800
-0.925493 0.679207 0.031200
-0.569086 0.417645 0.008400
-0.821035 1.118749 0.064800
-0.879477 1.198382 0.105600
-0.679207 0.925493 0.031200
-0.417645 0.569086 0.008400
-0.472434 1.406404 0.105600
-0.441041 1.312948 0.064800
-0.364854 1.086146 0.031200
-0.224349 0.667871 0.008400
-0.472434 -1.406404 0.105600
-0.441041 -1.312948 0.064800
0.000000 -1.480800 0.105600
-0.364854 -1.086146 0.031200
0.000000 -1.382400 0.064800
-0.224349 -0.667871 0.008400
0.000000 -1.143600 0.031200
0.000000 -0.703200 0.008400
-0.879477 -1.198382 0.105600
-0.821035 -1.118749 0.064800
-0.679207 -0.925493 0.031200
-0.417645 -0.569086 0.008400
-1.118749 -0.821035 0.064800
-1.198382 -0.879477 0.105600
-0.925493 -0.679207 0.031200
-0.569086 -0.417645 0.008400
-1.406404 -0.472434 0.105600
-1.312948 -0.441041 0.064800
-1.086146 -0.364854 0.031200
-0.667871 -0.224349 0.008400
1.406404 -0.472434 0.105600
1.312948 -0.441041 0.064800
1.086146 -0.364854 0.031200
0.667871 -0.224349 0.008400
1.198382 -0.879477 0.105600
1.118749 -0.821035 0.064800
0.925493 -0.679207 0.031200
0.569086 -0.417645 0.008400
0.821035 -1.118749 0.064800
0.879477 -1.198382 0.105600
0.679207 -0.925493 0.031200
0.417645 -0.569086 0.008400
0.472434 -1.406404 0.105600
0.441041 -1.312948 0.064800
0.364854 -1.086146 0.031200
0.224349 -0.667871 0.008400
0.831488 -1.132992 2.400000
-1.132992 -0.831488 2.400000
-0.831488 1.132992 2.400000
1.132992 0.831488 2.400000
-1.500000 0.000000 2.250000
1.700000 0.000000 0.600000
3 0 1 2
3 3 4 0
3 5 6 3
3 7 8 5
3 7 9 10
3 11 2 12
3 13 0 11
3 14 3 13
3 15 5 14
3 15 16 7
3 17 12 18
3 19 11 17
3 19 14 13
3 20 14 21
3 22 15 20
3 23 17 18
3 24 19 17
3 25 21 19
3 26 20 21
3 27 20 28
3 29 24 23
3 30 25 24
3 31 26 25
3 32 28 26
3 33 28 34
3 35 36 37
3 38 39 35
3 40 41 38
3 42 43 40
3 42 44 45
3 46 37 47
3 48 35 46
3 49 38 48
3 50 40 49
3 50 51 42
3 52 47 53
3 54 46 52
3 54 49 48
3 55 49 56
3 57 50 55
3 58 52 53
3 59 54 52
3 60 56 54
3 61 55 56
3 62 55 63
3 1 59 58
3 4 60 59
3 6 61 60
3 8 63 61
3 9 63 10
3 64 65 66
3 67 68 64
3 69 70 67
3 71 72 69
3 71 73 74
3 75 66 76
3 77 64 75
3 78 67 77
3 79 69 78
3 79 80 71
3 81 76 82
3 83 75 81
3 83 78 77
3 84 78 85
3 86 79 84
3 87 81 82
3 88 83 81
3 89 85 83
3 90 84 85
3 91 84 92
3 36 88 87
3 39 89 88
3 41 90 89
3 43 92 90
3 44 92 45
3 93 29 94
3 95 30 93
3 96 31 95
3 97 32 96
3 97 33 34
3 98 94 99
3 100 93 98
3 101 95 100
3 102 96 101
3 102 103 97
3 104 99 105
3 106 98 104
3 106 101 100
3 107 101 108
3 109 102 107
3 110 104 105
3 111 106 104
3 112 108 106
3 113 107 108
3 114 107 115
3 65 111 110
3 68 112 111
3 70 113 112
3 72 115 113
3 73 115 74
3 116 117 118
3 119 120 116
3 121 122 119
3 123 124 121
3 2 125 123
3 126 118 127
3 128 116 126
3 129 119 128
3 130 121 129
3 12 123 130
3 131 127 132
3 131 128 126
3 133 129 128
3 134 129 135
3 18 130 134
3 136 131 132
3 137 133 131
3 138 135 133
3 139 134 135
3 140 18 134
3 141 137 136
3 142 138 137
3 143 139 138
3 144 140 139
3 145 23 140
3 146 147 148
3 149 150 146
3 151 152 149
3 153 154 151
3 37 155 153
3 156 148 157
3 158 146 156
3 159 149 158
3 160 151 159
3 47 153 160
3 161 157 162
3 161 158 156
3 163 159 158
3 164 159 165
3 53 160 164
3 166 161 162
3 167 163 161
3 168 165 163
3 169 164 165
3 170 53 164
3 117 167 166
3 120 168 167
3 122 169 168
3 124 170 169
3 125 58 170
3 171 172 173
3 174 175 171
3 176 177 174
3 178 179 176
3 66 180 178
3 181 173 182
3 183 171 181
3 184 174 183
3 185 176 184
3 76 178 185
3 186 182 187
3 186 183 181
3 188 184 183
3 189 184 190
3 82 185 189
3 191 186 187
3 192 188 186
3 193 190 188
3 194 189 190
3 195 82 189
3 147 192 191
3 150 193 192
3 152 194 193
3 154 195 194
3 155 87 195
3 196 141 197
3 198 142 196
3 199 143 198
3 200 144 199
3 94 145 200
3 201 197 202
3 203 196 201
3 204 198 203
3 205 199 204
3 99 200 205
3 206 202 207
3 206 203 201
3 208 204 203
3 209 204 210
3 105 205 209
3 211 206 207
3 212 208 206
3 213 210 208
3 214 209 210
3 215 105 209
3 172 212 211
3 175 213 212
3 177 214 213
3 179 215 214
3 180 110 215
3 216 217 218
3 219 220 217
3 221 222 220
3 223 224 222
3 225 117 224
3 226 219 216
3 227 221 219
3 228 223 221
3 229 225 223
3 230 118 225
3 231 226 232
3 231 228 227
3 233 228 234
3 235 229 233
3 235 127 230
3 236 232 237
3 238 231 236
3 239 234 238
3 240 233 239
3 136 235 240
3 241 237 242
3 243 236 241
3 244 238 243
3 245 239 244
3 141 240 245
3 246 247 248
3 249 250 247
3 251 252 250
3 253 254 252
3 255 147 254
3 256 249 246
3 257 251 249
3 258 253 251
3 259 255 253
3 260 148 255
3 261 256 262
3 261 258 257
3 263 258 264
3 265 259 263
3 265 157 260
3 266 262 267
3 268 261 266
3 269 264 268
3 270 263 269
3 166 265 270
3 217 267 218
3 220 266 217
3 222 268 220
3 224 269 222
3 117 270 224
3 271 272 273
3 274 275 272
3 276 277 275
3 278 279 277
3 280 172 279
3 281 274 271
3 282 276 274
3 283 278 276
3 284 280 278
3 285 173 280
3 286 281 287
3 286 283 282
3 288 283 289
3 290 284 288
3 290 182 285
3 291 287 292
3 293 286 291
3 294 289 293
3 295 288 294
3 191 290 295
3 247 292 248
3 250 291 247
3 252 293 250
3 254 294 252
3 147 295 254
3 296 241 242
3 297 243 241
3 298 244 243
3 299 245 244
3 300 141 245
3 301 297 296
3 302 298 297
3 303 299 298
3 304 300 299
3 305 197 300
3 306 301 307
3 306 303 302
3 308 303 309
3 310 304 308
3 310 202 305
3 311 307 312
3 313 306 311
3 314 309 313
3 315 308 314
3 211 310 315
3 272 312 273
3 275 311 272
3 277 313 275
3 279 314 277
3 172 315 279
3 316 317 318
3 319 320 317
3 321 322 320
3 323 324 322
3 325 324 326
3 327 319 316
3 328 321 319
3 329 323 321
3 330 326 323
3 331 326 332
3 333 328 327
3 334 329 328
3 335 330 329
3 336 332 330
3 337 332 338
3 339 334 333
3 340 335 334
3 341 336 335
3 342 338 336
3 343 338 344
3 345 340 339
3 346 341 340
3 347 342 341
3 348 344 342
3 349 344 350
3 351 345 352
3 353 346 351
3 354 347 353
3 355 348 354
3 355 349 350
3 356 352 357
3 358 351 356
3 359 353 358
3 360 354 359
3 360 361 355
3 362 357 363
3 364 356 362
3 365 358 364
3 366 359 365
3 366 367 360
3 368 363 369
3 370 362 368
3 371 364 370
3 372 365 371
3 372 373 366
3 317 369 318
3 320 368 317
3 322 370 320
3 324 371 322
3 324 374 372
3 375 376 377
3 378 379 376
3 380 381 379
3 382 383 381
3 384 318 383
3 385 378 375
3 386 380 378
3 387 382 380
3 388 384 382
3 389 316 384
3 390 386 385
3 391 387 386
3 392 388 387
3 393 389 388
3 394 327 389
3 395 391 390
3 396 392 391
3 397 393 392
3 398 394 393
3 399 333 394
3 147 396 395
3 400 397 396
3 401 398 397
3 402 399 398
3 403 339 399
3 404 147 405
3 406 400 404
3 407 401 406
3 408 402 407
3 352 403 408
3 409 405 410
3 411 404 409
3 412 406 411
3 413 407 412
3 357 408 413
3 414 410 415
3 416 409 414
3 417 411 416
3 418 412 417
3 363 413 418
3 419 415 420
3 421 414 419
3 422 416 421
3 423 417 422
3 369 418 423
3 376 420 377
3 379 419 376
3 381 421 379
3 383 422 381
3 318 423 383
3 424 425 426
3 427 428 425
3 429 428 430
3 431 432 429
3 433 434 431
3 435 427 424
3 436 430 427
3 437 430 438
3 439 429 437
3 440 431 439
3 441 436 435
3 442 436 443
3 444 438 442
3 445 437 444
3 446 439 445
3 447 443 441
3 448 443 449
3 450 442 448
3 451 444 450
3 452 445 451
3 453 449 447
3 454 449 455
3 456 448 454
3 457 450 456
3 458 451 457
3 459 453 460
3 459 454 455
3 461 456 454
3 462 457 456
3 463 458 457
3 464 460 465
3 464 461 459
3 466 462 461
3 467 463 462
3 468 469 463
3 470 465 471
3 470 466 464
3 472 467 466
3 473 468 467
3 474 475 468
3 476 471 477
3 478 470 476
3 478 473 472
3 479 474 473
3 480 481 474
3 425 477 426
3 428 476 425
3 428 479 478
3 432 480 479
3 434 482 480
3 483 484 485
3 486 487 483
3 488 489 486
3 488 490 491
3 492 426 490
3 493 485 494
3 495 483 493
3 496 486 495
3 496 492 488
3 497 424 492
3 498 494 499
3 500 493 498
3 500 496 495
3 501 497 496
3 502 435 497
3 503 499 504
3 505 498 503
3 505 501 500
3 506 502 501
3 507 441 502
3 508 504 509
3 510 503 508
3 510 506 505
3 511 507 506
3 512 447 507
3 513 508 509
3 514 510 508
3 515 510 516
3 517 511 515
3 460 512 517
3 518 514 513
3 519 516 514
3 520 516 521
3 522 515 520
3 465 517 522
3 523 519 518
3 524 521 519
3 525 521 526
3 527 520 525
3 471 522 527
3 528 524 523
3 529 526 524
3 530 525 526
3 531 525 532
3 477 527 531
3 484 529 528
3 487 530 529
3 489 532 530
3 490 532 491
3 426 531 490
3 533 534 535
3 533 536 537
3 538 539 536
3 540 539 541
3 540 542 543
3 544 535 545
3 544 538 533
3 546 541 538
3 547 541 548
3 547 542 540
3 549 544 545
3 550 546 544
3 551 546 552
3 551 547 548
3 553 542 547
3 554 550 549
3 555 550 556
3 557 552 555
3 557 553 551
3 558 542 553
3 559 556 554
3 560 556 561
3 562 555 560
3 562 558 557
3 563 542 558
3 564 565 566
3 564 567 568
3 569 570 567
3 571 570 572
3 571 542 573
3 574 566 575
3 574 569 564
3 576 572 569
3 577 572 578
3 577 542 571
3 579 574 575
3 580 576 574
3 581 576 582
3 581 577 578
3 583 542 577
3 584 580 579
3 585 580 586
3 587 582 585
3 587 583 581
3 588 542 583
3 534 586 584
3 536 586 537
3 539 585 536
3 539 588 587
3 543 542 588
3 589 590 591
3 589 592 593
3 594 595 592
3 596 595 597
3 596 542 598
3 599 591 600
3 599 594 589
3 601 597 594
3 602 597 603
3 602 542 596
3 604 599 600
3 605 601 599
3 606 601 607
3 606 602 603
3 608 542 602
3 609 605 604
3 610 605 611
3 612 607 610
3 612 608 606
3 613 542 608
3 565 611 609
3 567 611 568
3 570 610 567
3 570 613 612
3 573 542 613
3 614 559 615
3 614 560 561
3 616 562 560
3 617 562 618
3 617 542 563
3 619 615 620
3 619 616 614
3 621 618 616
3 622 618 623
3 622 542 617
3 624 619 620
3 625 621 619
3 626 621 627
3 626 622 623
3 628 542 622
3 629 625 624
3 630 625 631
3 632 627 630
3 632 628 626
3 633 542 628
3 590 631 629
3 592 631 593
3 595 630 592
3 595 633 632
3 598 542 633
3 634 635 636
3 637 638 634
3 639 640 637
3 641 642 639
3 535 643 641
3 644 636 645
3 646 634 644
3 647 637 646
3 648 639 647
3 545 641 648
3 649 644 645
3 650 644 651
3 650 647 646
3 652 647 653
3 652 545 648
3 654 651 649
3 655 650 651
3 656 653 650
3 657 652 653
3 658 549 652
3 659 655 654
3 660 656 655
3 661 657 656
3 662 658 657
3 663 554 658
3 664 665 666
3 667 668 664
3 669 670 667
3 671 672 669
3 566 673 671
3 674 666 675
3 676 664 674
3 677 667 676
3 678 669 677
3 575 671 678
3 679 674 675
3 680 674 681
3 680 677 676
3 682 677 683
3 682 575 678
3 684 681 679
3 685 680 681
3 686 683 680
3 687 682 683
3 688 579 682
3 635 685 684
3 638 686 685
3 640 687 686
3 642 688 687
3 643 584 688
3 689 690 691
3 692 693 689
3 694 695 692
3 696 697 694
3 591 698 696
3 699 691 700
3 701 689 699
3 702 692 701
3 703 694 702
3 600 696 703
3 704 699 700
3 705 699 706
3 705 702 701
3 707 702 708
3 707 600 703
3 709 706 704
3 710 705 706
3 711 708 705
3 712 707 708
3 713 604 707
3 665 710 709
3 668 711 710
3 670 712 711
3 672 713 712
3 673 609 713
3 714 659 715
3 716 660 714
3 717 661 716
3 718 662 717
3 615 663 718
3 719 715 720
3 721 714 719
3 722 716 721
3 723 717 722
3 620 718 723
3 724 719 720
3 725 719 726
3 725 722 721
3 727 722 728
3 727 620 723
3 729 726 724
3 730 725 726
3 731 728 725
3 732 727 728
3 733 624 727
3 690 730 729
3 693 731 730
3 695 732 731
3 697 733 732
3 698 629 733
3 734 273 312
3 735 736 734
3 737 738 735
3 739 740 737
3 739 741 742
3 743 312 307
3 744 734 743
3 745 735 744
3 746 737 745
3 746 741 739
3 301 743 307
3 747 743 748
3 749 744 747
3 750 745 749
3 750 741 746
3 296 748 301
3 751 747 748
3 752 749 747
3 753 750 749
3 754 741 750
3 242 751 296
3 755 752 751
3 756 753 752
3 757 754 753
3 758 741 754
3 759 248 292
3 760 761 759
3 762 763 760
3 764 765 762
3 764 741 766
3 767 292 287
3 768 759 767
3 769 760 768
3 770 762 769
3 770 741 764
3 281 767 287
3 771 767 772
3 773 768 771
3 774 769 773
3 774 741 770
3 271 772 281
3 775 771 772
3 776 773 771
3 777 774 773
3 778 741 774
3 273 775 271
3 736 776 775
3 738 777 776
3 740 778 777
3 742 741 778
3 779 218 267
3 780 781 779
3 782 783 780
3 784 785 782
3 784 741 786
3 787 267 262
3 788 779 787
3 789 780 788
3 790 782 789
3 790 741 784
3 256 787 262
3 791 787 792
3 793 788 791
3 794 789 793
3 794 741 790
3 246 792 256
3 795 791 792
3 796 793 791
3 797 794 793
3 798 741 794
3 248 795 246
3 761 796 795
3 763 797 796
3 765 798 797
3 766 741 798
3 799 242 237
3 800 755 799
3 801 756 800
3 802 757 801
3 802 741 758
3 803 237 232
3 804 799 803
3 805 800 804
3 806 801 805
3 806 741 802
3 226 803 232
3 807 803 808
3 809 804 807
3 810 805 809
3 810 741 806
3 216 808 226
3 811 807 808
3 812 809 807
3 813 810 809
3 814 741 810
3 218 811 216
3 781 812 811
3 783 813 812
3 785 814 813
3 786 741 814
3 0 4 1
3 3 6 4
3 5 8 6
3 7 10 8
3 7 16 9
3 11 0 2
3 13 3 0
3 14 5 3
3 15 7 5
3 15 815 16
3 17 11 12
3 19 13 11
3 19 21 14
3 20 15 14
3 22 815 15
3 23 24 17
3 24 25 19
3 25 26 21
3 26 28 20
3 27 22 20
3 29 30 24
3 30 31 25
3 31 32 26
3 32 34 28
3 33 27 28
3 35 39 36
3 38 41 39
3 40 43 41
3 42 45 43
3 42 51 44
3 46 35 37
3 48 38 35
3 49 40 38
3 50 42 40
3 50 816 51
3 52 46 47
3 54 48 46
3 54 56 49
3 55 50 49
3 57 816 50
3 58 59 52
3 59 60 54
3 60 61 56
3 61 63 55
3 62 57 55
3 1 4 59
3 4 6 60
3 6 8 61
3 8 10 63
3 9 62 63
3 64 68 65
3 67 70 68
3 69 72 70
3 71 74 72
3 71 80 73
3 75 64 66
3 77 67 64
3 78 69 67
3 79 71 69
3 79 817 80
3 81 75 76
3 83 77 75
3 83 85 78
3 84 79 78
3 86 817 79
3 87 88 81
3 88 89 83
3 89 90 85
3 90 92 84
3 91 86 84
3 36 39 88
3 39 41 89
3 41 43 90
3 43 45 92
3 44 91 92
3 93 30 29
3 95 31 30
3 96 32 31
3 97 34 32
3 97 103 33
3 98 93 94
3 100 95 93
3 101 96 95
3 102 97 96
3 102 818 103
3 104 98 99
3 106 100 98
3 106 108 101
3 107 102 101
3 109 818 102
3 110 111 104
3 111 112 106
3 112 113 108
3 113 115 107
3 114 109 107
3 65 68 111
3 68 70 112
3 70 72 113
3 72 74 115
3 73 114 115
3 116 120 117
3 119 122 120
3 121 124 122
3 123 125 124
3 2 1 125
3 126 116 118
3 128 119 116
3 129 121 119
3 130 123 121
3 12 2 123
3 131 126 127
3 131 133 128
3 133 135 129
3 134 130 129
3 18 12 130
3 136 137 131
3 137 138 133
3 138 139 135
3 139 140 134
3 140 23 18
3 141 142 137
3 142 143 138
3 143 144 139
3 144 145 140
3 145 29 23
3 146 150 147
3 149 152 150
3 151 154 152
3 153 155 154
3 37 36 155
3 156 146 148
3 158 149 146
3 159 151 149
3 160 153 151
3 47 37 153
3 161 156 157
3 161 163 158
3 163 165 159
3 164 160 159
3 53 47 160
3 166 167 161
3 167 168 163
3 168 169 165
3 169 170 164
3 170 58 53
3 117 120 167
3 120 122 168
3 122 124 169
3 124 125 170
3 125 1 58
3 171 175 172
3 174 177 175
3 176 179 177
3 178 180 179
3 66 65 180
3 181 171 173
3 183 174 171
3 184 176 174
3 185 178 176
3 76 66 178
3 186 181 182
3 186 188 183
3 188 190 184
3 189 185 184
3 82 76 185
3 191 192 186
3 192 193 188
3 193 194 190
3 194 195 189
3 195 87 82
3 147 150 192
3 150 152 193
3 152 154 194
3 154 155 195
3 155 36 87
3 196 142 141
3 198 143 142
3 199 144 143
3 200 145 144
3 94 29 145
3 201 196 197
3 203 198 196
3 204 199 198
3 205 200 199
3 99 94 200
3 206 201 202
3 206 208 203
3 208 210 204
3 209 205 204
3 105 99 205
3 211 212 206
3 212 213 208
3 213 214 210
3 214 215 209
3 215 110 105
3 172 175 212
3 175 177 213
3 177 179 214
3 179 180 215
3 180 65 110
3 216 219 217
3 219 221 220
3 221 223 222
3 223 225 224
3 225 118 117
3 226 227 219
3 227 228 221
3 228 229 223
3 229 230 225
3 230 127 118
3 231 227 226
3 231 234 228
3 233 229 228
3 235 230 229
3 235 132 127
3 236 231 232
3 238 234 231
3 239 233 234
3 240 235 233
3 136 132 235
3 241 236 237
3 243 238 236
3 244 239 238
3 245 240 239
3 141 136 240
3 246 249 247
3 249 251 250
3 251 253 252
3 253 255 254
3 255 148 147
3 256 257 249
3 257 258 251
3 258 259 253
3 259 260 255
3 260 157 148
3 261 257 256
3 261 264 258
3 263 259 258
3 265 260 259
3 265 162 157
3 266 261 262
3 268 264 261
3 269 263 264
3 270 265 263
3 166 162 265
3 217 266 267
3 220 268 266
3 222 269 268
3 224 270 269
3 117 166 270
3 271 274 272
3 274 276 275
3 276 278 277
3 278 280 279
3 280 173 172
3 281 282 274
3 282 283 276
3 283 284 278
3 284 285 280
3 285 182 173
3 286 282 281
3 286 289 283
3 288 284 283
3 290 285 284
3 290 187 182
3 291 286 287
3 293 289 286
3 294 288 289
3 295 290 288
3 191 187 290
3 247 291 292
3 250 293 291
3 252 294 293
3 254 295 294
3 147 191 295
3 296 297 241
3 297 298 243
3 298 299 244
3 299 300 245
3 300 197 141
3 301 302 297
3 302 303 298
3 303 304 299
3 304 305 300
3 305 202 197
3 306 302 301
3 306 309 303
3 308 304 303
3 310 305 304
3 310 207 202
3 311 306 307
3 313 309 306
3 314 308 309
3 315 310 308
3 211 207 310
3 272 311 312
3 275 313 311
3 277 314 313
3 279 315 314
3 172 211 315
3 316 319 317
3 319 321 320
3 321 323 322
3 323 326 324
3 325 819 324
3 327 328 319
3 328 329 321
3 329 330 323
3 330 332 326
3 331 325 326
3 333 334 328
3 334 335 329
3 335 336 330
3 336 338 332
3 337 331 332
3 339 340 334
3 340 341 335
3 341 342 336
3 342 344 338
3 343 337 338
3 345 346 340
3 346 347 341
3 347 348 342
3 348 350 344
3 349 343 344
3 351 346 345
3 353 347 346
3 354 348 347
3 355 350 348
3 355 361 349
3 356 351 352
3 358 353 351
3 359 354 353
3 360 355 354
3 360 367 361
3 362 356 357
3 364 358 356
3 365 359 358
3 366 360 359
3 366 373 367
3 368 362 363
3 370 364 362
3 371 365 364
3 372 366 365
3 372 374 373
3 317 368 369
3 320 370 368
3 322 371 370
3 324 372 371
3 324 819 374
3 375 378 376
3 378 380 379
3 380 382 381
3 382 384 383
3 384 316 318
3 385 386 378
3 386 387 380
3 387 388 382
3 388 389 384
3 389 327 316
3 390 391 386
3 391 392 387
3 392 393 388
3 393 394 389
3 394 333 327
3 395 396 391
3 396 397 392
3 397 398 393
3 398 399 394
3 399 339 333
3 147 400 396
3 400 401 397
3 401 402 398
3 402 403 399
3 403 345 339
3 404 400 147
3 406 401 400
3 407 402 401
3 408 403 402
3 352 345 403
3 409 404 405
3 411 406 404
3 412 407 406
3 413 408 407
3 357 352 408
3 414 409 410
3 416 411 409
3 417 412 411
3 418 413 412
3 363 357 413
3 419 414 415
3 421 416 414
3 422 417 416
3 423 418 417
3 369 363 418
3 376 419 420
3 379 421 419
3 381 422 421
3 383 423 422
3 318 369 423
3 424 427 425
3 427 430 428
3 429 432 428
3 431 434 432
3 433 820 434
3 435 436 427
3 436 438 430
3 437 429 430
3 439 431 429
3 440 433 431
3 441 443 436
3 442 438 436
3 444 437 438
3 445 439 437
3 446 440 439
3 447 449 443
3 448 442 443
3 450 444 442
3 451 445 444
3 452 446 445
3 453 455 449
3 454 448 449
3 456 450 448
3 457 451 450
3 458 452 451
3 459 455 453
3 459 461 454
3 461 462 456
3 462 463 457
3 463 469 458
3 464 459 460
3 464 466 461
3 466 467 462
3 467 468 463
3 468 475 469
3 470 464 465
3 470 472 466
3 472 473 467
3 473 474 468
3 474 481 475
3 476 470 471
3 478 472 470
3 478 479 473
3 479 480 474
3 480 482 481
3 425 476 477
3 428 478 476
3 428 432 479
3 432 434 480
3 434 820 482
3 483 487 484
3 486 489 487
3 488 491 489
3 488 492 490
3 492 424 426
3 493 483 485
3 495 486 483
3 496 488 486
3 496 497 492
3 497 435 424
3 498 493 494
3 500 495 493
3 500 501 496
3 501 502 497
3 502 441 435
3 503 498 499
3 505 500 498
3 505 506 501
3 506 507 502
3 507 447 441
3 508 503 504
3 510 505 503
3 510 511 506
3 511 512 507
3 512 453 447
3 513 514 508
3 514 516 510
3 515 511 510
3 517 512 511
3 460 453 512
3 518 519 514
3 519 521 516
3 520 515 516
3 522 517 515
3 465 460 517
3 523 524 519
3 524 526 521
3 525 520 521
3 527 522 520
3 471 465 522
3 528 529 524
3 529 530 526
3 530 532 525
3 531 527 525
3 477 471 527
3 484 487 529
3 487 489 530
3 489 491 532
3 490 531 532
3 426 477 531
3 533 537 534
3 533 538 536
3 538 541 539
3 540 543 539
3 544 533 535
3 544 546 538
3 546 548 541
3 547 540 541
3 549 550 544
3 550 552 546
3 551 548 546
3 551 553 547
3 554 556 550
3 555 552 550
3 557 551 552
3 557 558 553
3 559 561 556
3 560 555 556
3 562 557 555
3 562 563 558
3 564 568 565
3 564 569 567
3 569 572 570
3 571 573 570
3 574 564 566
3 574 576 569
3 576 578 572
3 577 571 572
3 579 580 574
3 580 582 576
3 581 578 576
3 581 583 577
3 584 586 580
3 585 582 580
3 587 581 582
3 587 588 583
3 534 537 586
3 536 585 586
3 539 587 585
3 539 543 588
3 589 593 590
3 589 594 592
3 594 597 595
3 596 598 595
3 599 589 591
3 599 601 594
3 601 603 597
3 602 596 597
3 604 605 599
3 605 607 601
3 606 603 601
3 606 608 602
3 609 611 605
3 610 607 605
3 612 606 607
3 612 613 608
3 565 568 611
3 567 610 611
3 570 612 610
3 570 573 613
3 614 561 559
3 614 616 560
3 616 618 562
3 617 563 562
3 619 614 615
3 619 621 616
3 621 623 618
3 622 617 618
3 624 625 619
3 625 627 621
3 626 623 621
3 626 628 622
3 629 631 625
3 630 627 625
3 632 626 627
3 632 633 628
3 590 593 631
3 592 630 631
3 595 632 630
3 595 598 633
3 634 638 635
3 637 640 638
3 639 642 640
3 641 643 642
3 535 534 643
3 644 634 636
3 646 637 634
3 647 639 637
3 648 641 639
3 545 535 641
3 649 651 644
3 650 646 644
3 650 653 647
3 652 648 647
3 652 549 545
3 654 655 651
3 655 656 650
3 656 657 653
3 657 658 652
3 658 554 549
3 659 660 655
3 660 661 656
3 661 662 657
3 662 663 658
3 663 559 554
3 664 668 665
3 667 670 668
3 669 672 670
3 671 673 672
3 566 565 673
3 674 664 666
3 676 667 664
3 677 669 667
3 678 671 669
3 575 566 671
3 679 681 674
3 680 676 674
3 680 683 677
3 682 678 677
3 682 579 575
3 684 685 681
3 685 686 680
3 686 687 683
3 687 688 682
3 688 584 579
3 635 638 685
3 638 640 686
3 640 642 687
3 642 643 688
3 643 534 584
3 689 693 690
3 692 695 693
3 694 697 695
3 696 698 697
3 591 590 698
3 699 689 691
3 701 692 689
3 702 694 692
3 703 696 694
3 600 591 696
3 704 706 699
3 705 701 699
3 705 708 702
3 707 703 702
3 707 604 600
3 709 710 706
3 710 711 705
3 711 712 708
3 712 713 707
3 713 609 604
3 665 668 710
3 668 670 711
3 670 672 712
3 672 673 713
3 673 565 609
3 714 660 659
3 716 661 660
3 717 662 661
3 718 663 662
3 615 559 663
3 719 714 715
3 721 716 714
3 722 717 716
3 723 718 717
3 620 615 718
3 724 726 719
3 725 721 719
3 725 728 722
3 727 723 722
3 727 624 620
3 729 730 726
3 730 731 725
3 731 732 728
3 732 733 727
3 733 629 624
3 690 693 730
3 693 695 731
3 695 697 732
3 697 698 733
3 698 590 629
3 734 736 273
3 735 738 736
3 737 740 738
3 739 742 740
3 743 734 312
3 744 735 734
3 745 737 735
3 746 739 737
3 301 748 743
3 747 744 743
3 749 745 744
3 750 746 745
3 296 751 748
3 751 752 747
3 752 753 749
3 753 754 750
3 242 755 751
3 755 756 752
3 756 757 753
3 757 758 754
3 759 761 248
3 760 763 761
3 762 765 763
3 764 766 765
3 767 759 292
3 768 760 759
3 769 762 760
3 770 764 762
3 281 772 767
3 771 768 767
3 773 769 768
3 774 770 769
3 271 775 772
3 775 776 771
3 776 777 773
3 777 778 774
3 273 736 775
3 736 738 776
3 738 740 777
3 740 742 778
3 779 781 218
3 780 783 781
3 782 785 783
3 784 786 785
3 787 779 267
3 788 780 779
3 789 782 780
3 790 784 782
3 256 792 787
3 791 788 787
3 793 789 788
3 794 790 789
3 246 795 792
3 795 796 791
3 796 797 793
3 797 798 794
3 248 761 795
3 761 763 796
3 763 765 797
3 765 766 798
3 799 755 242
3 800 756 755
3 801 757 756
3 802 758 757
3 803 799 237
3 804 800 799
3 805 801 800
3 806 802 801
3 226 808 803
3 807 804 803
3 809 805 804
3 810 806 805
3 216 811 808
3 811 812 807
3 812 813 809
3 813 814 810
3 218 781 811
3 781 783 812
3 783 785 813
3 785 786 814
