ply
format ascii 1.0
comment Created by Blender 2.92.0 - www.blender.org
element vertex 140
property float x
property float y
property float z
property float nx
property float ny
property float nz
property float s
property float t
element face 66
property list uchar uint vertex_indices
end_header
2.206167 -2.846839 -1.176000 1.000000 0.000000 0.000000 0.625000 0.000000
2.206167 1.974761 1.176000 1.000000 0.000000 0.000000 0.375000 0.250000
2.206167 -2.846839 1.176000 1.000000 0.000000 0.000000 0.375000 0.000000
2.206167 1.974761 -1.176000 0.000000 1.000000 0.000000 0.625000 0.250000
-2.223433 1.974761 1.176000 0.000000 1.000000 0.000000 0.375000 0.500000
2.206167 1.974761 1.176000 0.000000 1.000000 0.000000 0.375000 0.250000
-2.223433 1.974761 -1.176000 -1.000000 -0.000000 -0.000000 0.625000 0.500000
-2.223433 -2.846839 1.176000 -1.000000 -0.000000 -0.000000 0.375000 0.750000
-2.223433 1.974761 1.176000 -1.000000 -0.000000 -0.000000 0.375000 0.500000
-2.223433 -2.846839 -1.176000 0.000000 -1.000000 -0.000000 0.625000 0.750000
2.206167 -2.846839 1.176000 0.000000 -1.000000 -0.000000 0.375000 1.000000
-2.223433 -2.846839 1.176000 0.000000 -1.000000 -0.000000 0.375000 0.750000
-2.223433 1.974761 1.176000 0.000000 0.000000 1.000000 0.375000 0.500000
2.206167 -2.846839 1.176000 0.000000 0.000000 1.000000 0.125000 0.750000
2.206167 1.974761 1.176000 0.000000 0.000000 1.000000 0.125000 0.500000
2.206167 1.974761 -1.176000 0.000000 -0.000000 -1.000000 0.875000 0.500000
-2.223433 -2.846839 -1.176000 0.000000 -0.000000 -1.000000 0.625000 0.750000
-2.223433 1.974761 -1.176000 0.000000 -0.000000 -1.000000 0.625000 0.500000
2.206167 1.974761 -1.176000 1.000000 0.000000 0.000000 0.625000 0.250000
-2.223433 1.974761 -1.176000 -0.000000 1.000000 0.000000 0.625000 0.500000
-2.223433 -2.846839 -1.176000 -1.000000 0.000000 0.000000 0.625000 0.750000
2.206167 -2.846839 -1.176000 -0.000000 -1.000000 -0.000000 0.625000 1.000000
-2.223433 -2.846839 1.176000 0.000000 0.000000 1.000000 0.375000 0.750000
2.206167 -2.846839 -1.176000 0.000000 -0.000000 -1.000000 0.875000 0.750000
1.951367 2.193566 -1.960000 1.000000 0.000000 0.000000 0.625000 0.000000
1.951367 6.113566 1.960000 1.000000 0.000000 0.000000 0.375000 0.250000
1.951367 2.193566 1.960000 1.000000 0.000000 0.000000 0.375000 0.000000
1.951367 6.113566 -1.960000 0.000000 1.000000 0.000000 0.625000 0.250000
-1.968633 6.113566 1.960000 0.000000 1.000000 0.000000 0.375000 0.500000
1.951367 6.113566 1.960000 0.000000 1.000000 0.000000 0.375000 0.250000
-1.968633 6.113566 -1.960000 -1.000000 -0.000000 -0.000000 0.625000 0.500000
-1.968633 2.193566 1.960000 -1.000000 -0.000000 -0.000000 0.375000 0.750000
-1.968633 6.113566 1.960000 -1.000000 -0.000000 -0.000000 0.375000 0.500000
-1.968633 2.193566 -1.960000 0.000000 -1.000000 0.000000 0.625000 0.750000
1.951367 2.193566 1.960000 0.000000 -1.000000 0.000000 0.375000 1.000000
-1.968633 2.193566 1.960000 0.000000 -1.000000 0.000000 0.375000 0.750000
-1.968633 6.113566 1.960000 0.000000 0.000000 1.000000 0.375000 0.500000
1.951367 2.193566 1.960000 0.000000 0.000000 1.000000 0.125000 0.750000
1.951367 6.113566 1.960000 0.000000 0.000000 1.000000 0.125000 0.500000
1.951367 6.113566 -1.960000 0.000000 -0.000000 -1.000000 0.875000 0.500000
-1.968633 2.193566 -1.960000 0.000000 -0.000000 -1.000000 0.625000 0.750000
-1.968633 6.113566 -1.960000 0.000000 -0.000000 -1.000000 0.625000 0.500000
1.951367 6.113566 -1.960000 1.000000 0.000000 0.000000 0.625000 0.250000
-1.968633 6.113566 -1.960000 -0.000000 1.000000 0.000000 0.625000 0.500000
-1.968633 2.193566 -1.960000 -1.000000 0.000000 -0.000000 0.625000 0.750000
1.951367 2.193566 -1.960000 0.000000 -1.000000 0.000000 0.625000 1.000000
-1.968633 2.193566 1.960000 0.000000 0.000000 1.000000 0.375000 0.750000
1.951367 2.193566 -1.960000 0.000000 -0.000000 -1.000000 0.875000 0.750000
-0.410900 -2.998627 0.345352 0.051034 0.907659 0.416595 0.950317 1.000000
0.462700 -3.247878 0.781391 0.051034 0.907659 0.416595 0.879098 0.500000
0.462700 -2.926023 0.080148 0.051034 0.907659 0.416595 0.979190 0.500000
-0.410900 -3.287754 0.821267 0.017194 0.493114 0.869795 0.871097 1.000000
0.462700 -3.820404 1.105974 0.017194 0.493114 0.869795 0.785348 0.500000
0.462700 -3.247878 0.781391 0.017194 0.493114 0.869795 0.879098 0.500000
-0.410900 -3.875713 1.116976 0.015309 -0.043100 0.998953 0.777347 1.000000
0.462700 -4.376742 1.081970 0.015309 -0.043100 0.998953 0.705933 0.500000
0.462700 -3.820404 1.105974 0.015309 -0.043100 0.998953 0.785348 0.500000
-0.410900 -4.414495 1.070518 0.009348 -0.482065 0.876086 0.700317 1.000000
0.462700 -4.850535 0.821267 0.009348 -0.482065 0.876086 0.628903 0.500000
0.462700 -4.376742 1.081970 0.009348 -0.482065 0.876086 0.705933 0.500000
-0.410900 -5.070315 0.512769 0.044650 -0.869056 0.492695 0.575317 1.000000
0.462700 -5.175118 0.248741 0.044650 -0.869056 0.492695 0.535153 0.500000
0.462700 -4.850535 0.821267 0.044650 -0.869056 0.492695 0.628903 0.500000
-0.410900 -5.190334 0.090605 0.036367 -0.993777 -0.105280 0.512817 1.000000
0.462700 -5.094579 -0.511501 0.036367 -0.993777 -0.105280 0.426419 0.500000
0.462700 -5.175118 0.248741 0.036367 -0.993777 -0.105280 0.535153 0.500000
-0.410900 -5.064142 -0.568444 0.021956 -0.701853 -0.711983 0.417331 1.000000
0.462700 -4.616707 -0.982574 0.021956 -0.701853 -0.711983 0.330933 0.500000
0.462700 -5.094579 -0.511501 0.021956 -0.701853 -0.711983 0.426419 0.500000
-0.410900 -4.581914 -1.001171 0.009348 -0.278614 -0.960358 0.325317 1.000000
0.462700 -4.097339 -1.133250 0.009348 -0.278614 -0.960358 0.254097 0.500000
0.462700 -4.616707 -0.982574 0.009348 -0.278614 -0.960358 0.330933 0.500000
-0.410900 -4.040946 -1.133250 0.017194 0.266355 -0.963722 0.245902 1.000000
0.462700 -3.462988 -0.957927 0.017194 0.266355 -0.963722 0.160348 0.500000
0.462700 -4.097339 -1.133250 0.017194 0.266355 -0.963722 0.254097 0.500000
-0.410900 -3.317508 -0.864980 0.050735 0.735982 -0.675098 0.136081 1.000000
0.462700 -3.086570 -0.547562 0.050735 0.735982 -0.675098 0.080933 0.500000
0.462700 -3.462988 -0.957927 0.050735 0.735982 -0.675098 0.160348 0.500000
-0.410900 -5.064142 -0.568444 -1.000000 -0.000000 0.000000 0.133655 0.046621
-0.410900 -4.414495 1.070518 -1.000000 -0.000000 0.000000 0.477333 0.176622
-0.410900 -2.998627 0.345352 -1.000000 -0.000000 0.000000 0.323378 0.477333
-0.410900 -2.952168 -0.193430 0.048547 0.967672 -0.247497 0.027152 1.000000
0.462700 -2.926023 0.080148 0.048547 0.967672 -0.247497 0.018433 0.500000
0.462700 -3.086570 -0.547562 0.048547 0.967672 -0.247497 0.080933 0.500000
0.462700 -5.175118 0.248741 1.000000 0.000000 -0.000000 0.801987 0.018620
0.462700 -4.097339 -1.133250 1.000000 0.000000 -0.000000 0.513266 0.243861
0.462700 -2.926023 0.080148 1.000000 0.000000 -0.000000 0.766255 0.483742
-0.410900 -2.952168 -0.193430 -0.056630 0.994704 0.085772 1.000000 1.000000
-0.410900 -2.998627 0.345352 -0.056630 0.994704 0.085772 0.950317 1.000000
0.462700 -2.926023 0.080148 -0.056630 0.994704 0.085772 0.979190 0.500000
-0.410900 -2.998627 0.345352 -0.015309 0.854545 0.519152 0.950317 1.000000
-0.410900 -3.287754 0.821267 -0.015309 0.854545 0.519152 0.871097 1.000000
0.462700 -3.247878 0.781391 -0.015309 0.854545 0.519152 0.879098 0.500000
-0.410900 -3.287754 0.821267 -0.017194 0.449248 0.893242 0.871097 1.000000
-0.410900 -3.875713 1.116976 -0.017194 0.449248 0.893242 0.777347 1.000000
0.462700 -3.820404 1.105974 -0.017194 0.449248 0.893242 0.785348 0.500000
-0.410900 -3.875713 1.116976 -0.009348 -0.085905 0.996260 0.777347 1.000000
-0.410900 -4.414495 1.070518 -0.009348 -0.085905 0.996260 0.700317 1.000000
0.462700 -4.376742 1.081970 -0.009348 -0.085905 0.996260 0.705933 0.500000
-0.410900 -4.414495 1.070518 0.006257 -0.486780 0.873502 0.700317 1.000000
-0.410900 -4.797877 0.856869 0.006257 -0.486780 0.873502 0.637817 1.000000
0.462700 -4.850535 0.821267 0.006257 -0.486780 0.873502 0.628903 0.500000
-0.410900 -4.797877 0.856869 -0.021955 -0.783828 0.620589 0.637817 1.000000
-0.410900 -5.070315 0.512769 -0.021955 -0.783828 0.620589 0.575317 1.000000
0.462700 -4.850535 0.821267 -0.021955 -0.783828 0.620589 0.628903 0.500000
-0.410900 -5.070315 0.512769 -0.032729 -0.961369 0.273312 0.575317 1.000000
-0.410900 -5.190334 0.090605 -0.032729 -0.961369 0.273312 0.512817 1.000000
0.462700 -5.175118 0.248741 -0.032729 -0.961369 0.273312 0.535153 0.500000
-0.410900 -5.190334 0.090605 -0.021955 -0.981921 -0.188014 0.512817 1.000000
-0.410900 -5.064142 -0.568444 -0.021955 -0.981921 -0.188014 0.417331 1.000000
0.462700 -5.094579 -0.511501 -0.021955 -0.981921 -0.188014 0.426419 0.500000
-0.410900 -5.064142 -0.568444 -0.010754 -0.667835 -0.744231 0.417331 1.000000
-0.410900 -4.581914 -1.001171 -0.010754 -0.667835 -0.744231 0.325317 1.000000
0.462700 -4.616707 -0.982574 -0.010754 -0.667835 -0.744231 0.330933 0.500000
-0.410900 -4.581914 -1.001171 -0.015309 -0.237157 -0.971351 0.325317 1.000000
-0.410900 -4.040946 -1.133250 -0.015309 -0.237157 -0.971351 0.245902 1.000000
0.462700 -4.097339 -1.133250 -0.015309 -0.237157 -0.971351 0.254097 0.500000
-0.410900 -4.040946 -1.133250 -0.041820 0.347385 -0.936789 0.245902 1.000000
-0.410900 -3.317508 -0.864980 -0.041820 0.347385 -0.936789 0.136081 1.000000
0.462700 -3.462988 -0.957927 -0.041820 0.347385 -0.936789 0.160348 0.500000
-0.410900 -3.317508 -0.864980 -0.058476 0.876920 -0.477066 0.136081 1.000000
-0.410900 -2.952168 -0.193430 -0.058476 0.876920 -0.477066 0.027152 1.000000
0.462700 -3.086570 -0.547562 -0.058476 0.876920 -0.477066 0.080933 0.500000
-0.410900 -4.040946 -1.133250 -1.000000 -0.000000 0.000000 0.013266 0.256140
-0.410900 -4.581914 -1.001171 -1.000000 -0.000000 0.000000 0.037365 0.141138
-0.410900 -3.317508 -0.864980 -1.000000 -0.000000 0.000000 0.073226 0.403787
-0.410900 -5.190334 0.090605 -1.000000 -0.000000 0.000000 0.269204 0.011891
-0.410900 -5.070315 0.512769 -1.000000 -0.000000 0.000000 0.358862 0.037365
-0.410900 -4.797877 0.856869 -1.000000 0.000000 0.000000 0.431948 0.095211
-0.410900 -3.287754 0.821267 -1.000000 -0.000000 -0.000000 0.421773 0.413503
-0.410900 -3.875713 1.116976 -1.000000 -0.000000 -0.000000 0.483662 0.290516
-0.410900 -2.952168 -0.193430 -1.000000 -0.000000 0.000000 0.209837 0.483383
0.462700 -4.376742 1.081970 1.000000 0.000000 -0.000000 0.979787 0.184712
0.462700 -4.850535 0.821267 1.000000 0.000000 -0.000000 0.921773 0.086497
0.462700 -3.820404 1.105974 1.000000 0.000000 -0.000000 0.980988 0.302206
0.462700 -5.094579 -0.511501 1.000000 0.000000 -0.000000 0.645534 0.040271
0.462700 -4.616707 -0.982574 1.000000 0.000000 -0.000000 0.541351 0.133682
0.462700 -3.086570 -0.547562 1.000000 -0.000000 0.000000 0.633682 0.458649
0.462700 -3.462988 -0.957927 1.000000 -0.000000 0.000000 0.549752 0.376418
0.462700 -3.247878 0.781391 1.000000 0.000000 -0.000000 0.913055 0.421737
3 0 1 2
3 3 4 5
3 6 7 8
3 9 10 11
3 12 13 14
3 15 16 17
3 0 18 1
3 3 19 4
3 6 20 7
3 9 21 10
3 12 22 13
3 15 23 16
3 24 25 26
3 27 28 29
3 30 31 32
3 33 34 35
3 36 37 38
3 39 40 41
3 24 42 25
3 27 43 28
3 30 44 31
3 33 45 34
3 36 46 37
3 39 47 40
3 48 49 50
3 51 52 53
3 54 55 56
3 57 58 59
3 60 61 62
3 63 64 65
3 66 67 68
3 69 70 71
3 72 73 74
3 75 76 77
3 78 79 80
3 81 82 83
3 84 85 86
3 87 88 89
3 90 91 92
3 93 94 95
3 96 97 98
3 99 100 101
3 102 103 104
3 105 106 107
3 108 109 110
3 111 112 113
3 114 115 116
3 117 118 119
3 120 121 122
3 123 124 125
3 126 127 78
3 127 128 79
3 129 80 130
3 124 78 125
3 80 131 125
3 78 127 79
3 79 130 80
3 80 125 78
3 132 133 134
3 135 136 85
3 137 86 138
3 133 84 134
3 86 139 84
3 139 134 84
3 84 135 85
3 85 138 86
