ply
format ascii 1.0
comment Created by Blender 2.92.0 - www.blender.org
element vertex 48
property float x
property float y
property float z
property float nx
property float ny
property float nz
property float s
property float t
element face 24
property list uchar uint vertex_indices
end_header
2.206167 -2.846839 -1.176000 1.000000 0.000000 0.000000 0.625000 0.000000
2.206167 1.974761 1.176000 1.000000 0.000000 0.000000 0.375000 0.250000
2.206167 -2.846839 1.176000 1.000000 0.000000 0.000000 0.375000 0.000000
2.206167 1.974761 -1.176000 0.000000 1.000000 0.000000 0.625000 0.250000
-2.223433 1.974761 1.176000 0.000000 1.000000 0.000000 0.375000 0.500000
2.206167 1.974761 1.176000 0.000000 1.000000 0.000000 0.375000 0.250000
-2.223433 1.974761 -1.176000 -1.000000 -0.000000 -0.000000 0.625000 0.500000
-2.223433 -2.846839 1.176000 -1.000000 -0.000000 -0.000000 0.375000 0.750000
-2.223433 1.974761 1.176000 -1.000000 -0.000000 -0.000000 0.375000 0.500000
-2.223433 -2.846839 -1.176000 0.000000 -1.000000 -0.000000 0.625000 0.750000
2.206167 -2.846839 1.176000 0.000000 -1.000000 -0.000000 0.375000 1.000000
-2.223433 -2.846839 1.176000 0.000000 -1.000000 -0.000000 0.375000 0.750000
-2.223433 1.974761 1.176000 0.000000 0.000000 1.000000 0.375000 0.500000
2.206167 -2.846839 1.176000 0.000000 0.000000 1.000000 0.125000 0.750000
2.206167 1.974761 1.176000 0.000000 0.000000 1.000000 0.125000 0.500000
2.206167 1.974761 -1.176000 0.000000 -0.000000 -1.000000 0.875000 0.500000
-2.223433 -2.846839 -1.176000 0.000000 -0.000000 -1.000000 0.625000 0.750000
-2.223433 1.974761 -1.176000 0.000000 -0.000000 -1.000000 0.625000 0.500000
2.206167 1.974761 -1.176000 1.000000 0.000000 0.000000 0.625000 0.250000
-2.223433 1.974761 -1.176000 -0.000000 1.000000 0.000000 0.625000 0.500000
-2.223433 -2.846839 -1.176000 -1.000000 0.000000 0.000000 0.625000 0.750000
2.206167 -2.846839 -1.176000 -0.000000 -1.000000 -0.000000 0.625000 1.000000
-2.223433 -2.846839 1.176000 0.000000 0.000000 1.000000 0.375000 0.750000
2.206167 -2.846839 -1.176000 0.000000 -0.000000 -1.000000 0.875000 0.750000
1.951367 2.193566 -1.960000 1.000000 0.000000 0.000000 0.625000 0.000000
1.951367 6.113566 1.960000 1.000000 0.000000 0.000000 0.375000 0.250000
1.951367 2.193566 1.960000 1.000000 0.000000 0.000000 0.375000 0.000000
1.951367 6.113566 -1.960000 0.000000 1.000000 0.000000 0.625000 0.250000
-1.968633 6.113566 1.960000 0.000000 1.000000 0.000000 0.375000 0.500000
1.951367 6.113566 1.960000 0.000000 1.000000 0.000000 0.375000 0.250000
-1.968633 6.113566 -1.960000 -1.000000 -0.000000 -0.000000 0.625000 0.500000
-1.968633 2.193566 1.960000 -1.000000 -0.000000 -0.000000 0.375000 0.750000
-1.968633 6.113566 1.960000 -1.000000 -0.000000 -0.000000 0.375000 0.500000
-1.968633 2.193566 -1.960000 0.000000 -1.000000 0.000000 0.625000 0.750000
1.951367 2.193566 1.960000 0.000000 -1.000000 0.000000 0.375000 1.000000
-1.968633 2.193566 1.960000 0.000000 -1.000000 0.000000 0.375000 0.750000
-1.968633 6.113566 1.960000 0.000000 0.000000 1.000000 0.375000 0.500000
1.951367 2.193566 1.960000 0.000000 0.000000 1.000000 0.125000 0.750000
1.951367 6.113566 1.960000 0.000000 0.000000 1.000000 0.125000 0.500000
1.951367 6.113566 -1.960000 0.000000 -0.000000 -1.000000 0.875000 0.500000
-1.968633 2.193566 -1.960000 0.000000 -0.000000 -1.000000 0.625000 0.750000
-1.968633 6.113566 -1.960000 0.000000 -0.000000 -1.000000 0.625000 0.500000
1.951367 6.113566 -1.960000 1.000000 0.000000 0.000000 0.625000 0.250000
-1.968633 6.113566 -1.960000 -0.000000 1.000000 0.000000 0.625000 0.500000
-1.968633 2.193566 -1.960000 -1.000000 0.000000 -0.000000 0.625000 0.750000
1.951367 2.193566 -1.960000 0.000000 -1.000000 0.000000 0.625000 1.000000
-1.968633 2.193566 1.960000 0.000000 0.000000 1.000000 0.375000 0.750000
1.951367 2.193566 -1.960000 0.000000 -0.000000 -1.000000 0.875000 0.750000
3 0 1 2
3 3 4 5
3 6 7 8
3 9 10 11
3 12 13 14
3 15 16 17
3 0 18 1
3 3 19 4
3 6 20 7
3 9 21 10
3 12 22 13
3 15 23 16
3 24 25 26
3 27 28 29
3 30 31 32
3 33 34 35
3 36 37 38
3 39 40 41
3 24 42 25
3 27 43 28
3 30 44 31
3 33 45 34
3 36 46 37
3 39 47 40
