ply
format ascii 1.0
comment Created by Blender 2.92.0 - www.blender.org
element vertex 774
property float x
property float y
property float z
property float nx
property float ny
property float nz
element face 302
property list uchar uint vertex_indices
end_header
-0.995185 0.013456 0.098017 -0.998796 0.000000 0.049065
-1.000000 0.034000 0.000000 -0.998796 0.000000 0.049065
-1.000000 0.000000 0.000000 -0.998796 0.000000 0.049065
-1.000000 0.034000 0.000000 -0.998796 0.000000 -0.049065
-0.995185 0.013456 -0.098017 -0.998796 0.000000 -0.049065
-1.000000 0.000000 0.000000 -0.998796 0.000000 -0.049065
-0.881921 0.013456 0.471397 -0.903988 0.000000 0.427558
-0.923880 0.034000 0.382683 -0.903988 0.000000 0.427558
-0.923880 0.000000 0.382683 -0.903988 0.000000 0.427558
-0.923880 0.034000 0.382683 -0.941546 0.000000 0.336885
-0.956940 0.013456 0.290285 -0.941546 0.000000 0.336885
-0.923880 0.000000 0.382683 -0.941546 0.000000 0.336885
-0.634393 0.013456 0.773010 -0.671553 0.000000 0.740957
-0.707107 0.034000 0.707107 -0.671553 0.000000 0.740957
-0.707107 0.000000 0.707107 -0.671553 0.000000 0.740957
-0.707107 0.034000 0.707107 -0.740957 0.000000 0.671553
-0.773010 0.013456 0.634393 -0.740957 0.000000 0.671553
-0.707107 0.000000 0.707107 -0.740957 0.000000 0.671553
-0.290285 0.013456 0.956940 -0.336885 0.000000 0.941546
-0.382683 0.034000 0.923880 -0.336885 0.000000 0.941546
-0.382683 0.000000 0.923880 -0.336885 0.000000 0.941546
-0.382683 0.034000 0.923880 -0.427558 0.000000 0.903988
-0.471397 0.013456 0.881921 -0.427558 0.000000 0.903988
-0.382683 0.000000 0.923880 -0.427558 0.000000 0.903988
0.098017 0.013456 0.995185 0.049065 -0.000000 0.998796
0.000000 0.034000 1.000000 0.049065 -0.000000 0.998796
0.000000 0.000000 1.000000 0.049065 -0.000000 0.998796
0.000000 0.034000 1.000000 -0.049065 0.000000 0.998796
-0.098017 0.013456 0.995185 -0.049065 0.000000 0.998796
0.000000 0.000000 1.000000 -0.049065 0.000000 0.998796
0.471397 0.013456 0.881921 0.427558 -0.000000 0.903988
0.382683 0.034000 0.923880 0.427558 -0.000000 0.903988
0.382683 0.000000 0.923880 0.427558 -0.000000 0.903988
0.382683 0.034000 0.923880 0.336885 0.000000 0.941546
0.290285 0.013456 0.956940 0.336885 0.000000 0.941546
0.382683 0.000000 0.923880 0.336885 0.000000 0.941546
0.773010 0.013456 0.634393 0.740957 -0.000000 0.671553
0.707107 0.034000 0.707107 0.740957 -0.000000 0.671553
0.707107 0.000000 0.707107 0.740957 -0.000000 0.671553
0.707107 0.034000 0.707107 0.671553 0.000000 0.740957
0.634393 0.013456 0.773010 0.671553 0.000000 0.740957
0.707107 0.000000 0.707107 0.671553 0.000000 0.740957
0.956940 0.013456 0.290285 0.941546 -0.000000 0.336885
0.923880 0.034000 0.382683 0.941546 -0.000000 0.336885
0.923880 0.000000 0.382683 0.941546 -0.000000 0.336885
0.923880 0.034000 0.382683 0.903988 0.000000 0.427558
0.881921 0.013456 0.471397 0.903988 0.000000 0.427558
0.923880 0.000000 0.382683 0.903988 0.000000 0.427558
0.995185 0.013456 -0.098017 0.998796 0.000000 -0.049065
1.000000 0.034000 0.000000 0.998796 0.000000 -0.049065
1.000000 0.000000 0.000000 0.998796 0.000000 -0.049065
1.000000 0.034000 0.000000 0.998796 0.000000 0.049065
0.995185 0.013456 0.098017 0.998796 0.000000 0.049065
1.000000 0.000000 0.000000 0.998796 0.000000 0.049065
0.881921 0.013456 -0.471397 0.903988 0.000000 -0.427558
0.923880 0.034000 -0.382683 0.903988 0.000000 -0.427558
0.923880 0.000000 -0.382683 0.903988 0.000000 -0.427558
0.923880 0.034000 -0.382683 0.941546 0.000000 -0.336885
0.956940 0.013456 -0.290285 0.941546 0.000000 -0.336885
0.923880 0.000000 -0.382683 0.941546 0.000000 -0.336885
0.634393 0.013456 -0.773010 0.671553 0.000000 -0.740957
0.707107 0.034000 -0.707107 0.671553 0.000000 -0.740957
0.707107 0.000000 -0.707107 0.671553 0.000000 -0.740957
0.707107 0.034000 -0.707107 0.740952 0.000000 -0.671558
0.773011 0.013456 -0.634393 0.740952 0.000000 -0.671558
0.707107 0.000000 -0.707107 0.740952 0.000000 -0.671558
0.290285 0.013456 -0.956940 0.336882 0.000000 -0.941547
0.382684 0.034000 -0.923880 0.336882 0.000000 -0.941547
0.382684 0.000000 -0.923880 0.336882 0.000000 -0.941547
0.382684 0.034000 -0.923880 0.427562 0.000000 -0.903986
0.471397 0.013456 -0.881921 0.427562 0.000000 -0.903986
0.382684 0.000000 -0.923880 0.427562 0.000000 -0.903986
-0.098017 0.013456 -0.995185 -0.049065 0.000000 -0.998796
0.000000 0.034000 -1.000000 -0.049065 0.000000 -0.998796
0.000000 0.000000 -1.000000 -0.049065 0.000000 -0.998796
0.000000 0.034000 -1.000000 0.049065 0.000000 -0.998796
0.098017 0.013456 -0.995185 0.049065 0.000000 -0.998796
0.000000 0.000000 -1.000000 0.049065 0.000000 -0.998796
-0.471397 0.013456 -0.881921 -0.427554 0.000000 -0.903990
-0.382684 0.034000 -0.923879 -0.427554 0.000000 -0.903990
-0.382684 0.000000 -0.923879 -0.427554 0.000000 -0.903990
-0.382684 0.034000 -0.923879 -0.336891 0.000000 -0.941544
-0.290285 0.013456 -0.956940 -0.336891 0.000000 -0.941544
-0.382684 0.000000 -0.923879 -0.336891 0.000000 -0.941544
-0.773011 0.013456 -0.634393 -0.740952 0.000000 -0.671558
-0.707107 0.034000 -0.707107 -0.740952 0.000000 -0.671558
-0.707107 0.000000 -0.707107 -0.740952 0.000000 -0.671558
-0.707107 0.034000 -0.707107 -0.671553 0.000000 -0.740957
-0.634393 0.013456 -0.773010 -0.671553 0.000000 -0.740957
-0.707107 0.000000 -0.707107 -0.671553 0.000000 -0.740957
-0.956940 0.013456 -0.290285 -0.941546 0.000000 -0.336885
-0.923880 0.034000 -0.382683 -0.941546 0.000000 -0.336885
-0.923880 0.000000 -0.382683 -0.941546 0.000000 -0.336885
-0.923880 0.034000 -0.382683 -0.903988 0.000000 -0.427558
-0.881921 0.013456 -0.471397 -0.903988 0.000000 -0.427558
-0.923880 0.000000 -0.382683 -0.903988 0.000000 -0.427558
-0.980785 0.017869 0.195090 -0.989176 0.000000 0.146736
-0.995185 0.022016 0.098017 -0.989176 0.000000 0.146736
-0.995185 0.013456 0.098017 -0.989176 0.000000 0.146736
-0.980785 0.017869 0.195090 -0.970031 0.000000 0.242979
-0.956940 0.022016 0.290285 -0.970031 0.000000 0.242979
-0.980785 0.018086 0.195090 -0.970031 0.000000 0.242979
-0.831470 0.017869 0.555570 -0.857730 0.000000 0.514100
-0.881921 0.022016 0.471397 -0.857730 0.000000 0.514100
-0.881921 0.013456 0.471397 -0.857730 0.000000 0.514100
-0.831470 0.017869 0.555570 -0.803203 0.000000 0.595705
-0.773010 0.022016 0.634393 -0.803203 0.000000 0.595705
-0.831470 0.018086 0.555570 -0.803203 0.000000 0.595705
-0.555570 0.017869 0.831470 -0.595705 0.000000 0.803203
-0.634393 0.022016 0.773010 -0.595705 0.000000 0.803203
-0.634393 0.013456 0.773010 -0.595705 0.000000 0.803203
-0.555570 0.017869 0.831470 -0.514100 0.000000 0.857730
-0.471397 0.022016 0.881921 -0.514100 0.000000 0.857730
-0.555570 0.018086 0.831470 -0.514100 0.000000 0.857730
-0.195090 0.017869 0.980785 -0.242979 0.000000 0.970031
-0.290285 0.022016 0.956940 -0.242979 0.000000 0.970031
-0.290285 0.013456 0.956940 -0.242979 0.000000 0.970031
-0.195090 0.017869 0.980785 -0.146736 0.000000 0.989176
-0.098017 0.022016 0.995185 -0.146736 0.000000 0.989176
-0.195090 0.018086 0.980785 -0.146736 0.000000 0.989176
0.195090 0.017869 0.980785 0.146736 -0.000000 0.989176
0.098017 0.022016 0.995185 0.146736 -0.000000 0.989176
0.098017 0.013456 0.995185 0.146736 -0.000000 0.989176
0.195090 0.017869 0.980785 0.242979 0.000000 0.970031
0.290285 0.022016 0.956940 0.242979 0.000000 0.970031
0.195090 0.018086 0.980785 0.242979 0.000000 0.970031
0.555570 0.017869 0.831470 0.514100 -0.000000 0.857730
0.471397 0.022016 0.881921 0.514100 -0.000000 0.857730
0.471397 0.013456 0.881921 0.514100 -0.000000 0.857730
0.555570 0.017869 0.831470 0.595705 0.000000 0.803203
0.634393 0.022016 0.773010 0.595705 0.000000 0.803203
0.555570 0.018086 0.831470 0.595705 0.000000 0.803203
0.831470 0.017869 0.555570 0.803203 -0.000000 0.595705
0.773010 0.022016 0.634393 0.803203 -0.000000 0.595705
0.773010 0.013456 0.634393 0.803203 -0.000000 0.595705
0.831470 0.017869 0.555570 0.857730 0.000000 0.514100
0.881921 0.022016 0.471397 0.857730 0.000000 0.514100
0.831470 0.018086 0.555570 0.857730 0.000000 0.514100
0.980785 0.017869 0.195090 0.970031 -0.000000 0.242979
0.956940 0.022016 0.290285 0.970031 -0.000000 0.242979
0.956940 0.013456 0.290285 0.970031 -0.000000 0.242979
0.980785 0.017869 0.195090 0.989176 0.000000 0.146736
0.995185 0.022016 0.098017 0.989176 0.000000 0.146736
0.980785 0.018086 0.195090 0.989176 0.000000 0.146736
0.980785 0.017869 -0.195090 0.989176 0.000000 -0.146736
0.995185 0.022016 -0.098017 0.989176 0.000000 -0.146736
0.995185 0.013456 -0.098017 0.989176 0.000000 -0.146736
0.980785 0.017869 -0.195090 0.970031 0.000000 -0.242979
0.956940 0.022016 -0.290285 0.970031 0.000000 -0.242979
0.980785 0.018086 -0.195090 0.970031 0.000000 -0.242979
0.831470 0.017869 -0.555570 0.857730 0.000000 -0.514100
0.881921 0.022016 -0.471397 0.857730 0.000000 -0.514100
0.881921 0.013456 -0.471397 0.857730 0.000000 -0.514100
0.831470 0.017869 -0.555570 0.803208 0.000000 -0.595698
0.773011 0.022016 -0.634393 0.803208 0.000000 -0.595698
0.831470 0.018086 -0.555570 0.803208 0.000000 -0.595698
0.555570 0.017869 -0.831469 0.595699 0.000000 -0.803208
0.634393 0.022016 -0.773010 0.595699 0.000000 -0.803208
0.634393 0.013456 -0.773010 0.595699 0.000000 -0.803208
0.555570 0.017869 -0.831469 0.514108 0.000000 -0.857726
0.471397 0.022016 -0.881921 0.514108 0.000000 -0.857726
0.555570 0.018086 -0.831469 0.514108 0.000000 -0.857726
0.195090 0.017869 -0.980785 0.242979 0.000000 -0.970031
0.290285 0.022016 -0.956940 0.242979 0.000000 -0.970031
0.290285 0.013456 -0.956940 0.242979 0.000000 -0.970031
0.195090 0.017869 -0.980785 0.146736 0.000000 -0.989176
0.098017 0.022016 -0.995185 0.146736 0.000000 -0.989176
0.195090 0.018086 -0.980785 0.146736 0.000000 -0.989176
-0.195090 0.017869 -0.980785 -0.146736 0.000000 -0.989176
-0.098017 0.022016 -0.995185 -0.146736 0.000000 -0.989176
-0.098017 0.013456 -0.995185 -0.146736 0.000000 -0.989176
-0.195090 0.017869 -0.980785 -0.242979 0.000000 -0.970031
-0.290285 0.022016 -0.956940 -0.242979 0.000000 -0.970031
-0.195090 0.018086 -0.980785 -0.242979 0.000000 -0.970031
-0.555570 0.017869 -0.831470 -0.514100 0.000000 -0.857730
-0.471397 0.022016 -0.881921 -0.514100 0.000000 -0.857730
-0.471397 0.013456 -0.881921 -0.514100 0.000000 -0.857730
-0.555570 0.017869 -0.831470 -0.595705 0.000000 -0.803203
-0.634393 0.022016 -0.773010 -0.595705 0.000000 -0.803203
-0.555570 0.018086 -0.831470 -0.595705 0.000000 -0.803203
-0.831470 0.017869 -0.555570 -0.803208 0.000000 -0.595699
-0.773011 0.022016 -0.634393 -0.803208 0.000000 -0.595699
-0.773011 0.013456 -0.634393 -0.803208 0.000000 -0.595699
-0.831470 0.017869 -0.555570 -0.857730 0.000000 -0.514100
-0.881921 0.022016 -0.471397 -0.857730 0.000000 -0.514100
-0.831470 0.018086 -0.555570 -0.857730 0.000000 -0.514100
-0.980785 0.017869 -0.195090 -0.970031 0.000000 -0.242979
-0.956940 0.022016 -0.290285 -0.970031 0.000000 -0.242979
-0.956940 0.013456 -0.290285 -0.970031 0.000000 -0.242979
-0.980785 0.017869 -0.195090 -0.989176 0.000000 -0.146736
-0.995185 0.022016 -0.098017 -0.989176 0.000000 -0.146736
-0.980785 0.018086 -0.195090 -0.989176 0.000000 -0.146736
-0.980785 0.018086 -0.195090 -0.625572 0.770252 -0.123982
-0.995185 0.022016 -0.098017 -0.625572 0.770252 -0.123982
-0.647500 0.277000 -0.268203 -0.625572 0.770252 -0.123982
-0.881921 0.022016 -0.471397 -0.530150 0.770114 -0.354776
-0.923880 0.034000 -0.382683 -0.530150 0.770114 -0.354776
-0.647500 0.277000 -0.268203 -0.530150 0.770114 -0.354776
-0.773010 0.022016 0.634393 -0.530801 0.769935 0.354189
-0.707107 0.034000 0.707107 -0.530801 0.769935 0.354189
-0.647500 0.277000 0.268203 -0.530801 0.769935 0.354189
-0.980785 0.018086 0.195090 -0.625626 0.770057 0.124920
-0.956940 0.022016 0.290285 -0.625626 0.770057 0.124920
-0.647500 0.277000 0.268203 -0.625626 0.770057 0.124920
-0.098017 0.022016 0.995185 -0.124877 0.769938 0.625780
0.000000 0.034000 1.000000 -0.124877 0.769938 0.625780
-0.268203 0.277000 0.647500 -0.124877 0.769938 0.625780
-0.555570 0.018086 0.831470 -0.354051 0.770057 0.530717
-0.471397 0.022016 0.881921 -0.354051 0.770057 0.530717
-0.268203 0.277000 0.647500 -0.354051 0.770057 0.530717
0.634393 0.022016 0.773010 0.354189 0.769935 0.530801
0.707107 0.034000 0.707107 0.354189 0.769935 0.530801
0.268203 0.277000 0.647500 0.354189 0.769935 0.530801
0.195090 0.018086 0.980785 0.124920 0.770057 0.625626
0.290285 0.022016 0.956940 0.124920 0.770057 0.625626
0.268203 0.277000 0.647500 0.124920 0.770057 0.625626
0.995185 0.022016 0.098017 0.625780 0.769938 0.124877
1.000000 0.034000 0.000000 0.625780 0.769938 0.124877
0.647500 0.277000 0.268203 0.625780 0.769938 0.124877
0.831470 0.018086 0.555570 0.530717 0.770057 0.354051
0.881921 0.022016 0.471397 0.530717 0.770057 0.354051
0.647500 0.277000 0.268203 0.530717 0.770057 0.354051
0.773011 0.022016 -0.634393 0.530796 0.769938 -0.354191
0.707107 0.034000 -0.707107 0.530796 0.769938 -0.354191
0.647500 0.277000 -0.268203 0.530796 0.769938 -0.354191
0.980785 0.018086 -0.195090 0.625626 0.770057 -0.124920
0.956940 0.022016 -0.290285 0.625626 0.770057 -0.124920
0.647500 0.277000 -0.268203 0.625626 0.770057 -0.124920
0.098017 0.022016 -0.995185 0.124877 0.769938 -0.625780
0.000000 0.034000 -1.000000 0.124877 0.769938 -0.625780
0.268203 0.277000 -0.647500 0.124877 0.769938 -0.625780
0.555570 0.018086 -0.831469 0.354055 0.770057 -0.530713
0.471397 0.022016 -0.881921 0.354055 0.770057 -0.530713
0.268203 0.277000 -0.647500 0.354055 0.770057 -0.530713
-0.634393 0.022016 -0.773010 -0.354189 0.769935 -0.530801
-0.707107 0.034000 -0.707107 -0.354189 0.769935 -0.530801
-0.268203 0.277000 -0.647500 -0.354189 0.769935 -0.530801
-0.195090 0.018086 -0.980785 -0.124920 0.770057 -0.625626
-0.290285 0.022016 -0.956940 -0.124920 0.770057 -0.625626
-0.268203 0.277000 -0.647500 -0.124920 0.770057 -0.625626
-0.530000 0.358000 0.000000 -0.330843 0.933683 0.137039
-0.647500 0.277000 0.268203 -0.330843 0.933683 0.137039
-0.374767 0.358000 0.374767 -0.330843 0.933683 0.137039
-0.374767 0.358000 0.374767 -0.401331 0.823326 0.401333
-0.707107 0.034000 0.707107 -0.401331 0.823326 0.401333
-0.268203 0.277000 0.647500 -0.401331 0.823326 0.401333
-0.374767 0.358000 0.374767 -0.137039 0.933683 0.330843
-0.268203 0.277000 0.647500 -0.137039 0.933683 0.330843
0.000000 0.358000 0.530000 -0.137039 0.933683 0.330843
0.000000 0.358000 0.530000 0.000000 0.823326 0.567569
0.000000 0.034000 1.000000 0.000000 0.823326 0.567569
0.268203 0.277000 0.647500 0.000000 0.823326 0.567569
0.000000 0.358000 0.530000 0.137039 0.933683 0.330843
0.268203 0.277000 0.647500 0.137039 0.933683 0.330843
0.374767 0.358000 0.374767 0.137039 0.933683 0.330843
0.374767 0.358000 0.374767 0.401333 0.823326 0.401331
0.707107 0.034000 0.707107 0.401333 0.823326 0.401331
0.647500 0.277000 0.268203 0.401333 0.823326 0.401331
0.374767 0.358000 0.374767 0.330843 0.933683 0.137039
0.647500 0.277000 0.268203 0.330843 0.933683 0.137039
0.530000 0.358000 0.000000 0.330843 0.933683 0.137039
0.530000 0.358000 0.000000 0.567569 0.823326 0.000000
1.000000 0.034000 0.000000 0.567569 0.823326 0.000000
0.647500 0.277000 -0.268203 0.567569 0.823326 0.000000
0.530000 0.358000 0.000000 0.330843 0.933683 -0.137039
0.647500 0.277000 -0.268203 0.330843 0.933683 -0.137039
0.374767 0.358000 -0.374767 0.330843 0.933683 -0.137039
0.374767 0.358000 -0.374767 0.401331 0.823326 -0.401333
0.707107 0.034000 -0.707107 0.401331 0.823326 -0.401333
0.268203 0.277000 -0.647500 0.401331 0.823326 -0.401333
0.374767 0.358000 -0.374767 0.137039 0.933683 -0.330843
0.268203 0.277000 -0.647500 0.137039 0.933683 -0.330843
0.000000 0.358000 -0.530000 0.137039 0.933683 -0.330843
0.000000 0.358000 -0.530000 0.000000 0.823326 -0.567569
0.000000 0.034000 -1.000000 0.000000 0.823326 -0.567569
-0.268203 0.277000 -0.647500 0.000000 0.823326 -0.567569
0.000000 0.358000 -0.530000 -0.137039 0.933683 -0.330842
-0.268203 0.277000 -0.647500 -0.137039 0.933683 -0.330842
-0.374766 0.358000 -0.374767 -0.137039 0.933683 -0.330842
-0.374766 0.358000 -0.374767 -0.401332 0.823326 -0.401331
-0.707107 0.034000 -0.707107 -0.401332 0.823326 -0.401331
-0.647500 0.277000 -0.268203 -0.401332 0.823326 -0.401331
-0.374766 0.358000 -0.374767 -0.330842 0.933683 -0.137039
-0.647500 0.277000 -0.268203 -0.330842 0.933683 -0.137039
-0.530000 0.358000 0.000000 -0.330842 0.933683 -0.137039
-1.000000 0.034000 0.000000 -0.567569 0.823326 0.000000
-0.530000 0.358000 0.000000 -0.567569 0.823326 0.000000
-0.647500 0.277000 -0.268203 -0.567569 0.823326 0.000000
0.374767 0.358000 0.374767 0.000000 1.000000 0.000000
0.374767 0.358000 -0.374767 0.000000 1.000000 0.000000
-0.374766 0.358000 -0.374767 0.000000 1.000000 0.000000
-0.980785 0.017869 0.195090 -0.667972 -0.732318 0.132380
-0.995185 0.013456 0.098017 -0.667972 -0.732318 0.132380
-0.400000 -0.517200 0.165685 -0.667972 -0.732318 0.132380
-0.956940 0.013456 -0.290285 -0.668059 -0.732236 -0.132395
-0.923880 0.000000 -0.382683 -0.668059 -0.732236 -0.132395
-0.400000 -0.517200 -0.165685 -0.668059 -0.732236 -0.132395
-0.555570 0.017869 0.831470 -0.378727 -0.732319 0.565928
-0.634393 0.013456 0.773010 -0.378727 -0.732319 0.565928
-0.165685 -0.517200 0.400000 -0.378727 -0.732319 0.565928
-0.881921 0.013456 0.471397 -0.566008 -0.732236 0.378769
-0.923880 0.000000 0.382683 -0.566008 -0.732236 0.378769
-0.400000 -0.517200 0.165685 -0.566008 -0.732236 0.378769
0.195090 0.017869 0.980785 0.132380 -0.732318 0.667972
0.098017 0.013456 0.995185 0.132380 -0.732318 0.667972
0.165685 -0.517200 0.400000 0.132380 -0.732318 0.667972
-0.290285 0.013456 0.956940 -0.132395 -0.732235 0.668059
-0.382683 0.000000 0.923880 -0.132395 -0.732235 0.668059
-0.165685 -0.517200 0.400000 -0.132395 -0.732235 0.668059
0.831470 0.017869 0.555570 0.565928 -0.732319 0.378728
0.773010 0.013456 0.634393 0.565928 -0.732319 0.378728
0.400000 -0.517200 0.165685 0.565928 -0.732319 0.378728
0.471397 0.013456 0.881921 0.378769 -0.732236 0.566008
0.382683 0.000000 0.923880 0.378769 -0.732236 0.566008
0.165685 -0.517200 0.400000 0.378769 -0.732236 0.566008
0.980785 0.017869 -0.195090 0.667972 -0.732318 -0.132380
0.995185 0.013456 -0.098017 0.667972 -0.732318 -0.132380
0.400000 -0.517200 -0.165685 0.667972 -0.732318 -0.132380
0.956940 0.013456 0.290285 0.668059 -0.732236 0.132395
0.923880 0.000000 0.382683 0.668059 -0.732236 0.132395
0.400000 -0.517200 0.165685 0.668059 -0.732236 0.132395
0.555570 0.017869 -0.831469 0.378723 -0.732318 -0.565932
0.634393 0.013456 -0.773010 0.378723 -0.732318 -0.565932
0.165685 -0.517200 -0.400000 0.378723 -0.732318 -0.565932
0.881921 0.013456 -0.471397 0.566008 -0.732236 -0.378769
0.923880 0.000000 -0.382683 0.566008 -0.732236 -0.378769
0.400000 -0.517200 -0.165685 0.566008 -0.732236 -0.378769
-0.195090 0.017869 -0.980785 -0.132380 -0.732318 -0.667972
-0.098017 0.013456 -0.995185 -0.132380 -0.732318 -0.667972
-0.165686 -0.517200 -0.400000 -0.132380 -0.732318 -0.667972
0.290285 0.013456 -0.956940 0.132394 -0.732236 -0.668059
0.382684 0.000000 -0.923880 0.132394 -0.732236 -0.668059
0.165685 -0.517200 -0.400000 0.132394 -0.732236 -0.668059
-0.831470 0.017869 -0.555570 -0.565932 -0.732319 -0.378723
-0.773011 0.013456 -0.634393 -0.565932 -0.732319 -0.378723
-0.400000 -0.517200 -0.165685 -0.565932 -0.732319 -0.378723
-0.471397 0.013456 -0.881921 -0.378767 -0.732235 -0.566009
-0.382684 0.000000 -0.923879 -0.378767 -0.732235 -0.566009
-0.165686 -0.517200 -0.400000 -0.378767 -0.732235 -0.566009
-0.400000 -0.517200 -0.165685 -0.652910 -0.757436 -0.000000
-0.400000 -0.517200 0.165685 -0.652910 -0.757436 -0.000000
-1.000000 0.000000 0.000000 -0.652910 -0.757436 -0.000000
-0.400000 -0.517200 0.165685 -0.461677 -0.757436 0.461677
-0.165685 -0.517200 0.400000 -0.461677 -0.757436 0.461677
-0.707107 0.000000 0.707107 -0.461677 -0.757436 0.461677
-0.165685 -0.517200 0.400000 0.000000 -0.757436 0.652910
0.165685 -0.517200 0.400000 0.000000 -0.757436 0.652910
0.000000 0.000000 1.000000 0.000000 -0.757436 0.652910
0.165685 -0.517200 0.400000 0.461677 -0.757436 0.461677
0.400000 -0.517200 0.165685 0.461677 -0.757436 0.461677
0.707107 0.000000 0.707107 0.461677 -0.757436 0.461677
0.400000 -0.517200 0.165685 0.652910 -0.757436 0.000000
0.400000 -0.517200 -0.165685 0.652910 -0.757436 0.000000
1.000000 0.000000 0.000000 0.652910 -0.757436 0.000000
0.400000 -0.517200 -0.165685 0.461677 -0.757436 -0.461677
0.165685 -0.517200 -0.400000 0.461677 -0.757436 -0.461677
0.707107 0.000000 -0.707107 0.461677 -0.757436 -0.461677
0.165685 -0.517200 -0.400000 0.000000 -0.757436 -0.652910
-0.165686 -0.517200 -0.400000 0.000000 -0.757436 -0.652910
0.000000 0.000000 -1.000000 0.000000 -0.757436 -0.652910
-0.165686 -0.517200 -0.400000 -0.461678 -0.757436 -0.461676
-0.400000 -0.517200 -0.165685 -0.461678 -0.757436 -0.461676
-0.707107 0.000000 -0.707107 -0.461678 -0.757436 -0.461676
-0.995185 0.022016 0.098017 -0.998796 0.000000 0.049065
-0.995185 0.022016 -0.098017 -0.998796 0.000000 -0.049065
-0.881921 0.022016 0.471397 -0.903988 0.000000 0.427558
-0.956940 0.022016 0.290285 -0.941546 0.000000 0.336885
-0.634393 0.022016 0.773010 -0.671553 0.000000 0.740957
-0.773010 0.022016 0.634393 -0.740957 0.000000 0.671553
-0.290285 0.022016 0.956940 -0.336885 0.000000 0.941546
-0.471397 0.022016 0.881921 -0.427558 0.000000 0.903988
0.098017 0.022016 0.995185 0.049065 0.000000 0.998796
0.000000 0.034000 1.000000 -0.049065 0.000000 0.998796
-0.098017 0.022016 0.995185 -0.049065 0.000000 0.998796
-0.098017 0.013456 0.995185 -0.049065 0.000000 0.998796
0.471397 0.022016 0.881921 0.427558 0.000000 0.903988
0.290285 0.022016 0.956940 0.336885 -0.000000 0.941546
0.773010 0.022016 0.634393 0.740957 0.000000 0.671553
0.634393 0.022016 0.773010 0.671553 -0.000000 0.740957
0.956940 0.022016 0.290285 0.941546 0.000000 0.336885
0.881921 0.022016 0.471397 0.903988 -0.000000 0.427558
0.995185 0.022016 -0.098017 0.998796 0.000000 -0.049065
1.000000 0.034000 0.000000 0.998796 -0.000000 0.049065
0.995185 0.022016 0.098017 0.998796 -0.000000 0.049065
0.995185 0.013456 0.098017 0.998796 -0.000000 0.049065
0.881921 0.022016 -0.471397 0.903988 0.000000 -0.427558
0.956940 0.022016 -0.290285 0.941546 0.000000 -0.336885
0.634393 0.022016 -0.773010 0.671553 0.000000 -0.740957
0.773011 0.022016 -0.634393 0.740952 0.000000 -0.671558
0.290285 0.022016 -0.956940 0.336882 0.000000 -0.941547
0.471397 0.022016 -0.881921 0.427562 0.000000 -0.903986
-0.098017 0.022016 -0.995185 -0.049065 -0.000000 -0.998796
0.098017 0.022016 -0.995185 0.049065 0.000000 -0.998796
-0.471397 0.022016 -0.881921 -0.427554 -0.000000 -0.903990
-0.290285 0.022016 -0.956940 -0.336891 0.000000 -0.941544
-0.773011 0.022016 -0.634393 -0.740952 -0.000000 -0.671558
-0.634393 0.022016 -0.773010 -0.671553 0.000000 -0.740957
-0.956940 0.022016 -0.290285 -0.941546 -0.000000 -0.336885
-0.881921 0.022016 -0.471397 -0.903988 0.000000 -0.427558
-0.980785 0.018086 0.195090 -0.989176 0.000000 0.146736
-0.956940 0.013456 0.290285 -0.970031 0.000000 0.242979
-0.831470 0.017869 0.555570 -0.857730 0.000000 0.514100
-0.831470 0.018086 0.555570 -0.857730 0.000000 0.514100
-0.881921 0.022016 0.471397 -0.857730 0.000000 0.514100
-0.773010 0.013456 0.634393 -0.803203 0.000000 0.595705
-0.555570 0.018086 0.831470 -0.595705 0.000000 0.803203
-0.555570 0.017869 0.831470 -0.514100 0.000000 0.857730
-0.471397 0.013456 0.881921 -0.514100 0.000000 0.857730
-0.471397 0.022016 0.881921 -0.514100 0.000000 0.857730
-0.195090 0.018086 0.980785 -0.242979 0.000000 0.970031
-0.195090 0.017869 0.980785 -0.146736 0.000000 0.989176
-0.098017 0.013456 0.995185 -0.146736 0.000000 0.989176
-0.098017 0.022016 0.995185 -0.146736 0.000000 0.989176
0.195090 0.017869 0.980785 0.146736 0.000000 0.989176
0.195090 0.018086 0.980785 0.146736 0.000000 0.989176
0.098017 0.022016 0.995185 0.146736 0.000000 0.989176
0.195090 0.017869 0.980785 0.242979 0.000000 0.970031
0.290285 0.013456 0.956940 0.242979 0.000000 0.970031
0.290285 0.022016 0.956940 0.242979 0.000000 0.970031
0.555570 0.018086 0.831470 0.514100 0.000000 0.857730
0.555570 0.017869 0.831470 0.595705 0.000000 0.803203
0.634393 0.013456 0.773010 0.595705 0.000000 0.803203
0.634393 0.022016 0.773010 0.595705 0.000000 0.803203
0.831470 0.018086 0.555570 0.803203 0.000000 0.595705
0.831470 0.017869 0.555570 0.857730 0.000000 0.514100
0.881921 0.013456 0.471397 0.857730 0.000000 0.514100
0.881921 0.022016 0.471397 0.857730 0.000000 0.514100
0.980785 0.018086 0.195090 0.970031 0.000000 0.242979
0.995185 0.013456 0.098017 0.989176 0.000000 0.146736
0.980785 0.018086 -0.195090 0.989176 0.000000 -0.146736
0.980785 0.017869 -0.195090 0.970031 0.000000 -0.242979
0.956940 0.013456 -0.290285 0.970031 0.000000 -0.242979
0.956940 0.022016 -0.290285 0.970031 0.000000 -0.242979
0.831470 0.017869 -0.555570 0.857730 0.000000 -0.514100
0.831470 0.018086 -0.555570 0.857730 0.000000 -0.514100
0.881921 0.022016 -0.471397 0.857730 0.000000 -0.514100
0.831470 0.017869 -0.555570 0.803208 0.000000 -0.595699
0.773011 0.013456 -0.634393 0.803208 0.000000 -0.595699
0.773011 0.022016 -0.634393 0.803208 0.000000 -0.595699
0.555570 0.018086 -0.831469 0.595699 0.000000 -0.803208
0.471397 0.013456 -0.881921 0.514108 0.000000 -0.857726
0.195090 0.018086 -0.980785 0.242979 0.000000 -0.970031
0.098017 0.013456 -0.995185 0.146736 0.000000 -0.989176
-0.195090 0.017869 -0.980785 -0.146736 -0.000000 -0.989176
-0.195090 0.018086 -0.980785 -0.146736 -0.000000 -0.989176
-0.098017 0.022016 -0.995185 -0.146736 -0.000000 -0.989176
-0.195090 0.017869 -0.980785 -0.242979 -0.000000 -0.970031
-0.290285 0.013456 -0.956940 -0.242979 -0.000000 -0.970031
-0.290285 0.022016 -0.956940 -0.242979 -0.000000 -0.970031
-0.555570 0.018086 -0.831470 -0.514100 -0.000000 -0.857730
-0.634393 0.013456 -0.773010 -0.595705 -0.000000 -0.803203
-0.831470 0.018086 -0.555570 -0.803208 -0.000000 -0.595699
-0.831470 0.017869 -0.555570 -0.857730 -0.000000 -0.514100
-0.881921 0.013456 -0.471397 -0.857730 -0.000000 -0.514100
-0.881921 0.022016 -0.471397 -0.857730 -0.000000 -0.514100
-0.980785 0.018086 -0.195090 -0.970031 -0.000000 -0.242979
-0.995185 0.013456 -0.098017 -0.989176 -0.000000 -0.146736
-0.995185 0.022016 -0.098017 -0.625780 0.769938 -0.124877
-1.000000 0.034000 0.000000 -0.625780 0.769938 -0.124877
-0.647500 0.277000 -0.268203 -0.625780 0.769938 -0.124877
-0.647500 0.277000 -0.268203 -0.625738 0.770114 -0.124006
-0.923880 0.034000 -0.382683 -0.625738 0.770114 -0.124006
-0.956940 0.022016 -0.290285 -0.625738 0.770114 -0.124006
-0.956940 0.022016 -0.290285 -0.625626 0.770057 -0.124920
-0.980785 0.018086 -0.195090 -0.625626 0.770057 -0.124920
-0.647500 0.277000 -0.268203 -0.625626 0.770057 -0.124920
-0.647500 0.277000 -0.268203 -0.530796 0.769938 -0.354191
-0.707107 0.034000 -0.707107 -0.530796 0.769938 -0.354191
-0.773011 0.022016 -0.634393 -0.530796 0.769938 -0.354191
-0.773011 0.022016 -0.634393 -0.530012 0.770253 -0.354679
-0.831470 0.018086 -0.555570 -0.530012 0.770253 -0.354679
-0.647500 0.277000 -0.268203 -0.530012 0.770253 -0.354679
-0.831470 0.018086 -0.555570 -0.530717 0.770057 -0.354051
-0.881921 0.022016 -0.471397 -0.530717 0.770057 -0.354051
-0.647500 0.277000 -0.268203 -0.530717 0.770057 -0.354051
-0.647500 0.277000 0.268203 -0.530150 0.770114 0.354776
-0.923880 0.034000 0.382683 -0.530150 0.770114 0.354776
-0.881921 0.022016 0.471397 -0.530150 0.770114 0.354776
-0.881921 0.022016 0.471397 -0.530717 0.770057 0.354051
-0.831470 0.018086 0.555570 -0.530717 0.770057 0.354051
-0.647500 0.277000 0.268203 -0.530717 0.770057 0.354051
-0.831470 0.018086 0.555570 -0.530008 0.770254 0.354683
-0.773010 0.022016 0.634393 -0.530008 0.770254 0.354683
-0.647500 0.277000 0.268203 -0.530008 0.770254 0.354683
-0.956940 0.022016 0.290285 -0.625738 0.770114 0.124006
-0.923880 0.034000 0.382683 -0.625738 0.770114 0.124006
-0.647500 0.277000 0.268203 -0.625738 0.770114 0.124006
-0.647500 0.277000 0.268203 -0.625780 0.769938 0.124877
-1.000000 0.034000 0.000000 -0.625780 0.769938 0.124877
-0.995185 0.022016 0.098017 -0.625780 0.769938 0.124877
-0.995185 0.022016 0.098017 -0.625572 0.770252 0.123982
-0.980785 0.018086 0.195090 -0.625572 0.770252 0.123982
-0.647500 0.277000 0.268203 -0.625572 0.770252 0.123982
-0.268203 0.277000 0.647500 -0.124005 0.770113 0.625738
-0.382683 0.034000 0.923880 -0.124005 0.770113 0.625738
-0.290285 0.022016 0.956940 -0.124005 0.770113 0.625738
-0.290285 0.022016 0.956940 -0.124920 0.770057 0.625626
-0.195090 0.018086 0.980785 -0.124920 0.770057 0.625626
-0.268203 0.277000 0.647500 -0.124920 0.770057 0.625626
-0.195090 0.018086 0.980785 -0.123982 0.770252 0.625572
-0.098017 0.022016 0.995185 -0.123982 0.770252 0.625572
-0.268203 0.277000 0.647500 -0.123982 0.770252 0.625572
-0.471397 0.022016 0.881921 -0.354776 0.770114 0.530150
-0.382683 0.034000 0.923880 -0.354776 0.770114 0.530150
-0.268203 0.277000 0.647500 -0.354776 0.770114 0.530150
-0.268203 0.277000 0.647500 -0.354189 0.769935 0.530801
-0.707107 0.034000 0.707107 -0.354189 0.769935 0.530801
-0.634393 0.022016 0.773010 -0.354189 0.769935 0.530801
-0.634393 0.022016 0.773010 -0.354683 0.770254 0.530008
-0.555570 0.018086 0.831470 -0.354683 0.770254 0.530008
-0.268203 0.277000 0.647500 -0.354683 0.770254 0.530008
0.268203 0.277000 0.647500 0.354776 0.770114 0.530150
0.382683 0.034000 0.923880 0.354776 0.770114 0.530150
0.471397 0.022016 0.881921 0.354776 0.770114 0.530150
0.471397 0.022016 0.881921 0.354051 0.770057 0.530717
0.555570 0.018086 0.831470 0.354051 0.770057 0.530717
0.268203 0.277000 0.647500 0.354051 0.770057 0.530717
0.555570 0.018086 0.831470 0.354683 0.770254 0.530008
0.634393 0.022016 0.773010 0.354683 0.770254 0.530008
0.268203 0.277000 0.647500 0.354683 0.770254 0.530008
0.290285 0.022016 0.956940 0.124005 0.770113 0.625738
0.382683 0.034000 0.923880 0.124005 0.770113 0.625738
0.268203 0.277000 0.647500 0.124005 0.770113 0.625738
0.268203 0.277000 0.647500 0.124877 0.769938 0.625780
0.000000 0.034000 1.000000 0.124877 0.769938 0.625780
0.098017 0.022016 0.995185 0.124877 0.769938 0.625780
0.098017 0.022016 0.995185 0.123982 0.770252 0.625572
0.195090 0.018086 0.980785 0.123982 0.770252 0.625572
0.268203 0.277000 0.647500 0.123982 0.770252 0.625572
0.647500 0.277000 0.268203 0.625738 0.770114 0.124006
0.923880 0.034000 0.382683 0.625738 0.770114 0.124006
0.956940 0.022016 0.290285 0.625738 0.770114 0.124006
0.956940 0.022016 0.290285 0.625626 0.770057 0.124920
0.980785 0.018086 0.195090 0.625626 0.770057 0.124920
0.647500 0.277000 0.268203 0.625626 0.770057 0.124920
0.980785 0.018086 0.195090 0.625572 0.770252 0.123982
0.995185 0.022016 0.098017 0.625572 0.770252 0.123982
0.647500 0.277000 0.268203 0.625572 0.770252 0.123982
0.881921 0.022016 0.471397 0.530150 0.770114 0.354776
0.923880 0.034000 0.382683 0.530150 0.770114 0.354776
0.647500 0.277000 0.268203 0.530150 0.770114 0.354776
0.647500 0.277000 0.268203 0.530801 0.769935 0.354189
0.707107 0.034000 0.707107 0.530801 0.769935 0.354189
0.773010 0.022016 0.634393 0.530801 0.769935 0.354189
0.773010 0.022016 0.634393 0.530008 0.770254 0.354683
0.831470 0.018086 0.555570 0.530008 0.770254 0.354683
0.647500 0.277000 0.268203 0.530008 0.770254 0.354683
0.647500 0.277000 -0.268203 0.530150 0.770114 -0.354776
0.923880 0.034000 -0.382683 0.530150 0.770114 -0.354776
0.881921 0.022016 -0.471397 0.530150 0.770114 -0.354776
0.881921 0.022016 -0.471397 0.530717 0.770057 -0.354051
0.831470 0.018086 -0.555570 0.530717 0.770057 -0.354051
0.647500 0.277000 -0.268203 0.530717 0.770057 -0.354051
0.831470 0.018086 -0.555570 0.530012 0.770253 -0.354679
0.773011 0.022016 -0.634393 0.530012 0.770253 -0.354679
0.647500 0.277000 -0.268203 0.530012 0.770253 -0.354679
0.956940 0.022016 -0.290285 0.625738 0.770114 -0.124006
0.923880 0.034000 -0.382683 0.625738 0.770114 -0.124006
0.647500 0.277000 -0.268203 0.625738 0.770114 -0.124006
0.647500 0.277000 -0.268203 0.625780 0.769938 -0.124877
1.000000 0.034000 0.000000 0.625780 0.769938 -0.124877
0.995185 0.022016 -0.098017 0.625780 0.769938 -0.124877
0.995185 0.022016 -0.098017 0.625572 0.770252 -0.123982
0.980785 0.018086 -0.195090 0.625572 0.770252 -0.123982
0.647500 0.277000 -0.268203 0.625572 0.770252 -0.123982
0.268203 0.277000 -0.647500 0.124004 0.770114 -0.625738
0.382684 0.034000 -0.923880 0.124004 0.770114 -0.625738
0.290285 0.022016 -0.956940 0.124004 0.770114 -0.625738
0.290285 0.022016 -0.956940 0.124920 0.770057 -0.625626
0.195090 0.018086 -0.980785 0.124920 0.770057 -0.625626
0.268203 0.277000 -0.647500 0.124920 0.770057 -0.625626
0.195090 0.018086 -0.980785 0.123982 0.770252 -0.625572
0.098017 0.022016 -0.995185 0.123982 0.770252 -0.625572
0.268203 0.277000 -0.647500 0.123982 0.770252 -0.625572
0.471397 0.022016 -0.881921 0.354779 0.770114 -0.530148
0.382684 0.034000 -0.923880 0.354779 0.770114 -0.530148
0.268203 0.277000 -0.647500 0.354779 0.770114 -0.530148
0.268203 0.277000 -0.647500 0.354189 0.769935 -0.530801
0.707107 0.034000 -0.707107 0.354189 0.769935 -0.530801
0.634393 0.022016 -0.773010 0.354189 0.769935 -0.530801
0.634393 0.022016 -0.773010 0.354680 0.770252 -0.530013
0.555570 0.018086 -0.831469 0.354680 0.770252 -0.530013
0.268203 0.277000 -0.647500 0.354680 0.770252 -0.530013
-0.268203 0.277000 -0.647500 -0.354775 0.770114 -0.530151
-0.382684 0.034000 -0.923879 -0.354775 0.770114 -0.530151
-0.471397 0.022016 -0.881921 -0.354775 0.770114 -0.530151
-0.471397 0.022016 -0.881921 -0.354051 0.770057 -0.530717
-0.555570 0.018086 -0.831470 -0.354051 0.770057 -0.530717
-0.268203 0.277000 -0.647500 -0.354051 0.770057 -0.530717
-0.555570 0.018086 -0.831470 -0.354683 0.770254 -0.530008
-0.634393 0.022016 -0.773010 -0.354683 0.770254 -0.530008
-0.268203 0.277000 -0.647500 -0.354683 0.770254 -0.530008
-0.290285 0.022016 -0.956940 -0.124010 0.770113 -0.625737
-0.382684 0.034000 -0.923879 -0.124010 0.770113 -0.625737
-0.268203 0.277000 -0.647500 -0.124010 0.770113 -0.625737
-0.268203 0.277000 -0.647500 -0.124877 0.769938 -0.625780
0.000000 0.034000 -1.000000 -0.124877 0.769938 -0.625780
-0.098017 0.022016 -0.995185 -0.124877 0.769938 -0.625780
-0.098017 0.022016 -0.995185 -0.123982 0.770252 -0.625572
-0.195090 0.018086 -0.980785 -0.123982 0.770252 -0.625572
-0.268203 0.277000 -0.647500 -0.123982 0.770252 -0.625572
-0.374767 0.358000 0.374767 -0.401333 0.823326 0.401331
-0.647500 0.277000 0.268203 -0.401333 0.823326 0.401331
-0.707107 0.034000 0.707107 -0.401333 0.823326 0.401331
-0.268203 0.277000 0.647500 0.000000 0.823326 0.567569
0.374767 0.358000 0.374767 0.401331 0.823326 0.401333
0.268203 0.277000 0.647500 0.401331 0.823326 0.401333
0.707107 0.034000 0.707107 0.401331 0.823326 0.401333
0.647500 0.277000 0.268203 0.567569 0.823326 0.000000
0.374767 0.358000 -0.374767 0.401333 0.823326 -0.401331
0.647500 0.277000 -0.268203 0.401333 0.823326 -0.401331
0.707107 0.034000 -0.707107 0.401333 0.823326 -0.401331
0.268203 0.277000 -0.647500 0.000000 0.823326 -0.567569
-0.374766 0.358000 -0.374767 -0.401331 0.823326 -0.401332
-0.268203 0.277000 -0.647500 -0.401331 0.823326 -0.401332
-0.707107 0.034000 -0.707107 -0.401331 0.823326 -0.401332
-0.647500 0.277000 0.268203 -0.567569 0.823326 0.000000
-0.530000 0.358000 0.000000 0.000000 1.000000 0.000000
-0.374767 0.358000 0.374767 0.000000 1.000000 0.000000
0.000000 0.358000 0.530000 0.000000 1.000000 0.000000
0.530000 0.358000 0.000000 0.000000 1.000000 -0.000000
0.000000 0.358000 -0.530000 -0.000000 1.000000 0.000000
-0.995185 0.013456 0.098017 -0.667947 -0.732169 0.133326
-1.000000 0.000000 0.000000 -0.667947 -0.732169 0.133326
-0.400000 -0.517200 0.165685 -0.667947 -0.732169 0.133326
-0.400000 -0.517200 0.165685 -0.668059 -0.732236 0.132395
-0.923880 0.000000 0.382683 -0.668059 -0.732236 0.132395
-0.956940 0.013456 0.290285 -0.668059 -0.732236 0.132395
-0.956940 0.013456 0.290285 -0.667858 -0.732247 0.133344
-0.980785 0.017869 0.195090 -0.667858 -0.732247 0.133344
-0.400000 -0.517200 0.165685 -0.667858 -0.732247 0.133344
-0.400000 -0.517200 -0.165685 -0.667947 -0.732169 -0.133326
-1.000000 0.000000 0.000000 -0.667947 -0.732169 -0.133326
-0.995185 0.013456 -0.098017 -0.667947 -0.732169 -0.133326
-0.995185 0.013456 -0.098017 -0.667972 -0.732318 -0.132380
-0.980785 0.017869 -0.195090 -0.667972 -0.732318 -0.132380
-0.400000 -0.517200 -0.165685 -0.667972 -0.732318 -0.132380
-0.980785 0.017869 -0.195090 -0.667858 -0.732247 -0.133344
-0.956940 0.013456 -0.290285 -0.667858 -0.732247 -0.133344
-0.400000 -0.517200 -0.165685 -0.667858 -0.732247 -0.133344
-0.634393 0.013456 0.773010 -0.378029 -0.732168 0.566591
-0.707107 0.000000 0.707107 -0.378029 -0.732168 0.566591
-0.165685 -0.517200 0.400000 -0.378029 -0.732168 0.566591
-0.165685 -0.517200 0.400000 -0.378769 -0.732236 0.566008
-0.382683 0.000000 0.923880 -0.378769 -0.732236 0.566008
-0.471397 0.013456 0.881921 -0.378769 -0.732236 0.566008
-0.471397 0.013456 0.881921 -0.377956 -0.732247 0.566536
-0.555570 0.017869 0.831470 -0.377956 -0.732247 0.566536
-0.165685 -0.517200 0.400000 -0.377956 -0.732247 0.566536
-0.400000 -0.517200 0.165685 -0.566591 -0.732168 0.378029
-0.707107 0.000000 0.707107 -0.566591 -0.732168 0.378029
-0.773010 0.013456 0.634393 -0.566591 -0.732168 0.378029
-0.773010 0.013456 0.634393 -0.565928 -0.732319 0.378727
-0.831470 0.017869 0.555570 -0.565928 -0.732319 0.378727
-0.400000 -0.517200 0.165685 -0.565928 -0.732319 0.378727
-0.831470 0.017869 0.555570 -0.566536 -0.732247 0.377956
-0.881921 0.013456 0.471397 -0.566536 -0.732247 0.377956
-0.400000 -0.517200 0.165685 -0.566536 -0.732247 0.377956
0.098017 0.013456 0.995185 0.133326 -0.732169 0.667947
0.000000 0.000000 1.000000 0.133326 -0.732169 0.667947
0.165685 -0.517200 0.400000 0.133326 -0.732169 0.667947
0.165685 -0.517200 0.400000 0.132395 -0.732235 0.668059
0.382683 0.000000 0.923880 0.132395 -0.732235 0.668059
0.290285 0.013456 0.956940 0.132395 -0.732235 0.668059
0.290285 0.013456 0.956940 0.133344 -0.732247 0.667858
0.195090 0.017869 0.980785 0.133344 -0.732247 0.667858
0.165685 -0.517200 0.400000 0.133344 -0.732247 0.667858
-0.165685 -0.517200 0.400000 -0.133326 -0.732169 0.667947
0.000000 0.000000 1.000000 -0.133326 -0.732169 0.667947
-0.098017 0.013456 0.995185 -0.133326 -0.732169 0.667947
-0.098017 0.013456 0.995185 -0.132380 -0.732318 0.667972
-0.195090 0.017869 0.980785 -0.132380 -0.732318 0.667972
-0.165685 -0.517200 0.400000 -0.132380 -0.732318 0.667972
-0.195090 0.017869 0.980785 -0.133344 -0.732247 0.667858
-0.290285 0.013456 0.956940 -0.133344 -0.732247 0.667858
-0.165685 -0.517200 0.400000 -0.133344 -0.732247 0.667858
0.773010 0.013456 0.634393 0.566591 -0.732168 0.378029
0.707107 0.000000 0.707107 0.566591 -0.732168 0.378029
0.400000 -0.517200 0.165685 0.566591 -0.732168 0.378029
0.400000 -0.517200 0.165685 0.566008 -0.732236 0.378769
0.923880 0.000000 0.382683 0.566008 -0.732236 0.378769
0.881921 0.013456 0.471397 0.566008 -0.732236 0.378769
0.881921 0.013456 0.471397 0.566536 -0.732247 0.377956
0.831470 0.017869 0.555570 0.566536 -0.732247 0.377956
0.400000 -0.517200 0.165685 0.566536 -0.732247 0.377956
0.165685 -0.517200 0.400000 0.378029 -0.732168 0.566591
0.707107 0.000000 0.707107 0.378029 -0.732168 0.566591
0.634393 0.013456 0.773010 0.378029 -0.732168 0.566591
0.634393 0.013456 0.773010 0.378727 -0.732319 0.565928
0.555570 0.017869 0.831470 0.378727 -0.732319 0.565928
0.165685 -0.517200 0.400000 0.378727 -0.732319 0.565928
0.555570 0.017869 0.831470 0.377956 -0.732247 0.566536
0.471397 0.013456 0.881921 0.377956 -0.732247 0.566536
0.165685 -0.517200 0.400000 0.377956 -0.732247 0.566536
0.995185 0.013456 -0.098017 0.667947 -0.732169 -0.133326
1.000000 0.000000 0.000000 0.667947 -0.732169 -0.133326
0.400000 -0.517200 -0.165685 0.667947 -0.732169 -0.133326
0.400000 -0.517200 -0.165685 0.668059 -0.732236 -0.132395
0.923880 0.000000 -0.382683 0.668059 -0.732236 -0.132395
0.956940 0.013456 -0.290285 0.668059 -0.732236 -0.132395
0.956940 0.013456 -0.290285 0.667858 -0.732247 -0.133344
0.980785 0.017869 -0.195090 0.667858 -0.732247 -0.133344
0.400000 -0.517200 -0.165685 0.667858 -0.732247 -0.133344
0.400000 -0.517200 0.165685 0.667947 -0.732169 0.133326
1.000000 0.000000 0.000000 0.667947 -0.732169 0.133326
0.995185 0.013456 0.098017 0.667947 -0.732169 0.133326
0.995185 0.013456 0.098017 0.667972 -0.732318 0.132380
0.980785 0.017869 0.195090 0.667972 -0.732318 0.132380
0.400000 -0.517200 0.165685 0.667972 -0.732318 0.132380
0.980785 0.017869 0.195090 0.667858 -0.732247 0.133344
0.956940 0.013456 0.290285 0.667858 -0.732247 0.133344
0.400000 -0.517200 0.165685 0.667858 -0.732247 0.133344
0.634393 0.013456 -0.773010 0.378029 -0.732168 -0.566591
0.707107 0.000000 -0.707107 0.378029 -0.732168 -0.566591
0.165685 -0.517200 -0.400000 0.378029 -0.732168 -0.566591
0.165685 -0.517200 -0.400000 0.378772 -0.732236 -0.566006
0.382684 0.000000 -0.923880 0.378772 -0.732236 -0.566006
0.471397 0.013456 -0.881921 0.378772 -0.732236 -0.566006
0.471397 0.013456 -0.881921 0.377961 -0.732247 -0.566533
0.555570 0.017869 -0.831469 0.377961 -0.732247 -0.566533
0.165685 -0.517200 -0.400000 0.377961 -0.732247 -0.566533
0.400000 -0.517200 -0.165685 0.566586 -0.732169 -0.378032
0.707107 0.000000 -0.707107 0.566586 -0.732169 -0.378032
0.773011 0.013456 -0.634393 0.566586 -0.732169 -0.378032
0.773011 0.013456 -0.634393 0.565932 -0.732319 -0.378723
0.831470 0.017869 -0.555570 0.565932 -0.732319 -0.378723
0.400000 -0.517200 -0.165685 0.565932 -0.732319 -0.378723
0.831470 0.017869 -0.555570 0.566536 -0.732247 -0.377956
0.881921 0.013456 -0.471397 0.566536 -0.732247 -0.377956
0.400000 -0.517200 -0.165685 0.566536 -0.732247 -0.377956
-0.098017 0.013456 -0.995185 -0.133326 -0.732169 -0.667947
0.000000 0.000000 -1.000000 -0.133326 -0.732169 -0.667947
-0.165686 -0.517200 -0.400000 -0.133326 -0.732169 -0.667947
-0.165686 -0.517200 -0.400000 -0.132401 -0.732235 -0.668058
-0.382684 0.000000 -0.923879 -0.132401 -0.732235 -0.668058
-0.290285 0.013456 -0.956940 -0.132401 -0.732235 -0.668058
-0.290285 0.013456 -0.956940 -0.133344 -0.732247 -0.667858
-0.195090 0.017869 -0.980785 -0.133344 -0.732247 -0.667858
-0.165686 -0.517200 -0.400000 -0.133344 -0.732247 -0.667858
0.165685 -0.517200 -0.400000 0.133326 -0.732169 -0.667947
0.000000 0.000000 -1.000000 0.133326 -0.732169 -0.667947
0.098017 0.013456 -0.995185 0.133326 -0.732169 -0.667947
0.098017 0.013456 -0.995185 0.132380 -0.732318 -0.667972
0.195090 0.017869 -0.980785 0.132380 -0.732318 -0.667972
0.165685 -0.517200 -0.400000 0.132380 -0.732318 -0.667972
0.195090 0.017869 -0.980785 0.133344 -0.732247 -0.667858
0.290285 0.013456 -0.956940 0.133344 -0.732247 -0.667858
0.165685 -0.517200 -0.400000 0.133344 -0.732247 -0.667858
-0.773011 0.013456 -0.634393 -0.566586 -0.732169 -0.378032
-0.707107 0.000000 -0.707107 -0.566586 -0.732169 -0.378032
-0.400000 -0.517200 -0.165685 -0.566586 -0.732169 -0.378032
-0.400000 -0.517200 -0.165685 -0.566008 -0.732236 -0.378769
-0.923880 0.000000 -0.382683 -0.566008 -0.732236 -0.378769
-0.881921 0.013456 -0.471397 -0.566008 -0.732236 -0.378769
-0.881921 0.013456 -0.471397 -0.566536 -0.732247 -0.377956
-0.831470 0.017869 -0.555570 -0.566536 -0.732247 -0.377956
-0.400000 -0.517200 -0.165685 -0.566536 -0.732247 -0.377956
-0.165686 -0.517200 -0.400000 -0.378029 -0.732167 -0.566591
-0.707107 0.000000 -0.707107 -0.378029 -0.732167 -0.566591
-0.634393 0.013456 -0.773010 -0.378029 -0.732167 -0.566591
-0.634393 0.013456 -0.773010 -0.378728 -0.732319 -0.565928
-0.555570 0.017869 -0.831470 -0.378728 -0.732319 -0.565928
-0.165686 -0.517200 -0.400000 -0.378728 -0.732319 -0.565928
-0.555570 0.017869 -0.831470 -0.377956 -0.732247 -0.566536
-0.471397 0.013456 -0.881921 -0.377956 -0.732247 -0.566536
-0.165686 -0.517200 -0.400000 -0.377956 -0.732247 -0.566536
0.000000 -0.862000 0.000000 -0.652910 -0.757436 0.000000
0.000000 -0.862000 0.000000 -0.461677 -0.757436 0.461677
0.000000 -0.862000 0.000000 0.000000 -0.757436 0.652910
0.000000 -0.862000 0.000000 0.461677 -0.757436 0.461677
0.000000 -0.862000 0.000000 0.652910 -0.757436 0.000000
0.000000 -0.862000 0.000000 0.461677 -0.757436 -0.461677
0.000000 -0.862000 0.000000 0.000000 -0.757436 -0.652910
0.000000 -0.862000 0.000000 -0.461678 -0.757436 -0.461676
3 0 1 2
3 3 4 5
3 6 7 8
3 9 10 11
3 12 13 14
3 15 16 17
3 18 19 20
3 21 22 23
3 24 25 26
3 27 28 29
3 30 31 32
3 33 34 35
3 36 37 38
3 39 40 41
3 42 43 44
3 45 46 47
3 48 49 50
3 51 52 53
3 54 55 56
3 57 58 59
3 60 61 62
3 63 64 65
3 66 67 68
3 69 70 71
3 72 73 74
3 75 76 77
3 78 79 80
3 81 82 83
3 84 85 86
3 87 88 89
3 90 91 92
3 93 94 95
3 96 97 98
3 99 100 101
3 102 103 104
3 105 106 107
3 108 109 110
3 111 112 113
3 114 115 116
3 117 118 119
3 120 121 122
3 123 124 125
3 126 127 128
3 129 130 131
3 132 133 134
3 135 136 137
3 138 139 140
3 141 142 143
3 144 145 146
3 147 148 149
3 150 151 152
3 153 154 155
3 156 157 158
3 159 160 161
3 162 163 164
3 165 166 167
3 168 169 170
3 171 172 173
3 174 175 176
3 177 178 179
3 180 181 182
3 183 184 185
3 186 187 188
3 189 190 191
3 192 193 194
3 195 196 197
3 198 199 200
3 201 202 203
3 204 205 206
3 207 208 209
3 210 211 212
3 213 214 215
3 216 217 218
3 219 220 221
3 222 223 224
3 225 226 227
3 228 229 230
3 231 232 233
3 234 235 236
3 237 238 239
3 240 241 242
3 243 244 245
3 246 247 248
3 249 250 251
3 252 253 254
3 255 256 257
3 258 259 260
3 261 262 263
3 264 265 266
3 267 268 269
3 270 271 272
3 273 274 275
3 276 277 278
3 279 280 281
3 282 283 284
3 285 286 287
3 288 289 290
3 291 292 293
3 294 295 296
3 297 298 299
3 300 301 302
3 303 304 305
3 306 307 308
3 309 310 311
3 312 313 314
3 315 316 317
3 318 319 320
3 321 322 323
3 324 325 326
3 327 328 329
3 330 331 332
3 333 334 335
3 336 337 338
3 339 340 341
3 342 343 344
3 345 346 347
3 348 349 350
3 351 352 353
3 354 355 356
3 357 358 359
3 360 361 362
3 0 363 1
3 3 364 4
3 6 365 7
3 9 366 10
3 12 367 13
3 15 368 16
3 18 369 19
3 21 370 22
3 24 371 25
3 372 373 374
3 30 375 31
3 33 376 34
3 36 377 37
3 39 378 40
3 42 379 43
3 45 380 46
3 48 381 49
3 382 383 384
3 54 385 55
3 57 386 58
3 60 387 61
3 63 388 64
3 66 389 67
3 69 390 70
3 72 391 73
3 75 392 76
3 78 393 79
3 81 394 82
3 84 395 85
3 87 396 88
3 90 397 91
3 93 398 94
3 96 399 97
3 99 400 100
3 401 402 403
3 105 404 106
3 108 405 109
3 406 407 408
3 114 409 115
3 410 411 412
3 413 414 415
3 416 417 418
3 126 419 127
3 420 421 422
3 132 423 133
3 424 425 426
3 138 427 139
3 141 428 142
3 144 429 145
3 430 431 432
3 433 434 435
3 436 437 438
3 156 439 157
3 159 440 160
3 162 441 163
3 165 442 166
3 443 444 445
3 446 447 448
3 174 449 175
3 177 450 178
3 180 451 181
3 452 453 454
3 186 455 187
3 189 456 190
3 457 458 459
3 460 461 462
3 463 464 465
3 466 467 468
3 469 470 471
3 472 473 474
3 475 476 477
3 478 479 480
3 481 482 483
3 484 485 486
3 487 488 489
3 490 491 492
3 493 494 495
3 496 497 498
3 499 500 501
3 502 503 504
3 505 506 507
3 508 509 510
3 511 512 513
3 514 515 516
3 517 518 519
3 520 521 522
3 523 524 525
3 526 527 528
3 529 530 531
3 532 533 534
3 535 536 537
3 538 539 540
3 541 542 543
3 544 545 546
3 547 548 549
3 550 551 552
3 553 554 555
3 556 557 558
3 559 560 561
3 562 563 564
3 565 566 567
3 568 569 570
3 571 572 573
3 574 575 576
3 577 578 579
3 580 581 582
3 583 584 585
3 586 587 588
3 589 590 591
3 592 593 594
3 595 596 597
3 598 599 600
3 601 602 603
3 249 604 250
3 605 606 607
3 261 608 262
3 609 610 611
3 273 612 274
3 613 614 615
3 285 616 286
3 290 617 288
3 617 618 288
3 618 619 288
3 288 620 289
3 289 621 290
3 622 623 624
3 625 626 627
3 628 629 630
3 631 632 633
3 634 635 636
3 637 638 639
3 640 641 642
3 643 644 645
3 646 647 648
3 649 650 651
3 652 653 654
3 655 656 657
3 658 659 660
3 661 662 663
3 664 665 666
3 667 668 669
3 670 671 672
3 673 674 675
3 676 677 678
3 679 680 681
3 682 683 684
3 685 686 687
3 688 689 690
3 691 692 693
3 694 695 696
3 697 698 699
3 700 701 702
3 703 704 705
3 706 707 708
3 709 710 711
3 712 713 714
3 715 716 717
3 718 719 720
3 721 722 723
3 724 725 726
3 727 728 729
3 730 731 732
3 733 734 735
3 736 737 738
3 739 740 741
3 742 743 744
3 745 746 747
3 748 749 750
3 751 752 753
3 754 755 756
3 757 758 759
3 760 761 762
3 763 764 765
3 339 766 340
3 342 767 343
3 345 768 346
3 348 769 349
3 351 770 352
3 354 771 355
3 357 772 358
3 360 773 361
