ply
format ascii 1.0
comment Created by Blender 2.92.0 - www.blender.org
element vertex 150
property float x
property float y
property float z
property float nx
property float ny
property float nz
element face 50
property list uchar uint vertex_indices
end_header
-3.643116 6.658583 -2.170848 0.263076 0.432650 -0.862326
-0.008262 5.179895 -1.803831 0.263076 0.432650 -0.862326
0.323302 0.064841 -4.269025 0.263076 0.432650 -0.862326
5.265178 -1.004127 -3.092350 0.134716 -0.383106 -0.913828
-0.173420 -6.085555 -1.763805 0.134716 -0.383106 -0.913828
0.323302 0.064841 -4.269025 0.134716 -0.383106 -0.913828
-4.665891 -3.235341 -1.447917 -0.706484 -0.702734 0.083937
-1.900211 -5.713671 1.081378 -0.706484 -0.702734 0.083937
-6.930363 -0.628965 1.313414 -0.706484 -0.702734 0.083937
-6.006620 5.083967 -2.917911 -0.724024 0.017607 -0.689550
-5.857097 0.415425 -3.194114 -0.724024 0.017607 -0.689550
-8.148480 2.066227 -0.746020 -0.724024 0.017607 -0.689550
5.265178 -1.004127 -3.092350 0.247198 0.079836 -0.965670
0.323302 0.064841 -4.269025 0.247198 0.079836 -0.965670
3.323399 5.886293 -3.019761 0.247198 0.079836 -0.965670
0.281805 -3.050870 3.567037 0.343450 -0.419423 0.840313
5.376399 -2.356459 1.831390 0.343450 -0.419423 0.840313
3.801756 0.760220 4.030594 0.343450 -0.419423 0.840313
-5.210946 -0.065851 3.423777 -0.508346 0.092794 0.856139
-4.596949 5.255408 3.211595 -0.508346 0.092794 0.856139
-7.778455 4.201301 1.436777 -0.508346 0.092794 0.856139
-3.643116 6.658583 -2.170848 0.385437 0.910894 -0.147344
-3.937537 7.300039 1.024523 0.385437 0.910894 -0.147344
-0.008262 5.179895 -1.803831 0.385437 0.910894 -0.147344
-0.173420 -6.085555 -1.763805 -0.533779 -0.817271 -0.217137
-1.900211 -5.713671 1.081378 -0.533779 -0.817271 -0.217137
-4.665891 -3.235341 -1.447917 -0.533779 -0.817271 -0.217137
-6.930363 -0.628965 1.313414 -0.929861 -0.171576 0.325454
-7.778455 4.201301 1.436777 -0.929861 -0.171576 0.325454
-8.148480 2.066227 -0.746020 -0.929861 -0.171576 0.325454
5.265178 -1.004127 -3.092350 0.585596 -0.722728 -0.367071
1.057690 -6.420444 0.859571 0.585596 -0.722728 -0.367071
-0.173420 -6.085555 -1.763805 0.585596 -0.722728 -0.367071
1.057690 -6.420444 0.859571 -0.233411 -0.972269 -0.014579
-1.900211 -5.713671 1.081378 -0.233411 -0.972269 -0.014579
-0.173420 -6.085555 -1.763805 -0.233411 -0.972269 -0.014579
-1.900211 -5.713671 1.081378 -0.094752 -0.636708 0.765261
1.057690 -6.420444 0.859571 -0.094752 -0.636708 0.765261
0.281805 -3.050870 3.567037 -0.094752 -0.636708 0.765261
1.057690 -6.420444 0.859571 0.336297 -0.541609 0.770432
5.376399 -2.356459 1.831390 0.336297 -0.541609 0.770432
0.281805 -3.050870 3.567037 0.336297 -0.541609 0.770432
-7.778455 4.201301 1.436777 -0.747086 -0.147725 0.648105
-6.930363 -0.628965 1.313414 -0.747086 -0.147725 0.648105
-5.210946 -0.065851 3.423777 -0.747086 -0.147725 0.648105
-6.930363 -0.628965 1.313414 -0.552812 -0.574430 0.603680
-1.900211 -5.713671 1.081378 -0.552812 -0.574430 0.603680
-5.210946 -0.065851 3.423777 -0.552812 -0.574430 0.603680
-5.210946 -0.065851 3.423777 -0.297916 -0.509453 0.807282
-1.900211 -5.713671 1.081378 -0.297916 -0.509453 0.807282
0.281805 -3.050870 3.567037 -0.297916 -0.509453 0.807282
-5.210946 -0.065851 3.423777 -0.071476 0.047974 0.996288
3.801756 0.760220 4.030594 -0.071476 0.047974 0.996288
-4.596949 5.255408 3.211595 -0.071476 0.047974 0.996288
-5.210946 -0.065851 3.423777 -0.061133 -0.064688 0.996031
0.281805 -3.050870 3.567037 -0.061133 -0.064688 0.996031
3.801756 0.760220 4.030594 -0.061133 -0.064688 0.996031
-3.937537 7.300039 1.024523 0.475989 0.879449 0.002026
0.011973 5.160491 1.864050 0.475989 0.879449 0.002026
-0.008262 5.179895 -1.803831 0.475989 0.879449 0.002026
3.294402 6.982133 1.783415 -0.485100 0.874428 0.007302
-0.008262 5.179895 -1.803831 -0.485100 0.874428 0.007302
0.011973 5.160491 1.864050 -0.485100 0.874428 0.007302
6.888429 -0.778503 -0.871445 0.689227 -0.723606 -0.036883
5.376399 -2.356459 1.831390 0.689227 -0.723606 -0.036883
1.057690 -6.420444 0.859571 0.689227 -0.723606 -0.036883
8.262054 3.663331 1.237383 0.880252 -0.396192 0.261131
5.376399 -2.356459 1.831390 0.880252 -0.396192 0.261131
6.888429 -0.778503 -0.871445 0.880252 -0.396192 0.261131
-3.937537 7.300039 1.024523 -0.631236 0.768991 -0.100968
-6.006620 5.083967 -2.917911 -0.631236 0.768991 -0.100968
-7.778455 4.201301 1.436777 -0.631236 0.768991 -0.100968
-7.778455 4.201301 1.436777 -0.866102 0.422771 -0.266707
-6.006620 5.083967 -2.917911 -0.866102 0.422771 -0.266707
-8.148480 2.066227 -0.746020 -0.866102 0.422771 -0.266707
-0.173420 -6.085555 -1.763805 -0.179661 -0.358615 -0.916033
-5.857097 0.415425 -3.194114 -0.179661 -0.358615 -0.916033
0.323302 0.064841 -4.269025 -0.179661 -0.358615 -0.916033
0.323302 0.064841 -4.269025 -0.168200 0.052849 -0.984335
-5.857097 0.415425 -3.194114 -0.168200 0.052849 -0.984335
-6.006620 5.083967 -2.917911 -0.168200 0.052849 -0.984335
-0.008262 5.179895 -1.803831 -0.387154 0.379814 -0.840151
3.323399 5.886293 -3.019761 -0.387154 0.379814 -0.840151
0.323302 0.064841 -4.269025 -0.387154 0.379814 -0.840151
-0.008262 5.179895 -1.803831 -0.277122 0.936400 -0.215312
3.294402 6.982133 1.783415 -0.277122 0.936400 -0.215312
3.323399 5.886293 -3.019761 -0.277122 0.936400 -0.215312
8.262054 3.663331 1.237383 0.960021 -0.207880 -0.187470
6.888429 -0.778503 -0.871445 0.960021 -0.207880 -0.187470
7.718109 3.875135 -1.782990 0.960021 -0.207880 -0.187470
7.718109 3.875135 -1.782990 0.310711 0.097522 -0.945488
5.265178 -1.004127 -3.092350 0.310711 0.097522 -0.945488
3.323399 5.886293 -3.019761 0.310711 0.097522 -0.945488
3.801756 0.760220 4.030594 -0.205449 0.317585 0.925705
5.669657 4.734125 3.081809 -0.205449 0.317585 0.925705
3.294402 6.982133 1.783415 -0.205449 0.317585 0.925705
-3.643116 6.658583 -2.170848 -0.493619 0.842769 -0.214664
-6.006620 5.083967 -2.917911 -0.493619 0.842769 -0.214664
-3.937537 7.300039 1.024523 -0.493619 0.842769 -0.214664
-3.937537 7.300039 1.024523 0.218870 0.678992 0.700761
-4.596949 5.255408 3.211595 0.218870 0.678992 0.700761
0.011973 5.160491 1.864050 0.218870 0.678992 0.700761
-4.596949 5.255408 3.211595 -0.510657 0.699479 0.499958
-3.937537 7.300039 1.024523 -0.510657 0.699479 0.499958
-7.778455 4.201301 1.436777 -0.510657 0.699479 0.499958
1.057690 -6.420444 0.859571 0.591717 -0.721714 -0.359164
5.265178 -1.004127 -3.092350 0.591717 -0.721714 -0.359164
6.888429 -0.778503 -0.871445 0.591717 -0.721714 -0.359164
6.888429 -0.778503 -0.871445 0.793609 -0.250130 -0.554635
5.265178 -1.004127 -3.092350 0.793609 -0.250130 -0.554635
7.718109 3.875135 -1.782990 0.793609 -0.250130 -0.554635
-0.173420 -6.085555 -1.763805 -0.370130 -0.496365 -0.785255
-4.665891 -3.235341 -1.447917 -0.370130 -0.496365 -0.785255
-5.857097 0.415425 -3.194114 -0.370130 -0.496365 -0.785255
-5.857097 0.415425 -3.194114 -0.781929 -0.457605 -0.423302
-4.665891 -3.235341 -1.447917 -0.781929 -0.457605 -0.423302
-8.148480 2.066227 -0.746020 -0.781929 -0.457605 -0.423302
3.323399 5.886293 -3.019761 0.437259 0.492887 -0.752242
4.843173 6.891573 -1.477672 0.437259 0.492887 -0.752242
7.718109 3.875135 -1.782990 0.437259 0.492887 -0.752242
-3.643116 6.658583 -2.170848 0.069680 0.340308 -0.937729
0.323302 0.064841 -4.269025 0.069680 0.340308 -0.937729
-6.006620 5.083967 -2.917911 0.069680 0.340308 -0.937729
-6.930363 -0.628965 1.313414 -0.831912 -0.521304 -0.190172
-8.148480 2.066227 -0.746020 -0.831912 -0.521304 -0.190172
-4.665891 -3.235341 -1.447917 -0.831912 -0.521304 -0.190172
8.262054 3.663331 1.237383 0.549673 0.769116 0.326068
3.294402 6.982133 1.783415 0.549673 0.769116 0.326068
5.669657 4.734125 3.081809 0.549673 0.769116 0.326068
3.801756 0.760220 4.030594 0.616962 -0.221222 0.755261
5.376399 -2.356459 1.831390 0.616962 -0.221222 0.755261
8.262054 3.663331 1.237383 0.616962 -0.221222 0.755261
3.801756 0.760220 4.030594 0.560165 -0.066153 0.825735
8.262054 3.663331 1.237383 0.560165 -0.066153 0.825735
5.669657 4.734125 3.081809 0.560165 -0.066153 0.825735
3.801756 0.760220 4.030594 -0.156968 0.324136 0.932897
3.294402 6.982133 1.783415 -0.156968 0.324136 0.932897
0.011973 5.160491 1.864050 -0.156968 0.324136 0.932897
3.801756 0.760220 4.030594 0.238405 0.586466 0.774093
0.011973 5.160491 1.864050 0.238405 0.586466 0.774093
-4.596949 5.255408 3.211595 0.238405 0.586466 0.774093
3.323399 5.886293 -3.019761 -0.384413 0.899528 -0.207547
3.294402 6.982133 1.783415 -0.384413 0.899528 -0.207547
4.843173 6.891573 -1.477672 -0.384413 0.899528 -0.207547
4.843173 6.891573 -1.477672 0.557217 0.794143 0.242583
3.294402 6.982133 1.783415 0.557217 0.794143 0.242583
8.262054 3.663331 1.237383 0.557217 0.794143 0.242583
4.843173 6.891573 -1.477672 0.717431 0.691942 -0.080681
8.262054 3.663331 1.237383 0.717431 0.691942 -0.080681
7.718109 3.875135 -1.782990 0.717431 0.691942 -0.080681
3 0 1 2
3 3 4 5
3 6 7 8
3 9 10 11
3 12 13 14
3 15 16 17
3 18 19 20
3 21 22 23
3 24 25 26
3 27 28 29
3 30 31 32
3 33 34 35
3 36 37 38
3 39 40 41
3 42 43 44
3 45 46 47
3 48 49 50
3 51 52 53
3 54 55 56
3 57 58 59
3 60 61 62
3 63 64 65
3 66 67 68
3 69 70 71
3 72 73 74
3 75 76 77
3 78 79 80
3 81 82 83
3 84 85 86
3 87 88 89
3 90 91 92
3 93 94 95
3 96 97 98
3 99 100 101
3 102 103 104
3 105 106 107
3 108 109 110
3 111 112 113
3 114 115 116
3 117 118 119
3 120 121 122
3 123 124 125
3 126 127 128
3 129 130 131
3 132 133 134
3 135 136 137
3 138 139 140
3 141 142 143
3 144 145 146
3 147 148 149
