ply
format ascii 1.0
comment Created by Blender 2.92.0 - www.blender.org
element vertex 576
property float x
property float y
property float z
property float nx
property float ny
property float nz
property float s
property float t
element face 318
property list uchar uint vertex_indices
end_header
-0.910437 0.562662 -0.160000 0.000000 -0.000000 -1.000000 0.614357 0.000000
-1.256722 0.551896 -0.160000 0.000000 -0.000000 -1.000000 0.681147 0.000000
-1.223883 0.563168 -0.160000 0.000000 -0.000000 -1.000000 0.651767 0.000000
-0.870891 0.547929 -0.160000 0.000000 -0.000000 -1.000000 0.588985 0.000000
-1.275011 0.527672 -0.160000 0.000000 -0.000000 -1.000000 0.712147 0.000000
-0.850430 0.529780 -0.160000 0.000000 -0.000000 -1.000000 0.570721 0.000000
-0.830833 0.497041 -0.160000 0.000000 -0.000000 -1.000000 0.547344 0.000000
-1.277097 0.488789 -0.160000 0.000000 0.000000 -1.000000 0.755194 0.000000
-0.806759 0.390000 -0.160000 0.000000 0.000000 -1.000000 0.526971 0.000000
-0.941314 0.456902 -0.160000 0.000000 0.000000 -1.000000 0.469233 0.000000
-0.956795 0.462903 -0.160000 0.000000 0.000000 -1.000000 0.435640 0.000000
-1.140984 0.462085 -0.160000 0.000000 0.000000 -1.000000 0.396815 0.000000
-1.152720 0.448347 -0.160000 0.000000 0.000000 -1.000000 0.364107 0.000000
-1.236582 0.295160 -0.160000 0.000000 0.000000 -1.000000 0.804661 0.000000
-0.932127 0.442058 -0.160000 0.000000 0.000000 -1.000000 0.501943 0.000000
-0.920926 0.390000 -0.160000 0.000000 0.000000 -1.000000 0.522822 0.000000
-1.127097 0.335901 -0.160000 0.000000 0.000000 -1.000000 0.274861 0.000000
-1.110744 0.324182 -0.160000 0.000000 0.000000 -1.000000 0.233674 0.000000
-0.879238 0.322982 -0.160000 0.000000 0.000001 -1.000000 0.191629 0.000000
-1.236582 0.295160 -0.160000 0.000000 0.000001 -1.000000 0.804661 0.000000
-1.110744 0.324182 -0.160000 0.000000 0.000001 -1.000000 0.233674 0.000000
-0.847130 0.318014 -0.160000 0.000000 0.000000 -1.000000 0.158458 0.000000
-0.879238 0.322982 -0.160000 0.000000 0.000000 -1.000000 0.191629 0.000000
-0.819132 0.306030 -0.160000 0.000000 0.000000 -1.000000 0.122072 0.000000
-0.798192 0.285753 -0.160000 0.000000 0.000001 -1.000000 0.085533 0.000000
-0.819132 0.306030 -0.160000 0.000000 0.000001 -1.000000 0.122072 0.000000
-0.798192 0.285753 -0.160000 0.000000 0.000000 -1.000000 0.085533 0.000000
-1.208711 0.252245 -0.160000 0.000000 0.000000 -1.000000 0.838759 0.000000
-0.780043 0.250403 -0.160000 0.000000 -0.000000 -1.000000 0.041493 0.000000
-1.163396 0.232274 -0.160000 0.000000 0.000000 -1.000000 0.871710 0.000000
-0.911807 0.230365 -0.160000 0.000000 0.000000 -1.000000 0.908945 0.000000
-0.897881 0.224276 -0.160000 0.000000 0.000000 -1.000000 0.940947 0.000000
-0.889261 0.207522 -0.160000 0.000000 0.000000 -1.000000 0.974455 0.000000
-0.725926 0.000000 -0.160000 -0.000000 0.000000 -1.000000 0.004149 0.000000
-0.866759 0.105833 -0.160000 -0.000000 -0.000000 -1.000000 0.995851 0.000000
-1.196759 0.105833 -0.160000 0.000000 0.000000 -1.000000 1.000000 0.000000
-1.175093 0.000000 -0.160000 0.000000 0.000000 -1.000000 0.000000 0.000000
-0.535093 0.456667 -0.160000 0.000000 0.000000 -1.000000 0.600000 0.000000
-0.753426 0.564167 -0.160000 0.000000 0.000000 -1.000000 1.000000 0.000000
-0.557593 0.564167 -0.160000 0.000000 0.000000 -1.000000 0.800000 0.000000
-0.611759 0.456667 -0.160000 0.000000 0.000000 -1.000000 0.400000 0.000000
-0.634259 0.000000 -0.160000 -0.000000 0.000000 -1.000000 0.000000 0.000000
-0.515093 0.000000 -0.160000 0.000000 0.000000 -1.000000 0.200000 0.000000
-0.275926 0.456667 -0.160000 0.000000 0.000000 -1.000000 0.600000 0.000000
-0.494259 0.564167 -0.160000 0.000000 0.000000 -1.000000 1.000000 0.000000
-0.298426 0.564167 -0.160000 0.000000 0.000000 -1.000000 0.800000 0.000000
-0.352593 0.456667 -0.160000 0.000000 0.000000 -1.000000 0.400000 0.000000
-0.375093 0.000000 -0.160000 -0.000000 0.000000 -1.000000 0.000000 0.000000
-0.255926 0.000000 -0.160000 0.000000 0.000000 -1.000000 0.200000 0.000000
0.172972 0.420499 -0.160000 0.000000 0.000000 -1.000000 0.460187 0.000000
-0.181759 0.327500 -0.160000 0.000000 0.000000 -1.000000 0.485356 0.000000
-0.201759 0.421667 -0.160000 0.000000 0.000000 -1.000000 0.481172 0.000000
0.211703 0.405101 -0.160000 0.000000 -0.000000 -1.000000 0.427411 0.000000
0.234324 0.370662 -0.160000 0.000000 -0.000000 -1.000000 0.393047 0.000000
0.265460 0.225192 -0.160000 -0.000000 0.000000 -1.000000 0.343799 0.000000
0.125031 0.322838 -0.160000 -0.000000 0.000000 -1.000000 0.539399 0.000000
0.113720 0.327169 -0.160000 0.000000 -0.000000 -1.000000 0.506533 0.000000
0.131398 0.312523 -0.160000 -0.000000 -0.000000 -1.000000 0.572892 0.000000
0.142187 0.261162 -0.160000 0.000000 0.000000 -1.000000 0.639733 0.000000
0.134160 0.250131 -0.160000 0.000000 -0.000000 -1.000000 0.676759 0.000000
-0.121695 0.248398 -0.160000 0.000000 -0.000000 -1.000000 0.715677 0.000000
-0.146505 0.238355 -0.160000 0.000000 -0.000000 -1.000000 0.748604 0.000000
-0.158126 0.219009 -0.160000 0.000000 -0.000000 -1.000000 0.781831 0.000000
0.264602 0.205176 -0.160000 0.000000 -0.000000 -1.000000 0.304783 0.000000
-0.159012 0.198470 -0.160000 0.000000 -0.000000 -1.000000 0.848368 0.000000
0.253124 0.186371 -0.160000 0.000000 -0.000000 -1.000000 0.271898 0.000000
-0.021527 0.175428 -0.160000 0.000000 0.000000 -1.000000 0.204719 0.000000
-0.031590 0.168033 -0.160000 0.000000 0.000000 -1.000000 0.170072 0.000000
-0.126690 0.051336 -0.160000 0.000000 0.000000 -1.000000 0.919994 0.000000
0.228514 0.176572 -0.160000 0.000000 -0.000000 -1.000000 0.238638 0.000000
-0.016385 0.102375 -0.160000 0.000000 0.000000 -1.000000 0.071172 0.000000
-0.003927 0.096956 -0.160000 -0.000001 0.000001 -1.000000 0.030077 0.000000
-0.126690 0.051336 -0.160000 -0.000001 0.000001 -1.000000 0.919994 0.000000
-0.016385 0.102375 -0.160000 -0.000001 0.000001 -1.000000 0.071172 0.000000
0.313241 0.000000 -0.160000 -0.000000 -0.000000 -1.000000 0.004184 0.000000
-0.003927 0.096956 -0.160000 -0.000000 -0.000000 -1.000000 0.030077 0.000000
0.293241 0.096667 -0.160000 -0.000000 -0.000000 -1.000000 0.008368 0.000000
-0.103431 0.016483 -0.160000 0.000000 0.000000 -1.000000 0.954747 0.000000
-0.064824 0.001167 -0.160000 0.000000 0.000000 -1.000000 0.943402 0.000000
0.871574 -0.176667 -0.160000 -0.000000 0.000000 -1.000000 0.519380 0.000000
0.649074 0.318333 -0.160000 -0.000000 0.000000 -1.000000 0.503876 0.000000
0.744074 0.421667 -0.160000 -0.000000 0.000000 -1.000000 0.527132 0.000000
0.365434 0.420826 -0.160000 0.000000 -0.000000 -1.000000 0.566699 0.000000
0.342498 0.413813 -0.160000 0.000000 -0.000000 -1.000000 0.609615 0.000000
0.327867 0.401416 -0.160000 0.000000 -0.000000 -1.000000 0.653971 0.000000
0.320496 0.376323 -0.160000 0.000000 -0.000000 -1.000000 0.711969 0.000000
0.322254 0.348691 -0.160000 0.000000 0.000000 -1.000000 0.785880 0.000000
0.455210 0.317173 -0.160000 0.000000 0.000000 -1.000000 0.417874 0.000000
0.449421 0.306115 -0.160000 0.000000 0.000000 -1.000000 0.315823 0.000000
0.384938 0.056917 -0.160000 0.000000 0.000000 -1.000000 0.852123 0.000000
0.754907 -0.176667 -0.160000 0.000000 0.000000 -1.000000 0.511628 0.000000
0.492949 0.106616 -0.160000 0.000000 0.000000 -1.000000 0.133295 0.000000
0.506591 0.100304 -0.160000 0.000000 0.000000 -1.000000 0.054798 0.000000
0.674907 0.000000 -0.160000 0.000000 0.000000 -1.000000 0.007752 0.000000
0.654074 0.100000 -0.160000 0.000000 0.000000 -1.000000 0.015504 0.000000
0.410851 0.018987 -0.160000 0.000000 0.000000 -1.000000 0.914048 0.000000
0.452739 0.001200 -0.160000 0.000000 0.000000 -1.000000 0.928093 0.000000
0.940026 0.596997 -0.160000 0.000000 0.000000 -1.000000 0.491863 0.000000
0.789907 0.507500 -0.160000 0.000000 0.000000 -1.000000 0.622222 0.000000
0.770741 0.598333 -0.160000 0.000000 0.000000 -1.000000 0.600000 0.000000
0.969884 0.584909 -0.160000 0.000000 -0.000000 -1.000000 0.366211 0.000000
0.989590 0.567344 -0.160000 0.000000 -0.000000 -1.000000 0.260301 0.000000
1.008945 0.528836 -0.160000 0.000000 -0.000000 -1.000000 0.119889 0.000000
0.883201 0.507209 -0.160000 0.000000 -0.000000 -1.000000 0.684279 0.000000
0.897995 0.499424 -0.160000 0.000000 0.000000 -1.000000 0.811091 0.000000
1.121574 0.000000 -0.160000 -0.000000 0.000000 -1.000000 0.022222 0.000000
0.915741 0.421667 -0.160000 0.000000 0.000000 -1.000000 0.933333 0.000000
0.934907 0.330000 -0.160000 -0.000000 -0.000000 -1.000000 1.000000 0.000000
0.811574 0.421667 -0.160000 -0.000000 -0.000000 -1.000000 0.955556 0.000000
0.830741 0.330000 -0.160000 0.000000 0.000000 -1.000000 0.977778 0.000000
1.004907 0.000000 -0.160000 0.000000 0.000000 -1.000000 0.000000 0.000000
-1.256722 0.551896 0.160000 0.000000 0.000000 1.000000 0.681147 0.000000
-0.910437 0.562662 0.160000 0.000000 0.000000 1.000000 0.614357 0.000000
-1.223883 0.563168 0.160000 0.000000 0.000000 1.000000 0.651767 0.000000
-0.870891 0.547929 0.160000 0.000000 0.000000 1.000000 0.588985 0.000000
-1.275011 0.527672 0.160000 0.000000 0.000000 1.000000 0.712147 0.000000
-0.850430 0.529780 0.160000 0.000000 0.000000 1.000000 0.570721 0.000000
-0.830833 0.497041 0.160000 0.000000 0.000000 1.000000 0.547344 0.000000
-1.277097 0.488789 0.160000 -0.000000 -0.000000 1.000000 0.755194 0.000000
-0.941314 0.456902 0.160000 -0.000000 -0.000000 1.000000 0.469233 0.000000
-0.806759 0.390000 0.160000 -0.000000 -0.000000 1.000000 0.526971 0.000000
-0.956795 0.462903 0.160000 -0.000000 -0.000000 1.000000 0.435640 0.000000
-1.140984 0.462085 0.160000 0.000000 0.000000 1.000000 0.396815 0.000000
-1.152720 0.448347 0.160000 0.000000 0.000000 1.000000 0.364107 0.000000
-1.236582 0.295160 0.160000 -0.000000 -0.000000 1.000000 0.804661 0.000000
-0.932127 0.442058 0.160000 0.000000 0.000000 1.000000 0.501943 0.000000
-0.920926 0.390000 0.160000 0.000000 0.000000 1.000000 0.522822 0.000000
-1.127097 0.335901 0.160000 -0.000000 -0.000000 1.000000 0.274861 0.000000
-1.110744 0.324182 0.160000 -0.000000 -0.000000 1.000000 0.233674 0.000000
-1.236582 0.295160 0.160000 -0.000000 -0.000001 1.000000 0.804661 0.000000
-0.879238 0.322982 0.160000 -0.000000 -0.000001 1.000000 0.191629 0.000000
-1.110744 0.324182 0.160000 -0.000000 -0.000001 1.000000 0.233674 0.000000
-0.847130 0.318014 0.160000 -0.000000 -0.000000 1.000000 0.158458 0.000000
-0.879238 0.322982 0.160000 -0.000000 -0.000000 1.000000 0.191629 0.000000
-0.819132 0.306030 0.160000 -0.000000 -0.000000 1.000000 0.122072 0.000000
-0.798192 0.285753 0.160000 -0.000000 -0.000001 1.000000 0.085533 0.000000
-0.819132 0.306030 0.160000 -0.000000 -0.000001 1.000000 0.122072 0.000000
-1.208711 0.252245 0.160000 0.000000 0.000000 1.000000 0.838759 0.000000
-0.798192 0.285753 0.160000 0.000000 0.000000 1.000000 0.085533 0.000000
-0.780043 0.250403 0.160000 0.000000 0.000000 1.000000 0.041493 0.000000
-1.163396 0.232274 0.160000 0.000000 0.000000 1.000000 0.871710 0.000000
-0.911807 0.230365 0.160000 -0.000000 0.000000 1.000000 0.908945 0.000000
-0.897881 0.224276 0.160000 -0.000000 0.000000 1.000000 0.940947 0.000000
-0.889261 0.207522 0.160000 -0.000000 0.000000 1.000000 0.974455 0.000000
-0.725926 -0.000000 0.160000 0.000000 -0.000000 1.000000 0.004149 0.000000
-0.866759 0.105833 0.160000 0.000000 0.000000 1.000000 0.995851 0.000000
-1.196759 0.105833 0.160000 0.000000 -0.000000 1.000000 1.000000 0.000000
-1.175093 -0.000000 0.160000 0.000000 -0.000000 1.000000 0.000000 0.000000
-0.753426 0.564167 0.160000 0.000000 -0.000000 1.000000 1.000000 0.000000
-0.535093 0.456667 0.160000 0.000000 -0.000000 1.000000 0.600000 0.000000
-0.557593 0.564167 0.160000 0.000000 -0.000000 1.000000 0.800000 0.000000
-0.611759 0.456667 0.160000 0.000000 -0.000000 1.000000 0.400000 0.000000
-0.634259 -0.000000 0.160000 0.000000 -0.000000 1.000000 0.000000 0.000000
-0.515093 -0.000000 0.160000 0.000000 -0.000000 1.000000 0.200000 0.000000
-0.494259 0.564167 0.160000 0.000000 -0.000000 1.000000 1.000000 0.000000
-0.275926 0.456667 0.160000 0.000000 -0.000000 1.000000 0.600000 0.000000
-0.298426 0.564167 0.160000 0.000000 -0.000000 1.000000 0.800000 0.000000
-0.352593 0.456667 0.160000 0.000000 -0.000000 1.000000 0.400000 0.000000
-0.375093 -0.000000 0.160000 0.000000 -0.000000 1.000000 0.000000 0.000000
-0.255926 -0.000000 0.160000 0.000000 -0.000000 1.000000 0.200000 0.000000
-0.181759 0.327500 0.160000 0.000000 0.000000 1.000000 0.485356 0.000000
0.172972 0.420499 0.160000 0.000000 0.000000 1.000000 0.460187 0.000000
-0.201759 0.421667 0.160000 0.000000 0.000000 1.000000 0.481172 0.000000
0.211703 0.405101 0.160000 0.000000 0.000000 1.000000 0.427411 0.000000
0.234324 0.370662 0.160000 0.000000 0.000000 1.000000 0.393047 0.000000
0.125031 0.322838 0.160000 0.000000 -0.000000 1.000000 0.539399 0.000000
0.265460 0.225192 0.160000 0.000000 -0.000000 1.000000 0.343799 0.000000
0.113720 0.327169 0.160000 0.000000 0.000000 1.000000 0.506533 0.000000
0.131398 0.312523 0.160000 0.000000 0.000000 1.000000 0.572892 0.000000
0.142187 0.261162 0.160000 -0.000000 -0.000000 1.000000 0.639733 0.000000
0.134160 0.250131 0.160000 0.000000 0.000000 1.000000 0.676759 0.000000
-0.121695 0.248398 0.160000 0.000000 0.000000 1.000000 0.715677 0.000000
-0.146505 0.238355 0.160000 0.000000 0.000000 1.000000 0.748604 0.000000
-0.158126 0.219009 0.160000 0.000000 0.000000 1.000000 0.781831 0.000000
0.264602 0.205175 0.160000 0.000000 0.000000 1.000000 0.304783 0.000000
-0.159012 0.198470 0.160000 0.000000 0.000000 1.000000 0.848368 0.000000
0.253124 0.186371 0.160000 0.000000 0.000000 1.000000 0.271898 0.000000
-0.021527 0.175428 0.160000 0.000000 0.000000 1.000000 0.204719 0.000000
-0.031590 0.168033 0.160000 0.000000 0.000000 1.000000 0.170072 0.000000
-0.126690 0.051336 0.160000 -0.000000 -0.000000 1.000000 0.919994 0.000000
0.228514 0.176571 0.160000 0.000000 0.000000 1.000000 0.238638 0.000000
-0.016385 0.102375 0.160000 -0.000000 -0.000000 1.000000 0.071172 0.000000
-0.126690 0.051336 0.160000 0.000001 -0.000001 1.000000 0.919994 0.000000
-0.003927 0.096956 0.160000 0.000001 -0.000001 1.000000 0.030077 0.000000
-0.016385 0.102375 0.160000 0.000001 -0.000001 1.000000 0.071172 0.000000
-0.003927 0.096956 0.160000 0.000000 0.000000 1.000000 0.030077 0.000000
0.313241 -0.000000 0.160000 0.000000 0.000000 1.000000 0.004184 0.000000
0.293241 0.096667 0.160000 0.000000 0.000000 1.000000 0.008368 0.000000
-0.103431 0.016483 0.160000 0.000000 0.000000 1.000000 0.954747 0.000000
-0.064824 0.001167 0.160000 0.000000 0.000000 1.000000 0.943402 0.000000
0.649074 0.318333 0.160000 0.000000 -0.000000 1.000000 0.503876 0.000000
0.871574 -0.176667 0.160000 0.000000 -0.000000 1.000000 0.519380 0.000000
0.744074 0.421667 0.160000 0.000000 -0.000000 1.000000 0.527132 0.000000
0.365434 0.420826 0.160000 0.000000 0.000000 1.000000 0.566699 0.000000
0.342498 0.413813 0.160000 0.000000 0.000000 1.000000 0.609615 0.000000
0.327867 0.401416 0.160000 0.000000 0.000000 1.000000 0.653971 0.000000
0.320496 0.376323 0.160000 0.000000 0.000000 1.000000 0.711969 0.000000
0.322254 0.348691 0.160000 0.000000 0.000000 1.000000 0.785880 0.000000
0.455210 0.317173 0.160000 0.000000 0.000000 1.000000 0.417874 0.000000
0.449421 0.306115 0.160000 0.000000 0.000000 1.000000 0.315823 0.000000
0.384938 0.056917 0.160000 -0.000000 -0.000000 1.000000 0.852123 0.000000
0.754907 -0.176667 0.160000 0.000000 -0.000000 1.000000 0.511628 0.000000
0.492949 0.106616 0.160000 -0.000000 -0.000000 1.000000 0.133295 0.000000
0.506591 0.100304 0.160000 -0.000000 -0.000000 1.000000 0.054798 0.000000
0.674907 -0.000000 0.160000 -0.000000 -0.000000 1.000000 0.007752 0.000000
0.654074 0.100000 0.160000 -0.000000 -0.000000 1.000000 0.015504 0.000000
0.410851 0.018987 0.160000 0.000000 0.000000 1.000000 0.914048 0.000000
0.452739 0.001200 0.160000 0.000000 0.000000 1.000000 0.928093 0.000000
0.789907 0.507500 0.160000 0.000000 0.000000 1.000000 0.622222 0.000000
0.940026 0.596997 0.160000 0.000000 0.000000 1.000000 0.491863 0.000000
0.770741 0.598333 0.160000 0.000000 0.000000 1.000000 0.600000 0.000000
0.969884 0.584909 0.160000 0.000000 0.000000 1.000000 0.366211 0.000000
0.989590 0.567344 0.160000 0.000000 0.000000 1.000000 0.260301 0.000000
1.008945 0.528836 0.160000 0.000000 0.000000 1.000000 0.119889 0.000000
0.883201 0.507209 0.160000 0.000000 0.000000 1.000000 0.684279 0.000000
0.897995 0.499424 0.160000 -0.000000 0.000000 1.000000 0.811091 0.000000
1.121574 -0.000000 0.160000 0.000000 -0.000000 1.000000 0.022222 0.000000
0.915741 0.421667 0.160000 -0.000000 -0.000000 1.000000 0.933333 0.000000
0.934907 0.330000 0.160000 0.000000 0.000000 1.000000 1.000000 0.000000
0.811574 0.421667 0.160000 0.000000 0.000000 1.000000 0.955556 0.000000
0.830741 0.330000 0.160000 0.000000 0.000000 1.000000 0.977778 0.000000
1.004907 -0.000000 0.160000 0.000000 -0.000000 1.000000 0.000000 0.000000
1.121574 0.000000 -0.160000 0.000000 -1.000000 -0.000000 0.021739 1.000000
1.004907 -0.000000 0.160000 0.000000 -1.000000 -0.000000 0.000000 0.000000
1.004907 0.000000 -0.160000 0.000000 -1.000000 -0.000000 0.000000 1.000000
0.995484 0.565087 -0.160000 0.975998 0.217778 0.000000 0.244460 1.000000
1.121574 -0.000000 0.160000 0.975998 0.217778 0.000000 0.021739 0.000000
1.121574 0.000000 -0.160000 0.975998 0.217778 0.000000 0.021739 1.000000
0.940807 0.596851 -0.160000 0.502316 0.864681 -0.002287 0.478307 1.000000
0.994542 0.566481 0.160000 0.502316 0.864681 -0.002287 0.250192 0.000000
0.995484 0.565087 -0.160000 0.502316 0.864681 -0.002287 0.244460 1.000000
0.770741 0.598333 -0.160000 0.008717 0.999962 -0.000854 0.586957 1.000000
0.939190 0.597138 0.160000 0.008717 0.999962 -0.000854 0.484210 0.000000
0.940807 0.596851 -0.160000 0.008717 0.999962 -0.000854 0.478307 1.000000
0.789907 0.507500 -0.160000 -0.978455 -0.206463 0.000000 0.608696 1.000000
0.770741 0.598333 0.160000 -0.978455 -0.206463 0.000000 0.586957 0.000000
0.770741 0.598333 -0.160000 -0.978455 -0.206463 0.000000 0.586957 1.000000
0.895017 0.504134 -0.160000 -0.032004 -0.999488 0.000000 0.757821 1.000000
0.789907 0.507500 0.160000 -0.032004 -0.999488 0.000000 0.608696 0.000000
0.789907 0.507500 -0.160000 -0.032004 -0.999488 0.000000 0.608696 1.000000
0.915741 0.421667 -0.160000 -0.969847 -0.243712 0.001106 0.913043 1.000000
0.895483 0.503733 0.160000 -0.969847 -0.243712 0.001106 0.761894 0.000000
0.895017 0.504134 -0.160000 -0.969847 -0.243712 0.001106 0.757821 1.000000
0.811574 0.421667 -0.160000 0.000000 1.000000 -0.000000 0.934783 1.000000
0.915741 0.421667 0.160000 0.000000 1.000000 -0.000000 0.913043 0.000000
0.915741 0.421667 -0.160000 0.000000 1.000000 -0.000000 0.913043 1.000000
0.830741 0.330000 -0.160000 -0.978832 -0.204665 0.000000 0.956522 1.000000
0.811574 0.421667 0.160000 -0.978832 -0.204665 0.000000 0.934783 0.000000
0.811574 0.421667 -0.160000 -0.978832 -0.204665 0.000000 0.934783 1.000000
0.934907 0.330000 -0.160000 0.000000 -1.000000 0.000000 0.978261 1.000000
0.830741 0.330000 0.160000 0.000000 -1.000000 0.000000 0.956522 0.000000
0.830741 0.330000 -0.160000 0.000000 -1.000000 0.000000 0.956522 1.000000
1.004907 0.000000 -0.160000 -0.978234 -0.207504 0.000000 1.000000 1.000000
0.934907 0.330000 0.160000 -0.978234 -0.207504 0.000000 0.978261 0.000000
0.934907 0.330000 -0.160000 -0.978234 -0.207504 0.000000 0.978261 1.000000
0.674907 0.000000 -0.160000 -0.005973 -0.999872 0.014849 0.007692 1.000000
0.426289 0.006238 0.160000 -0.005973 -0.999872 0.014849 0.000000 0.000000
0.451964 0.001332 -0.160000 -0.005973 -0.999872 0.014849 0.000000 1.000000
0.654074 0.100000 -0.160000 0.978980 0.203954 0.000000 0.015385 1.000000
0.674907 -0.000000 0.160000 0.978980 0.203954 0.000000 0.007692 0.000000
0.674907 0.000000 -0.160000 0.978980 0.203954 0.000000 0.007692 1.000000
0.495235 0.102876 -0.160000 0.018103 0.999836 0.000000 0.113512 1.000000
0.654074 0.100000 0.160000 0.018103 0.999836 0.000000 0.015385 0.000000
0.654074 0.100000 -0.160000 0.018103 0.999836 0.000000 0.015385 1.000000
0.449994 0.314866 -0.160000 0.977977 0.208712 0.000541 0.378731 1.000000
0.495022 0.103047 0.160000 0.977977 0.208712 0.000541 0.114627 0.000000
0.495235 0.102876 -0.160000 0.977977 0.208712 0.000541 0.113512 1.000000
0.649074 0.318333 -0.160000 0.017413 -0.999848 0.000403 0.500000 1.000000
0.450074 0.314997 0.160000 0.017413 -0.999848 0.000403 0.379419 0.000000
0.449994 0.314866 -0.160000 0.017413 -0.999848 0.000403 0.378731 1.000000
0.754907 -0.176667 -0.160000 -0.977899 -0.209079 0.000000 0.507692 1.000000
0.649074 0.318333 0.160000 -0.977899 -0.209079 0.000000 0.500000 0.000000
0.649074 0.318333 -0.160000 -0.977899 -0.209079 0.000000 0.500000 1.000000
0.871574 -0.176667 -0.160000 0.000000 -1.000000 -0.000000 0.515385 1.000000
0.754907 -0.176667 0.160000 0.000000 -1.000000 -0.000000 0.507692 0.000000
0.754907 -0.176667 -0.160000 0.000000 -1.000000 -0.000000 0.507692 1.000000
0.744074 0.421667 -0.160000 0.978041 0.208413 0.000000 0.523077 1.000000
0.871574 -0.176667 0.160000 0.978041 0.208413 0.000000 0.515385 0.000000
0.871574 -0.176667 -0.160000 0.978041 0.208413 0.000000 0.515385 1.000000
0.341613 0.416713 -0.160000 -0.012308 0.999924 0.000000 0.607707 1.000000
0.744074 0.421667 0.160000 -0.012308 0.999924 0.000000 0.523077 0.000000
0.744074 0.421667 -0.160000 -0.012308 0.999924 0.000000 0.523077 1.000000
0.319335 0.373915 -0.160000 -0.887020 0.461728 -0.001787 0.714597 1.000000
0.340748 0.416291 0.160000 -0.887020 0.461728 -0.001787 0.609985 0.000000
0.341613 0.416713 -0.160000 -0.887020 0.461728 -0.001787 0.607707 1.000000
0.395464 0.031179 -0.160000 -0.976207 -0.216839 -0.000738 0.881987 1.000000
0.319357 0.372726 0.160000 -0.976207 -0.216839 -0.000738 0.717443 0.000000
0.319335 0.373915 -0.160000 -0.976207 -0.216839 -0.000738 0.714597 1.000000
0.451964 0.001332 -0.160000 -0.466969 -0.883950 -0.023915 0.969355 1.000000
0.426289 0.006238 0.160000 -0.466969 -0.883950 -0.023915 0.933678 0.000000
0.395464 0.031179 -0.160000 -0.466969 -0.883950 -0.023915 0.881987 1.000000
0.313241 0.000000 -0.160000 -0.028375 -0.999595 -0.002124 0.004167 1.000000
-0.106394 0.011232 0.160000 -0.028375 -0.999595 -0.002124 0.000000 0.000000
-0.107270 0.011937 -0.160000 -0.028375 -0.999595 -0.002124 0.000000 1.000000
0.293241 0.096667 -0.160000 0.979261 0.202605 0.000000 0.008333 1.000000
0.313241 -0.000000 0.160000 0.979261 0.202605 0.000000 0.004167 0.000000
0.313241 0.000000 -0.160000 0.979261 0.202605 0.000000 0.004167 1.000000
-0.014493 0.099154 -0.160000 0.008084 0.999967 0.000000 0.061820 1.000000
0.293241 0.096667 0.160000 0.008084 0.999967 0.000000 0.008333 0.000000
0.293241 0.096667 -0.160000 0.008084 0.999967 0.000000 0.008333 1.000000
-0.031495 0.171846 -0.160000 0.973719 0.227750 0.000389 0.176901 1.000000
-0.014652 0.099289 0.160000 0.973719 0.227750 0.000389 0.062382 0.000000
-0.014493 0.099154 -0.160000 0.973719 0.227750 0.000389 0.061820 1.000000
0.234564 0.177278 -0.160000 0.020411 -0.999792 0.000584 0.244720 1.000000
-0.031447 0.172034 0.160000 0.020411 -0.999792 0.000584 0.176655 0.000000
-0.031495 0.171846 -0.160000 0.020411 -0.999792 0.000584 0.176901 1.000000
0.267139 0.203914 -0.160000 0.632921 -0.774037 -0.016671 0.304737 1.000000
0.246211 0.179909 0.160000 0.632921 -0.774037 -0.016671 0.259741 0.000000
0.234564 0.177278 -0.160000 0.632921 -0.774037 -0.016671 0.244720 1.000000
0.224797 0.394563 -0.160000 0.976197 0.216809 -0.005845 0.412374 1.000000
0.266880 0.213708 0.160000 0.976197 0.216809 -0.005845 0.320158 0.000000
0.267139 0.203914 -0.160000 0.976197 0.216809 -0.005845 0.304737 1.000000
0.173785 0.420375 -0.160000 0.451371 0.892030 -0.023385 0.457711 1.000000
0.199188 0.415911 0.160000 0.451371 0.892030 -0.023385 0.437842 0.000000
0.224797 0.394563 -0.160000 0.451371 0.892030 -0.023385 0.412374 1.000000
-0.201759 0.421667 -0.160000 0.003438 0.999901 0.013678 0.479167 1.000000
0.199188 0.415911 0.160000 0.003438 0.999901 0.013678 0.437842 0.000000
0.173785 0.420375 -0.160000 0.003438 0.999901 0.013678 0.457711 1.000000
-0.181759 0.327500 -0.160000 -0.978181 -0.207755 0.000000 0.483333 1.000000
-0.201759 0.421667 0.160000 -0.978181 -0.207755 0.000000 0.479167 0.000000
-0.201759 0.421667 -0.160000 -0.978181 -0.207755 0.000000 0.479167 1.000000
0.125921 0.324327 -0.160000 -0.010312 -0.999947 0.000000 0.537398 1.000000
-0.181759 0.327500 0.160000 -0.010312 -0.999947 0.000000 0.483333 0.000000
-0.181759 0.327500 -0.160000 -0.010312 -0.999947 0.000000 0.483333 1.000000
0.142203 0.253870 -0.160000 -0.974322 -0.225158 0.000516 0.653567 1.000000
0.126132 0.324148 0.160000 -0.974322 -0.225158 0.000516 0.538057 0.000000
0.125921 0.324327 -0.160000 -0.974322 -0.225158 0.000516 0.537398 1.000000
-0.138783 0.245358 -0.160000 -0.030278 0.999541 0.000736 0.733507 1.000000
0.142141 0.253633 0.160000 -0.030278 0.999541 0.000736 0.653397 0.000000
0.142203 0.253870 -0.160000 -0.030278 0.999541 0.000736 0.653567 1.000000
-0.160249 0.211238 -0.160000 -0.846381 0.532482 -0.010051 0.804175 1.000000
-0.160589 0.216739 0.160000 -0.846381 0.532482 -0.010051 0.794085 0.000000
-0.138783 0.245358 -0.160000 -0.846381 0.532482 -0.010051 0.733507 1.000000
-0.107270 0.011937 -0.160000 -0.966431 -0.256902 0.003391 0.949496 1.000000
-0.160589 0.216739 0.160000 -0.966431 -0.256902 0.003391 0.794085 0.000000
-0.160249 0.211238 -0.160000 -0.966431 -0.256902 0.003391 0.804175 1.000000
-0.255926 0.000000 -0.160000 0.000000 -1.000000 -0.000000 0.166667 1.000000
-0.375093 -0.000000 0.160000 0.000000 -1.000000 -0.000000 0.000000 0.000000
-0.375093 0.000000 -0.160000 0.000000 -1.000000 -0.000000 0.000000 1.000000
-0.352593 0.456667 -0.160000 0.978322 0.207090 0.000000 0.333333 1.000000
-0.255926 -0.000000 0.160000 0.978322 0.207090 0.000000 0.166667 0.000000
-0.255926 0.000000 -0.160000 0.978322 0.207090 0.000000 0.166667 1.000000
-0.275926 0.456667 -0.160000 0.000000 -1.000000 0.000000 0.500000 1.000000
-0.352593 0.456667 0.160000 0.000000 -1.000000 0.000000 0.333333 0.000000
-0.352593 0.456667 -0.160000 0.000000 -1.000000 0.000000 0.333333 1.000000
-0.298426 0.564167 -0.160000 0.978791 0.204864 -0.000000 0.666667 1.000000
-0.275926 0.456667 0.160000 0.978791 0.204864 -0.000000 0.500000 0.000000
-0.275926 0.456667 -0.160000 0.978791 0.204864 -0.000000 0.500000 1.000000
-0.494259 0.564167 -0.160000 0.000000 1.000000 -0.000000 0.833333 1.000000
-0.298426 0.564167 0.160000 0.000000 1.000000 -0.000000 0.666667 0.000000
-0.298426 0.564167 -0.160000 0.000000 1.000000 -0.000000 0.666667 1.000000
-0.375093 0.000000 -0.160000 -0.978411 -0.206666 0.000000 1.000000 1.000000
-0.494259 0.564167 0.160000 -0.978411 -0.206666 0.000000 0.833333 0.000000
-0.494259 0.564167 -0.160000 -0.978411 -0.206666 0.000000 0.833333 1.000000
-0.515093 0.000000 -0.160000 0.000000 -1.000000 -0.000000 0.166667 1.000000
-0.634259 -0.000000 0.160000 0.000000 -1.000000 -0.000000 0.000000 0.000000
-0.634259 0.000000 -0.160000 0.000000 -1.000000 -0.000000 0.000000 1.000000
-0.611759 0.456667 -0.160000 0.978322 0.207090 0.000000 0.333333 1.000000
-0.515093 -0.000000 0.160000 0.978322 0.207090 0.000000 0.166667 0.000000
-0.515093 0.000000 -0.160000 0.978322 0.207090 0.000000 0.166667 1.000000
-0.535093 0.456667 -0.160000 0.000000 -1.000000 0.000000 0.500000 1.000000
-0.611759 0.456667 0.160000 0.000000 -1.000000 0.000000 0.333333 0.000000
-0.611759 0.456667 -0.160000 0.000000 -1.000000 0.000000 0.333333 1.000000
-0.557593 0.564167 -0.160000 0.978791 0.204864 -0.000000 0.666667 1.000000
-0.535093 0.456667 0.160000 0.978791 0.204864 -0.000000 0.500000 0.000000
-0.535093 0.456667 -0.160000 0.978791 0.204864 -0.000000 0.500000 1.000000
-0.753426 0.564167 -0.160000 0.000000 1.000000 -0.000000 0.833333 1.000000
-0.557593 0.564167 0.160000 0.000000 1.000000 -0.000000 0.666667 0.000000
-0.557593 0.564167 -0.160000 0.000000 1.000000 -0.000000 0.666667 1.000000
-0.634259 0.000000 -0.160000 -0.978411 -0.206666 0.000000 1.000000 1.000000
-0.753426 0.564167 0.160000 -0.978411 -0.206666 0.000000 0.833333 0.000000
-0.753426 0.564167 -0.160000 -0.978411 -0.206666 0.000000 0.833333 1.000000
-0.725926 0.000000 -0.160000 0.000000 -1.000000 -0.000000 0.004132 1.000000
-1.175093 -0.000000 0.160000 0.000000 -1.000000 -0.000000 0.000000 0.000000
-1.175093 0.000000 -0.160000 0.000000 -1.000000 -0.000000 0.000000 1.000000
-0.793686 0.286803 -0.160000 0.973207 0.229929 0.000000 0.085187 1.000000
-0.725926 -0.000000 0.160000 0.973207 0.229929 0.000000 0.004132 0.000000
-0.725926 0.000000 -0.160000 0.973207 0.229929 0.000000 0.004132 1.000000
-0.859408 0.321469 -0.160000 0.466536 0.884501 -0.001375 0.170668 1.000000
-0.794192 0.287568 0.160000 0.466536 0.884501 -0.001375 0.086195 0.000000
-0.793686 0.286803 -0.160000 0.466536 0.884501 -0.001375 0.085187 1.000000
-1.122401 0.327413 -0.160000 0.022596 0.999745 -0.000528 0.255979 1.000000
-0.860660 0.321666 0.160000 0.022596 0.999745 -0.000528 0.171973 0.000000
-0.859408 0.321469 -0.160000 0.022596 0.999745 -0.000528 0.170668 1.000000
-1.152860 0.457072 -0.160000 0.973499 0.228691 0.000748 0.374532 1.000000
-1.122709 0.327679 0.160000 0.973499 0.228691 0.000748 0.255649 0.000000
-1.122401 0.327413 -0.160000 0.973499 0.228691 0.000748 0.255979 1.000000
-0.940032 0.458906 -0.160000 0.008615 -0.999962 0.000884 0.465392 1.000000
-1.152798 0.457355 0.160000 0.008615 -0.999962 0.000884 0.374694 0.000000
-1.152860 0.457072 -0.160000 0.008615 -0.999962 0.000884 0.374532 1.000000
-0.920926 0.390000 -0.160000 -0.963641 -0.267199 0.000769 0.520661 1.000000
-0.939703 0.458640 0.160000 -0.963641 -0.267199 0.000769 0.467571 0.000000
-0.940032 0.458906 -0.160000 -0.963641 -0.267199 0.000769 0.465392 1.000000
-0.806759 0.390000 -0.160000 0.000000 -1.000000 0.000000 0.524793 1.000000
-0.920926 0.390000 0.160000 0.000000 -1.000000 0.000000 0.520661 0.000000
-0.920926 0.390000 -0.160000 0.000000 -1.000000 0.000000 0.520661 1.000000
-0.843224 0.527525 -0.160000 0.966600 0.256290 -0.000000 0.565300 1.000000
-0.806759 0.390000 0.160000 0.966600 0.256290 -0.000000 0.524793 0.000000
-0.806759 0.390000 -0.160000 0.966600 0.256290 -0.000000 0.524793 1.000000
-0.909449 0.562499 -0.160000 0.466780 0.883879 -0.029561 0.611268 1.000000
-0.878252 0.556726 0.160000 0.466780 0.883879 -0.029561 0.592206 0.000000
-0.843224 0.527525 -0.160000 0.466780 0.883879 -0.029561 0.565300 1.000000
-1.247436 0.559491 -0.160000 -0.008899 0.999782 0.018904 0.669064 1.000000
-0.878252 0.556726 0.160000 -0.008899 0.999782 0.018904 0.592206 0.000000
-0.909449 0.562499 -0.160000 -0.008899 0.999782 0.018904 0.611268 1.000000
-1.279310 0.514366 -0.160000 -0.816784 0.576936 -0.002961 0.723921 1.000000
-1.279449 0.515811 0.160000 -0.816784 0.576936 -0.002961 0.722482 0.000000
-1.247436 0.559491 -0.160000 -0.816784 0.576936 -0.002961 0.669064 1.000000
-1.225091 0.266066 -0.160000 -0.976979 -0.213335 0.000538 0.821708 1.000000
-1.279449 0.515811 0.160000 -0.976979 -0.213335 0.000538 0.722482 0.000000
-1.279310 0.514366 -0.160000 -0.976979 -0.213335 0.000538 0.723921 1.000000
-1.164294 0.232430 -0.160000 -0.484099 -0.875010 -0.002419 0.867560 1.000000
-1.224113 0.264640 0.160000 -0.484099 -0.875010 -0.002419 0.822811 0.000000
-1.225091 0.266066 -0.160000 -0.484099 -0.875010 -0.002419 0.821708 1.000000
-0.897299 0.226757 -0.160000 -0.021245 -0.999774 -0.000838 0.934301 1.000000
-1.162430 0.232122 0.160000 -0.021245 -0.999774 -0.000838 0.868693 0.000000
-1.164294 0.232430 -0.160000 -0.021245 -0.999774 -0.000838 0.867560 1.000000
-0.866759 0.105833 -0.160000 -0.969556 -0.244868 0.000618 0.991736 1.000000
-0.897035 0.226517 0.160000 -0.969556 -0.244868 0.000618 0.934844 0.000000
-0.897299 0.226757 -0.160000 -0.969556 -0.244868 0.000618 0.934301 1.000000
-1.196759 0.105833 -0.160000 0.000000 1.000000 0.000000 0.995868 1.000000
-0.866759 0.105833 0.160000 0.000000 1.000000 0.000000 0.991736 0.000000
-0.866759 0.105833 -0.160000 0.000000 1.000000 0.000000 0.991736 1.000000
-1.175093 0.000000 -0.160000 -0.979681 -0.200563 -0.000000 1.000000 1.000000
-1.196759 0.105833 0.160000 -0.979681 -0.200563 -0.000000 0.995868 0.000000
-1.196759 0.105833 -0.160000 -0.979681 -0.200563 -0.000000 0.995868 1.000000
1.121574 -0.000000 0.160000 0.000000 -1.000000 -0.000000 0.021739 0.000000
0.995484 0.565087 -0.160000 0.975765 0.218812 0.001918 0.244460 1.000000
0.994542 0.566481 0.160000 0.975765 0.218812 0.001918 0.250192 0.000000
1.121574 -0.000000 0.160000 0.975765 0.218812 0.001918 0.021739 0.000000
0.940807 0.596851 -0.160000 0.484510 0.874784 0.001662 0.478307 1.000000
0.939190 0.597138 0.160000 0.484510 0.874784 0.001662 0.484210 0.000000
0.994542 0.566481 0.160000 0.484510 0.874784 0.001662 0.250192 0.000000
0.770741 0.598333 -0.160000 0.007094 0.999975 0.000000 0.586957 1.000000
0.770741 0.598333 0.160000 0.007094 0.999975 0.000000 0.586957 0.000000
0.939190 0.597138 0.160000 0.007094 0.999975 0.000000 0.484210 0.000000
0.789907 0.507500 0.160000 -0.978455 -0.206463 -0.000000 0.608696 0.000000
0.895017 0.504134 -0.160000 -0.035656 -0.999363 -0.001201 0.757821 1.000000
0.895483 0.503733 0.160000 -0.035656 -0.999363 -0.001201 0.761894 0.000000
0.789907 0.507500 0.160000 -0.035656 -0.999363 -0.001201 0.608696 0.000000
0.915741 0.421667 -0.160000 -0.970859 -0.239650 -0.000000 0.913043 1.000000
0.915741 0.421667 0.160000 -0.970859 -0.239650 -0.000000 0.913043 0.000000
0.895483 0.503733 0.160000 -0.970859 -0.239650 -0.000000 0.761894 0.000000
0.811574 0.421667 0.160000 0.000000 1.000000 0.000000 0.934783 0.000000
0.830741 0.330000 0.160000 -0.978832 -0.204665 -0.000000 0.956522 0.000000
0.934907 0.330000 0.160000 0.000000 -1.000000 0.000000 0.978261 0.000000
1.004907 -0.000000 0.160000 -0.978234 -0.207504 -0.000000 1.000000 0.000000
0.674907 0.000000 -0.160000 -0.025082 -0.999685 -0.000000 0.007692 1.000000
0.674907 -0.000000 0.160000 -0.025082 -0.999685 -0.000000 0.007692 0.000000
0.426289 0.006238 0.160000 -0.025082 -0.999685 -0.000000 0.000000 0.000000
0.654074 0.100000 0.160000 0.978980 0.203954 0.000000 0.015385 0.000000
0.495235 0.102876 -0.160000 0.019157 0.999816 -0.000523 0.113512 1.000000
0.495022 0.103047 0.160000 0.019157 0.999816 -0.000523 0.114627 0.000000
0.654074 0.100000 0.160000 0.019157 0.999816 -0.000523 0.015385 0.000000
0.449994 0.314866 -0.160000 0.978245 0.207453 -0.000330 0.378731 1.000000
0.450074 0.314997 0.160000 0.978245 0.207453 -0.000330 0.379419 0.000000
0.495022 0.103047 0.160000 0.978245 0.207453 -0.000330 0.114627 0.000000
0.649074 0.318333 -0.160000 0.016764 -0.999860 0.000000 0.500000 1.000000
0.649074 0.318333 0.160000 0.016764 -0.999860 0.000000 0.500000 0.000000
0.450074 0.314997 0.160000 0.016764 -0.999860 0.000000 0.379419 0.000000
0.754907 -0.176667 0.160000 -0.977899 -0.209079 -0.000000 0.507692 0.000000
0.871574 -0.176667 0.160000 0.000000 -1.000000 -0.000000 0.515385 0.000000
0.744074 0.421667 0.160000 0.978041 0.208413 0.000000 0.523077 0.000000
0.341613 0.416713 -0.160000 -0.013328 0.999910 0.001284 0.607707 1.000000
0.340748 0.416291 0.160000 -0.013328 0.999910 0.001284 0.609985 0.000000
0.744074 0.421667 0.160000 -0.013328 0.999910 0.001284 0.523077 0.000000
0.319335 0.373915 -0.160000 -0.897623 0.440760 0.001699 0.714597 1.000000
0.319357 0.372726 0.160000 -0.897623 0.440760 0.001699 0.717443 0.000000
0.340748 0.416291 0.160000 -0.897623 0.440760 0.001699 0.609985 0.000000
0.395464 0.031179 -0.160000 -0.978908 -0.203723 -0.015380 0.881987 1.000000
0.385246 0.056122 0.160000 -0.978908 -0.203723 -0.015380 0.846595 0.000000
0.319357 0.372726 0.160000 -0.978908 -0.203723 -0.015380 0.717443 0.000000
0.395464 0.031179 -0.160000 -0.771978 -0.635164 0.024857 0.881987 1.000000
0.426289 0.006238 0.160000 -0.771978 -0.635164 0.024857 0.933678 0.000000
0.385246 0.056122 0.160000 -0.771978 -0.635164 0.024857 0.846595 0.000000
0.313241 0.000000 -0.160000 -0.026756 -0.999642 -0.000000 0.004167 1.000000
0.313241 -0.000000 0.160000 -0.026756 -0.999642 -0.000000 0.004167 0.000000
-0.106394 0.011232 0.160000 -0.026756 -0.999642 -0.000000 0.000000 0.000000
0.293241 0.096667 -0.160000 0.979260 0.202605 0.000000 0.008333 1.000000
0.293241 0.096667 0.160000 0.979260 0.202605 0.000000 0.008333 0.000000
0.313241 -0.000000 0.160000 0.979260 0.202605 0.000000 0.004167 0.000000
-0.014493 0.099154 -0.160000 0.008517 0.999964 -0.000416 0.061820 1.000000
-0.014652 0.099289 0.160000 0.008517 0.999964 -0.000416 0.062382 0.000000
0.293241 0.096667 0.160000 0.008517 0.999964 -0.000416 0.008333 0.000000
-0.031495 0.171846 -0.160000 0.974370 0.224952 -0.000279 0.176901 1.000000
-0.031447 0.172034 0.160000 0.974370 0.224952 -0.000279 0.176655 0.000000
-0.014652 0.099289 0.160000 0.974370 0.224952 -0.000279 0.062382 0.000000
0.234564 0.177278 -0.160000 0.028351 -0.999572 0.007187 0.244720 1.000000
0.246211 0.179909 0.160000 0.028351 -0.999572 0.007187 0.259741 0.000000
-0.031447 0.172034 0.160000 0.028351 -0.999572 0.007187 0.176655 0.000000
0.267139 0.203914 -0.160000 0.853001 -0.521643 0.016655 0.304737 1.000000
0.266880 0.213708 0.160000 0.853001 -0.521643 0.016655 0.320158 0.000000
0.246211 0.179909 0.160000 0.853001 -0.521643 0.016655 0.259741 0.000000
0.224797 0.394563 -0.160000 0.978940 0.203693 -0.013619 0.412374 1.000000
0.234087 0.371309 0.160000 0.978940 0.203693 -0.013619 0.391929 0.000000
0.266880 0.213708 0.160000 0.978940 0.203693 -0.013619 0.320158 0.000000
0.224797 0.394563 -0.160000 0.787363 0.616100 0.021911 0.412374 1.000000
0.199188 0.415911 0.160000 0.787363 0.616100 0.021911 0.437842 0.000000
0.234087 0.371309 0.160000 0.787363 0.616100 0.021911 0.391929 0.000000
-0.201759 0.421667 -0.160000 0.014355 0.999897 0.000000 0.479167 1.000000
-0.201759 0.421667 0.160000 0.014355 0.999897 0.000000 0.479167 0.000000
0.199188 0.415911 0.160000 0.014355 0.999897 0.000000 0.437842 0.000000
-0.181759 0.327500 0.160000 -0.978181 -0.207755 -0.000000 0.483333 0.000000
0.125921 0.324327 -0.160000 -0.010885 -0.999941 -0.000551 0.537398 1.000000
0.126132 0.324148 0.160000 -0.010885 -0.999941 -0.000551 0.538057 0.000000
-0.181759 0.327500 0.160000 -0.010885 -0.999941 -0.000551 0.483333 0.000000
0.142203 0.253870 -0.160000 -0.975184 -0.221395 -0.000353 0.653567 1.000000
0.142141 0.253633 0.160000 -0.975184 -0.221395 -0.000353 0.653397 0.000000
0.126132 0.324148 0.160000 -0.975184 -0.221395 -0.000353 0.538057 0.000000
-0.138783 0.245358 -0.160000 -0.025427 0.999671 -0.003527 0.733507 1.000000
-0.133114 0.246632 0.160000 -0.025427 0.999671 -0.003527 0.726016 0.000000
0.142141 0.253633 0.160000 -0.025427 0.999671 -0.003527 0.653397 0.000000
-0.138783 0.245358 -0.160000 -0.736222 0.676661 0.010350 0.733507 1.000000
-0.160589 0.216739 0.160000 -0.736222 0.676661 0.010350 0.794085 0.000000
-0.133114 0.246632 0.160000 -0.736222 0.676661 0.010350 0.726016 0.000000
-0.107270 0.011937 -0.160000 -0.966940 -0.254997 0.002087 0.949496 1.000000
-0.106394 0.011232 0.160000 -0.966940 -0.254997 0.002087 0.951707 0.000000
-0.160589 0.216739 0.160000 -0.966940 -0.254997 0.002087 0.794085 0.000000
-0.255926 -0.000000 0.160000 0.000000 -1.000000 -0.000000 0.166667 0.000000
-0.352593 0.456667 0.160000 0.978322 0.207090 0.000000 0.333333 0.000000
-0.275926 0.456667 0.160000 0.000000 -1.000000 0.000000 0.500000 0.000000
-0.298426 0.564167 0.160000 0.978791 0.204864 0.000000 0.666667 0.000000
-0.494259 0.564167 0.160000 0.000000 1.000000 0.000000 0.833333 0.000000
-0.375093 -0.000000 0.160000 -0.978411 -0.206666 -0.000000 1.000000 0.000000
-0.515093 -0.000000 0.160000 0.000000 -1.000000 -0.000000 0.166667 0.000000
-0.611759 0.456667 0.160000 0.978322 0.207090 0.000000 0.333333 0.000000
-0.535093 0.456667 0.160000 0.000000 -1.000000 0.000000 0.500000 0.000000
-0.557593 0.564167 0.160000 0.978791 0.204864 0.000000 0.666667 0.000000
-0.753426 0.564167 0.160000 0.000000 1.000000 0.000000 0.833333 0.000000
-0.634259 -0.000000 0.160000 -0.978411 -0.206666 -0.000000 1.000000 0.000000
-0.725926 -0.000000 0.160000 0.000000 -1.000000 -0.000000 0.004132 0.000000
-0.793686 0.286803 -0.160000 0.972960 0.230971 0.000986 0.085187 1.000000
-0.794192 0.287568 0.160000 0.972960 0.230971 0.000986 0.086195 0.000000
-0.725926 -0.000000 0.160000 0.972960 0.230971 0.000986 0.004132 0.000000
-0.859408 0.321469 -0.160000 0.456442 0.889752 0.001238 0.170668 1.000000
-0.860660 0.321666 0.160000 0.456442 0.889752 0.001238 0.171973 0.000000
-0.794192 0.287568 0.160000 0.456442 0.889752 0.001238 0.086195 0.000000
-1.122401 0.327413 -0.160000 0.022940 0.999736 -0.000809 0.255979 1.000000
-1.122709 0.327679 0.160000 0.022940 0.999736 -0.000809 0.255649 0.000000
-0.860660 0.321666 0.160000 0.022940 0.999736 -0.000809 0.171973 0.000000
-1.152860 0.457072 -0.160000 0.974121 0.226026 -0.000389 0.374532 1.000000
-1.152798 0.457355 0.160000 0.974121 0.226026 -0.000389 0.374694 0.000000
-1.122709 0.327679 0.160000 0.974121 0.226026 -0.000389 0.255649 0.000000
-0.940032 0.458906 -0.160000 0.006030 -0.999981 -0.000835 0.465392 1.000000
-0.939703 0.458640 0.160000 0.006030 -0.999981 -0.000835 0.467571 0.000000
-1.152798 0.457355 0.160000 0.006030 -0.999981 -0.000835 0.374694 0.000000
-0.920926 0.390000 -0.160000 -0.964560 -0.263863 -0.000000 0.520661 1.000000
-0.920926 0.390000 0.160000 -0.964560 -0.263863 -0.000000 0.520661 0.000000
-0.939703 0.458640 0.160000 -0.964560 -0.263863 -0.000000 0.467571 0.000000
-0.806759 0.390000 0.160000 0.000000 -1.000000 0.000000 0.524793 0.000000
-0.843224 0.527525 -0.160000 0.975248 0.220506 -0.016364 0.565300 1.000000
-0.831154 0.497892 0.160000 0.975248 0.220506 -0.016364 0.545604 0.000000
-0.806759 0.390000 0.160000 0.975248 0.220506 -0.016364 0.524793 0.000000
-0.843224 0.527525 -0.160000 0.780355 0.624690 0.028416 0.565300 1.000000
-0.878252 0.556726 0.160000 0.780355 0.624690 0.028416 0.592206 0.000000
-0.831154 0.497892 0.160000 0.780355 0.624690 0.028416 0.545604 0.000000
-1.247436 0.559491 -0.160000 0.007922 0.999968 -0.000500 0.669064 1.000000
-1.246165 0.559641 0.160000 0.007922 0.999968 -0.000500 0.667801 0.000000
-0.878252 0.556726 0.160000 0.007922 0.999968 -0.000500 0.592206 0.000000
-1.247436 0.559491 -0.160000 -0.796395 0.604769 0.002878 0.669064 1.000000
-1.279449 0.515811 0.160000 -0.796395 0.604769 0.002878 0.722482 0.000000
-1.246165 0.559641 0.160000 -0.796395 0.604769 0.002878 0.667801 0.000000
-1.225091 0.266066 -0.160000 -0.976578 -0.215152 0.002025 0.821708 1.000000
-1.224113 0.264640 0.160000 -0.976578 -0.215152 0.002025 0.822811 0.000000
-1.279449 0.515811 0.160000 -0.976578 -0.215152 0.002025 0.722482 0.000000
-1.164294 0.232430 -0.160000 -0.466347 -0.884600 0.001865 0.867560 1.000000
-1.162430 0.232122 0.160000 -0.466347 -0.884600 0.001865 0.868693 0.000000
-1.224113 0.264640 0.160000 -0.466347 -0.884600 0.001865 0.822811 0.000000
-0.897299 0.226757 -0.160000 -0.021114 -0.999777 -0.000730 0.934301 1.000000
-0.897035 0.226517 0.160000 -0.021114 -0.999777 -0.000730 0.934844 0.000000
-1.162430 0.232122 0.160000 -0.021114 -0.999777 -0.000730 0.868693 0.000000
-0.866759 0.105833 -0.160000 -0.969944 -0.243327 -0.000000 0.991736 1.000000
-0.866759 0.105833 0.160000 -0.969944 -0.243327 -0.000000 0.991736 0.000000
-0.897035 0.226517 0.160000 -0.969944 -0.243327 -0.000000 0.934844 0.000000
-1.196759 0.105833 0.160000 0.000000 1.000000 0.000000 0.995868 0.000000
-1.175093 -0.000000 0.160000 -0.979681 -0.200563 -0.000000 1.000000 0.000000
3 0 1 2
3 3 1 0
3 3 4 1
3 5 4 3
3 6 4 5
3 6 7 4
3 8 9 6
3 9 10 6
3 10 7 6
3 10 11 7
3 11 12 7
3 12 13 7
3 8 14 9
3 8 15 14
3 16 13 12
3 17 13 16
3 18 19 20
3 21 13 22
3 23 13 21
3 24 19 25
3 26 27 13
3 28 27 26
3 28 29 27
3 28 30 29
3 28 31 30
3 28 32 31
3 33 32 28
3 33 34 32
3 33 35 34
3 33 36 35
3 37 38 39
3 37 40 38
3 40 41 38
3 42 41 40
3 43 44 45
3 43 46 44
3 46 47 44
3 48 47 46
3 49 50 51
3 52 50 49
3 53 50 52
3 54 55 53
3 55 56 53
3 56 50 53
3 54 57 55
3 54 58 57
3 54 59 58
3 54 60 59
3 54 61 60
3 54 62 61
3 63 62 54
3 63 64 62
3 65 64 63
3 65 66 64
3 66 67 64
3 67 68 64
3 69 66 65
3 70 68 67
3 71 72 73
3 74 75 76
3 74 68 75
3 74 77 68
3 74 78 77
3 79 80 81
3 80 82 81
3 80 83 82
3 80 84 83
3 80 85 84
3 80 86 85
3 80 87 86
3 87 88 86
3 88 89 86
3 79 90 80
3 91 89 88
3 92 89 91
3 93 92 94
3 93 89 92
3 93 95 89
3 93 96 95
3 97 98 99
3 100 98 97
3 101 98 100
3 102 98 101
3 103 98 102
3 102 104 103
3 105 104 102
3 105 106 104
3 105 107 106
3 107 108 106
3 107 109 108
3 105 110 107
3 111 112 113
3 111 114 112
3 115 114 111
3 115 116 114
3 115 117 116
3 118 117 115
3 119 120 117
3 121 119 117
3 118 121 117
3 122 121 118
3 123 122 118
3 124 123 118
3 125 120 119
3 126 120 125
3 124 127 123
3 124 128 127
3 129 130 131
3 124 132 133
3 124 134 132
3 129 135 136
3 137 138 124
3 137 139 138
3 140 139 137
3 141 139 140
3 142 139 141
3 143 139 142
3 143 144 139
3 145 144 143
3 146 144 145
3 147 144 146
3 148 149 150
3 151 149 148
3 152 151 148
3 152 153 151
3 154 155 156
3 157 155 154
3 158 157 154
3 158 159 157
3 160 161 162
3 160 163 161
3 160 164 163
3 165 166 164
3 167 165 164
3 160 167 164
3 168 166 165
3 169 166 168
3 170 166 169
3 171 166 170
3 172 166 171
3 173 166 172
3 173 174 166
3 175 174 173
3 175 176 174
3 177 176 175
3 178 177 175
3 179 178 175
3 177 180 176
3 179 181 178
3 182 183 184
3 185 186 187
3 179 186 185
3 188 186 179
3 189 186 188
3 190 191 192
3 193 190 192
3 194 190 193
3 195 190 194
3 196 190 195
3 197 190 196
3 198 190 197
3 199 198 197
3 200 199 197
3 201 191 190
3 200 202 199
3 200 203 202
3 203 204 205
3 200 204 203
3 206 204 200
3 207 204 206
3 208 209 210
3 208 211 209
3 208 212 211
3 208 213 212
3 208 214 213
3 215 213 214
3 215 216 213
3 217 216 215
3 218 216 217
3 219 218 217
3 220 218 219
3 221 216 218
3 222 223 224
3 225 226 227
3 228 229 230
3 231 232 233
3 234 235 236
3 237 238 239
3 240 241 242
3 243 244 245
3 246 247 248
3 249 250 251
3 252 253 254
3 255 256 257
3 258 259 260
3 261 262 263
3 264 265 266
3 267 268 269
3 270 271 272
3 273 274 275
3 276 277 278
3 279 280 281
3 282 283 284
3 285 286 287
3 288 289 290
3 291 292 293
3 294 295 296
3 297 298 299
3 300 301 302
3 303 304 305
3 306 307 308
3 309 310 311
3 312 313 314
3 315 316 317
3 318 319 320
3 321 322 323
3 324 325 326
3 327 328 329
3 330 331 332
3 333 334 335
3 336 337 338
3 339 340 341
3 342 343 344
3 345 346 347
3 348 349 350
3 351 352 353
3 354 355 356
3 357 358 359
3 360 361 362
3 363 364 365
3 366 367 368
3 369 370 371
3 372 373 374
3 375 376 377
3 378 379 380
3 381 382 383
3 384 385 386
3 387 388 389
3 390 391 392
3 393 394 395
3 396 397 398
3 399 400 401
3 402 403 404
3 405 406 407
3 408 409 410
3 411 412 413
3 414 415 416
3 417 418 419
3 420 421 422
3 423 424 425
3 222 426 223
3 427 428 429
3 430 431 432
3 433 434 435
3 234 436 235
3 437 438 439
3 440 441 442
3 243 443 244
3 246 444 247
3 249 445 250
3 252 446 253
3 447 448 449
3 258 450 259
3 451 452 453
3 454 455 456
3 457 458 459
3 270 460 271
3 273 461 274
3 276 462 277
3 463 464 465
3 466 467 468
3 469 470 471
3 472 473 474
3 475 476 477
3 478 479 480
3 481 482 483
3 484 485 486
3 487 488 489
3 490 491 492
3 493 494 495
3 496 497 498
3 499 500 501
3 318 502 319
3 503 504 505
3 506 507 508
3 509 510 511
3 512 513 514
3 515 516 517
3 336 518 337
3 339 519 340
3 342 520 343
3 345 521 346
3 348 522 349
3 351 523 352
3 354 524 355
3 357 525 358
3 360 526 361
3 363 527 364
3 366 528 367
3 369 529 370
3 372 530 373
3 531 532 533
3 534 535 536
3 537 538 539
3 540 541 542
3 543 544 545
3 546 547 548
3 393 549 394
3 550 551 552
3 553 554 555
3 556 557 558
3 559 560 561
3 562 563 564
3 565 566 567
3 568 569 570
3 571 572 573
3 420 574 421
3 423 575 424
